NewsreaderCaption-Italic.ufo
<glyph name="exclam" format="2">
	<unicode hex="0021"/>
	<advance width="637"/>
	<outline>
		<contour>
			<point x="693" y="1386" type="line" smooth="yes"/>
			<point x="703" y="1417"/>
			<point x="683" y="1433"/>
			<point x="592" y="1433" type="curve" smooth="yes"/>
			<point x="504" y="1433"/>
			<point x="477" y="1417"/>
			<point x="468" y="1386" type="curve" smooth="yes"/>
			<point x="447" y="1314" type="line" smooth="yes"/>
			<point x="437" y="1278"/>
			<point x="255" y="533"/>
			<point x="235" y="440" type="curve"/>
			<point x="347" y="440" type="line"/>
			<point x="385" y="533"/>
			<point x="658" y="1278"/>
			<point x="670" y="1314" type="curve" smooth="yes"/>
		</contour>
		<contour>
			<point x="236" y="261" type="curve" smooth="yes"/>
			<point x="115" y="261"/>
			<point x="51" y="178"/>
			<point x="51" y="81" type="curve" smooth="yes"/>
			<point x="51" y="17"/>
			<point x="90" y="-18"/>
			<point x="162" y="-18" type="curve" smooth="yes"/>
			<point x="283" y="-18"/>
			<point x="347" y="65"/>
			<point x="347" y="161" type="curve" smooth="yes"/>
			<point x="347" y="226"/>
			<point x="308" y="261"/>
		</contour>
	</outline>
</glyph>
<glyph name="ampersand" format="2">
	<unicode hex="0026"/>
	<advance width="1586"/>
	<outline>
		<contour>
			<point x="1077" y="211" type="line"/>
			<point x="1198" y="330"/>
			<point x="1314" y="481"/>
			<point x="1455" y="749" type="curve"/>
			<point x="1603" y="769" type="line"/>
			<point x="1633" y="864" type="line"/>
			<point x="1149" y="864" type="line"/>
			<point x="1119" y="769" type="line"/>
			<point x="1274" y="749" type="line"/>
			<point x="1182" y="497"/>
			<point x="1092" y="393"/>
			<point x="995" y="292" type="curve"/>
			<point x="922" y="236" type="line"/>
			<point x="795" y="141"/>
			<point x="696" y="114"/>
			<point x="580" y="114" type="curve" smooth="yes"/>
			<point x="376" y="114"/>
			<point x="286" y="203"/>
			<point x="286" y="377" type="curve" smooth="yes"/>
			<point x="286" y="516"/>
			<point x="333" y="617"/>
			<point x="614" y="715" type="curve"/>
			<point x="741" y="762" type="line"/>
			<point x="1119" y="887"/>
			<point x="1199" y="1001"/>
			<point x="1199" y="1175" type="curve" smooth="yes"/>
			<point x="1199" y="1321"/>
			<point x="1095" y="1434"/>
			<point x="867" y="1434" type="curve" smooth="yes"/>
			<point x="575" y="1434"/>
			<point x="447" y="1295"/>
			<point x="447" y="1080" type="curve" smooth="yes"/>
			<point x="447" y="975"/>
			<point x="491" y="886"/>
			<point x="574" y="747" type="curve" smooth="yes"/>
			<point x="1021" y="0" type="line"/>
			<point x="1363" y="0" type="line"/>
			<point x="1392" y="99" type="line"/>
			<point x="1160" y="136" type="line"/>
			<point x="725" y="860" type="line" smooth="yes"/>
			<point x="658" y="971"/>
			<point x="626" y="1052"/>
			<point x="626" y="1134" type="curve" smooth="yes"/>
			<point x="626" y="1237"/>
			<point x="686" y="1306"/>
			<point x="852" y="1306" type="curve" smooth="yes"/>
			<point x="981" y="1306"/>
			<point x="1042" y="1262"/>
			<point x="1042" y="1166" type="curve" smooth="yes"/>
			<point x="1042" y="1031"/>
			<point x="983" y="960"/>
			<point x="710" y="856" type="curve"/>
			<point x="588" y="815" type="line"/>
			<point x="173" y="682"/>
			<point x="97" y="538"/>
			<point x="97" y="326" type="curve" smooth="yes"/>
			<point x="97" y="129"/>
			<point x="218" y="-20"/>
			<point x="504" y="-20" type="curve" smooth="yes"/>
			<point x="654" y="-20"/>
			<point x="835" y="8"/>
			<point x="1000" y="152" type="curve"/>
		</contour>
	</outline>
</glyph>
<glyph name="quotesingle" format="2">
	<unicode hex="0027"/>
	<advance width="442"/>
	<outline>
		<contour>
			<point x="289" y="937" type="line"/>
			<point x="394" y="937" type="line"/>
			<point x="581" y="1378" type="line"/>
			<point x="592" y="1414" type="line"/>
			<point x="384" y="1414" type="line"/>
			<point x="373" y="1378" type="line"/>
		</contour>
	</outline>
</glyph>
<glyph name="parenleft" format="2">
	<unicode hex="0028"/>
	<advance width="685"/>
	<outline>
		<contour>
			<point x="887" y="1403" type="curve"/>
			<point x="825" y="1487" type="line"/>
			<point x="233" y="1059"/>
			<point x="112" y="741"/>
			<point x="112" y="366" type="curve" smooth="yes"/>
			<point x="112" y="183"/>
			<point x="170" y="-5"/>
			<point x="308" y="-244" type="curve"/>
			<point x="408" y="-185" type="line"/>
			<point x="316" y="-4"/>
			<point x="284" y="151"/>
			<point x="284" y="332" type="curve" smooth="yes"/>
			<point x="284" y="728"/>
			<point x="433" y="1052"/>
		</contour>
	</outline>
</glyph>
<glyph name="parenright" format="2">
	<unicode hex="0029"/>
	<advance width="685"/>
	<outline>
		<contour>
			<point x="-138" y="-160" type="curve"/>
			<point x="-76" y="-244" type="line"/>
			<point x="516" y="184"/>
			<point x="637" y="502"/>
			<point x="637" y="877" type="curve" smooth="yes"/>
			<point x="637" y="1060"/>
			<point x="579" y="1248"/>
			<point x="441" y="1487" type="curve"/>
			<point x="341" y="1428" type="line"/>
			<point x="433" y="1247"/>
			<point x="465" y="1092"/>
			<point x="465" y="911" type="curve" smooth="yes"/>
			<point x="465" y="515"/>
			<point x="316" y="191"/>
		</contour>
	</outline>
</glyph>
<glyph name="asterisk" format="2">
	<unicode hex="002A"/>
	<advance width="917"/>
	<outline>
		<contour>
			<point x="799" y="781" type="line"/>
			<point x="719" y="1024" type="line"/>
			<point x="972" y="1050" type="line"/>
			<point x="965" y="1154" type="line"/>
			<point x="709" y="1152" type="line"/>
			<point x="763" y="1400" type="line"/>
			<point x="662" y="1426" type="line"/>
			<point x="587" y="1183" type="line"/>
			<point x="365" y="1309" type="line"/>
			<point x="310" y="1223" type="line"/>
			<point x="518" y="1074" type="line"/>
			<point x="329" y="904" type="line"/>
			<point x="394" y="825" type="line"/>
			<point x="600" y="975" type="line"/>
			<point x="704" y="743" type="line"/>
		</contour>
	</outline>
</glyph>
<glyph name="plus" format="2">
	<unicode hex="002B"/>
	<advance width="1200"/>
	<outline>
		<contour>
			<point x="407" y="90" type="line"/>
			<point x="529" y="90" type="line"/>
			<point x="790" y="940" type="line"/>
			<point x="667" y="940" type="line"/>
		</contour>
		<contour>
			<point x="199" y="577" type="line"/>
			<point x="161" y="453" type="line"/>
			<point x="998" y="453" type="line"/>
			<point x="1036" y="577" type="line"/>
		</contour>
	</outline>
</glyph>
<glyph name="comma" format="2">
	<unicode hex="002C"/>
	<advance width="535"/>
	<outline>
		<contour>
			<point x="-156" y="-267" type="curve"/>
			<point x="-104" y="-352" type="line"/>
			<point x="236" y="-137"/>
			<point x="312" y="-9"/>
			<point x="312" y="138" type="curve" smooth="yes"/>
			<point x="312" y="218"/>
			<point x="263" y="255"/>
			<point x="187" y="255" type="curve" smooth="yes"/>
			<point x="84" y="255"/>
			<point x="18" y="179"/>
			<point x="18" y="115" type="curve" smooth="yes"/>
			<point x="18" y="80"/>
			<point x="92" y="52"/>
			<point x="92" y="-17" type="curve" smooth="yes"/>
			<point x="92" y="-81"/>
			<point x="40" y="-139"/>
		</contour>
	</outline>
</glyph>
<glyph name="hyphen" format="2">
	<unicode hex="002D"/>
	<advance width="787"/>
	<outline>
		<contour>
			<point x="176" y="599" type="line"/>
			<point x="130" y="445" type="line"/>
			<point x="613" y="445" type="line"/>
			<point x="660" y="599" type="line"/>
		</contour>
	</outline>
</glyph>
<glyph name="period" format="2">
	<unicode hex="002E"/>
	<advance width="518"/>
	<outline>
		<contour>
			<point x="196" y="261" type="curve" smooth="yes"/>
			<point x="75" y="261"/>
			<point x="11" y="178"/>
			<point x="11" y="81" type="curve" smooth="yes"/>
			<point x="11" y="17"/>
			<point x="50" y="-18"/>
			<point x="122" y="-18" type="curve" smooth="yes"/>
			<point x="243" y="-18"/>
			<point x="307" y="65"/>
			<point x="307" y="161" type="curve" smooth="yes"/>
			<point x="307" y="226"/>
			<point x="268" y="261"/>
		</contour>
	</outline>
</glyph>
<glyph name="slash" format="2">
	<unicode hex="002F"/>
	<advance width="852"/>
	<outline>
		<contour>
			<point x="-81" y="0" type="line"/>
			<point x="67" y="0" type="line"/>
			<point x="1051" y="1414" type="line"/>
			<point x="904" y="1414" type="line"/>
		</contour>
	</outline>
</glyph>
<glyph name="zero" format="2">
	<unicode hex="0030"/>
	<advance width="1300"/>
	<outline>
		<contour>
			<point x="319" y="399" type="curve" smooth="yes"/>
			<point x="319" y="788"/>
			<point x="543" y="1293"/>
			<point x="872" y="1293" type="curve" smooth="yes"/>
			<point x="1026" y="1293"/>
			<point x="1097" y="1207"/>
			<point x="1097" y="1016" type="curve" smooth="yes"/>
			<point x="1097" y="627"/>
			<point x="873" y="122"/>
			<point x="544" y="122" type="curve" smooth="yes"/>
			<point x="390" y="122"/>
			<point x="319" y="208"/>
		</contour>
		<contour>
			<point x="889" y="1434" type="curve" smooth="yes"/>
			<point x="368.747759283" y="1434"/>
			<point x="118" y="795"/>
			<point x="118" y="410" type="curve" smooth="yes"/>
			<point x="118" y="141"/>
			<point x="255.6348448687" y="-19"/>
			<point x="527" y="-19" type="curve" smooth="yes"/>
			<point x="1047.252240717" y="-19"/>
			<point x="1298" y="620"/>
			<point x="1298" y="1005" type="curve" smooth="yes"/>
			<point x="1298" y="1274"/>
			<point x="1160.3651551313" y="1434"/>
		</contour>
	</outline>
</glyph>
<glyph name="one" format="2">
	<unicode hex="0031"/>
	<advance width="1300"/>
	<outline>
		<contour>
			<point x="480" y="148" type="line"/>
			<point x="227" y="94" type="line"/>
			<point x="198" y="0" type="line"/>
			<point x="870" y="0" type="line"/>
			<point x="898" y="94" type="line"/>
			<point x="678" y="148" type="line"/>
			<point x="1072" y="1434" type="line"/>
			<point x="929" y="1434" type="line"/>
			<point x="460" y="1242" type="line"/>
			<point x="496" y="1105" type="line"/>
			<point x="903" y="1230" type="line"/>
			<point x="838" y="1317" type="line"/>
		</contour>
	</outline>
</glyph>
<glyph name="colon" format="2">
	<unicode hex="003A"/>
	<advance width="598"/>
	<outline>
		<contour>
			<point x="218" y="261" type="curve" smooth="yes"/>
			<point x="97" y="261"/>
			<point x="33" y="178"/>
			<point x="33" y="81" type="curve" smooth="yes"/>
			<point x="33" y="17"/>
			<point x="72" y="-18"/>
			<point x="144" y="-18" type="curve" smooth="yes"/>
			<point x="265" y="-18"/>
			<point x="329" y="65"/>
			<point x="329" y="161" type="curve" smooth="yes"/>
			<point x="329" y="226"/>
			<point x="290" y="261"/>
		</contour>
		<contour>
			<point x="451" y="1044" type="curve" smooth="yes"/>
			<point x="330" y="1044"/>
			<point x="266" y="961"/>
			<point x="266" y="864" type="curve" smooth="yes"/>
			<point x="266" y="800"/>
			<point x="305" y="765"/>
			<point x="377" y="765" type="curve" smooth="yes"/>
			<point x="498" y="765"/>
			<point x="562" y="848"/>
			<point x="562" y="944" type="curve" smooth="yes"/>
			<point x="562" y="1009"/>
			<point x="523" y="1044"/>
		</contour>
	</outline>
</glyph>
<glyph name="semicolon" format="2">
	<unicode hex="003B"/>
	<advance width="614"/>
	<outline>
		<contour>
			<point x="-138" y="-267" type="curve"/>
			<point x="-86" y="-352" type="line"/>
			<point x="254" y="-137"/>
			<point x="330" y="-9"/>
			<point x="330" y="138" type="curve" smooth="yes"/>
			<point x="330" y="218"/>
			<point x="281" y="255"/>
			<point x="205" y="255" type="curve" smooth="yes"/>
			<point x="102" y="255"/>
			<point x="36" y="179"/>
			<point x="36" y="115" type="curve" smooth="yes"/>
			<point x="36" y="80"/>
			<point x="110" y="52"/>
			<point x="110" y="-17" type="curve" smooth="yes"/>
			<point x="110" y="-81"/>
			<point x="58" y="-139"/>
		</contour>
		<contour>
			<point x="467" y="1044" type="curve" smooth="yes"/>
			<point x="346" y="1044"/>
			<point x="282" y="961"/>
			<point x="282" y="864" type="curve" smooth="yes"/>
			<point x="282" y="800"/>
			<point x="321" y="765"/>
			<point x="393" y="765" type="curve" smooth="yes"/>
			<point x="514" y="765"/>
			<point x="578" y="848"/>
			<point x="578" y="944" type="curve" smooth="yes"/>
			<point x="578" y="1009"/>
			<point x="539" y="1044"/>
		</contour>
	</outline>
</glyph>
<glyph name="less" format="2">
	<unicode hex="003C"/>
	<advance width="1200"/>
	<outline>
		<contour>
			<point x="230" y="472" type="line"/>
			<point x="1103" y="808" type="line"/>
			<point x="1148" y="957" type="line"/>
			<point x="178" y="575" type="line"/>
			<point x="141" y="454" type="line"/>
			<point x="879" y="73" type="line"/>
			<point x="916" y="195" type="line"/>
			<point x="249" y="535" type="line"/>
		</contour>
	</outline>
</glyph>
<glyph name="greater" format="2">
	<unicode hex="003E"/>
	<advance width="1200"/>
	<outline>
		<contour>
			<point x="968" y="557" type="line"/>
			<point x="95" y="222" type="line"/>
			<point x="50" y="73" type="line"/>
			<point x="1020" y="454" type="line"/>
			<point x="1057" y="575" type="line"/>
			<point x="320" y="957" type="line"/>
			<point x="283" y="834" type="line"/>
			<point x="949" y="495" type="line"/>
		</contour>
	</outline>
</glyph>
<glyph name="question" format="2">
	<unicode hex="003F"/>
	<advance width="1139"/>
	<outline>
		<contour>
			<point x="461" y="261" type="curve" smooth="yes"/>
			<point x="340" y="261"/>
			<point x="276" y="178"/>
			<point x="276" y="81" type="curve" smooth="yes"/>
			<point x="276" y="17"/>
			<point x="315" y="-18"/>
			<point x="387" y="-18" type="curve" smooth="yes"/>
			<point x="508" y="-18"/>
			<point x="572" y="65"/>
			<point x="572" y="161" type="curve" smooth="yes"/>
			<point x="572" y="226"/>
			<point x="533" y="261"/>
		</contour>
		<contour>
			<point x="656" y="1434" type="curve" smooth="yes"/>
			<point x="379" y="1434"/>
			<point x="294" y="1358"/>
			<point x="294" y="1272" type="curve" smooth="yes"/>
			<point x="294" y="1220"/>
			<point x="334" y="1185"/>
			<point x="393" y="1185" type="curve" smooth="yes"/>
			<point x="432" y="1185"/>
			<point x="487" y="1321"/>
			<point x="685" y="1321" type="curve" smooth="yes"/>
			<point x="881" y="1321"/>
			<point x="978" y="1195"/>
			<point x="978" y="1046" type="curve" smooth="yes"/>
			<point x="978" y="859"/>
			<point x="883" y="777"/>
			<point x="517" y="803" type="curve"/>
			<point x="437" y="435" type="line"/>
			<point x="552" y="435" type="line"/>
			<point x="663" y="727" type="line"/>
			<point x="573" y="640" type="line"/>
			<point x="997" y="619"/>
			<point x="1149" y="766"/>
			<point x="1149" y="1023" type="curve" smooth="yes"/>
			<point x="1149" y="1275"/>
			<point x="923" y="1434"/>
		</contour>
	</outline>
</glyph>
<glyph name="at" format="2">
	<unicode hex="0040"/>
	<advance width="1915"/>
	<outline>
		<contour>
			<point x="1429" y="313" type="curve" smooth="yes"/>
			<point x="1358" y="313"/>
			<point x="1324" y="339"/>
			<point x="1324" y="408" type="curve" smooth="yes"/>
			<point x="1324" y="437"/>
			<point x="1329" y="470"/>
			<point x="1342" y="511" type="curve" smooth="yes"/>
			<point x="1494" y="1004" type="line"/>
			<point x="1326" y="1004" type="line"/>
			<point x="1250" y="860" type="line"/>
			<point x="1208" y="738" type="line" smooth="yes"/>
			<point x="1132" y="523"/>
			<point x="989" y="347"/>
			<point x="876" y="347" type="curve" smooth="yes"/>
			<point x="803" y="347"/>
			<point x="773" y="380"/>
			<point x="773" y="452" type="curve" smooth="yes"/>
			<point x="773" y="628"/>
			<point x="943" y="903"/>
			<point x="1112" y="903" type="curve" smooth="yes"/>
			<point x="1184" y="903"/>
			<point x="1230" y="870"/>
			<point x="1268" y="796" type="curve"/>
			<point x="1284" y="828" type="line"/>
			<point x="1239" y="953"/>
			<point x="1168" y="1023"/>
			<point x="1054" y="1023" type="curve" smooth="yes"/>
			<point x="783" y="1023"/>
			<point x="552" y="689"/>
			<point x="552" y="430" type="curve" smooth="yes"/>
			<point x="552" y="298"/>
			<point x="629" y="204"/>
			<point x="781" y="204" type="curve" smooth="yes"/>
			<point x="920" y="204"/>
			<point x="1022" y="285"/>
			<point x="1178" y="548" type="curve"/>
			<point x="1195" y="548" type="line"/>
			<point x="1176" y="496" type="line" smooth="yes"/>
			<point x="1161" y="454"/>
			<point x="1153" y="414"/>
			<point x="1153" y="380" type="curve" smooth="yes"/>
			<point x="1153" y="264"/>
			<point x="1237" y="197"/>
			<point x="1394" y="197" type="curve" smooth="yes"/>
			<point x="1712" y="197"/>
			<point x="1896" y="482"/>
			<point x="1896" y="851" type="curve" smooth="yes"/>
			<point x="1896" y="1240"/>
			<point x="1624" y="1434"/>
			<point x="1198" y="1434" type="curve" smooth="yes"/>
			<point x="480" y="1434"/>
			<point x="121" y="955"/>
			<point x="121" y="402" type="curve" smooth="yes"/>
			<point x="121" y="-31"/>
			<point x="406" y="-242"/>
			<point x="888" y="-242" type="curve" smooth="yes"/>
			<point x="1154" y="-242"/>
			<point x="1364" y="-177"/>
			<point x="1573" y="-56" type="curve"/>
			<point x="1524" y="46" type="line"/>
			<point x="1324" y="-62"/>
			<point x="1122" y="-120"/>
			<point x="918" y="-120" type="curve" smooth="yes"/>
			<point x="486" y="-120"/>
			<point x="269" y="71"/>
			<point x="269" y="427" type="curve" smooth="yes"/>
			<point x="269" y="897"/>
			<point x="554" y="1317"/>
			<point x="1182" y="1317" type="curve" smooth="yes"/>
			<point x="1537" y="1317"/>
			<point x="1759" y="1167"/>
			<point x="1759" y="844" type="curve" smooth="yes"/>
			<point x="1759" y="547"/>
			<point x="1619" y="313"/>
		</contour>
	</outline>
</glyph>
<glyph name="A" format="2">
	<unicode hex="0041"/>
	<advance width="1570"/>
	<outline>
		<contour>
			<point x="416" y="474" type="line"/>
			<point x="1098" y="474" type="line"/>
			<point x="1146" y="620" type="line"/>
			<point x="463" y="620" type="line"/>
		</contour>
		<contour>
			<point x="1280" y="145" type="line"/>
			<point x="1175" y="1434" type="line"/>
			<point x="912" y="1434" type="line"/>
			<point x="79" y="145" type="line"/>
			<point x="-94" y="100" type="line"/>
			<point x="-125" y="0" type="line"/>
			<point x="399" y="0" type="line"/>
			<point x="429" y="100" type="line"/>
			<point x="266" y="145" type="line"/>
			<point x="1009" y="1336" type="line"/>
			<point x="981" y="1336" type="line"/>
			<point x="1066" y="145" type="line"/>
			<point x="876" y="100" type="line"/>
			<point x="845" y="0" type="line"/>
			<point x="1412" y="0" type="line"/>
			<point x="1443" y="100" type="line"/>
		</contour>
	</outline>
	<anchor name="UCtop" x="992" y="1414"/>
	<anchor name="bottom" x="612" y="0"/>
	<anchor name="right" x="1316" y="0"/>
</glyph>
<glyph name="B" format="2">
	<unicode hex="0042"/>
	<advance width="1436"/>
	<outline>
		<contour>
			<point x="645" y="1268" type="line"/>
			<point x="984" y="1268" type="line" smooth="yes"/>
			<point x="1134" y="1268"/>
			<point x="1200" y="1211"/>
			<point x="1200" y="1108" type="curve" smooth="yes"/>
			<point x="1200" y="937"/>
			<point x="1103" y="825"/>
			<point x="903" y="825" type="curve" smooth="yes"/>
			<point x="514" y="825" type="line"/>
			<point x="460" y="679" type="line"/>
			<point x="851" y="679" type="line" smooth="yes"/>
			<point x="1016" y="679"/>
			<point x="1078" y="605"/>
			<point x="1078" y="492" type="curve" smooth="yes"/>
			<point x="1078" y="266"/>
			<point x="952" y="146"/>
			<point x="705" y="146" type="curve" smooth="yes"/>
			<point x="303" y="146" type="line"/>
			<point x="260" y="0" type="line"/>
			<point x="732" y="0" type="line" smooth="yes"/>
			<point x="1095" y="0"/>
			<point x="1285" y="200"/>
			<point x="1285" y="472" type="curve" smooth="yes"/>
			<point x="1285" y="640"/>
			<point x="1193" y="751"/>
			<point x="983" y="764" type="curve"/>
			<point x="977" y="745" type="line"/>
			<point x="1242" y="755"/>
			<point x="1402" y="892"/>
			<point x="1402" y="1133" type="curve" smooth="yes"/>
			<point x="1402" y="1288"/>
			<point x="1309" y="1414"/>
			<point x="1040" y="1414" type="curve" smooth="yes"/>
			<point x="691" y="1414" type="line"/>
		</contour>
		<contour>
			<point x="526" y="1269" type="line"/>
			<point x="182" y="145" type="line"/>
			<point x="-10" y="100" type="line"/>
			<point x="-41" y="0" type="line"/>
			<point x="345" y="0" type="line"/>
			<point x="777" y="1414" type="line"/>
			<point x="376" y="1414" type="line"/>
			<point x="345" y="1314" type="line"/>
		</contour>
	</outline>
	<anchor name="UCtop" x="906" y="1414"/>
	<anchor name="bottom" x="613" y="0"/>
</glyph>
<glyph name="C" format="2">
	<unicode hex="0043"/>
	<advance width="1515"/>
	<outline>
		<contour>
			<point x="1208" y="206" type="line"/>
			<point x="1088" y="162"/>
			<point x="955" y="131"/>
			<point x="832" y="131" type="curve" smooth="yes"/>
			<point x="551" y="131"/>
			<point x="389" y="273"/>
			<point x="389" y="558" type="curve" smooth="yes"/>
			<point x="389" y="960"/>
			<point x="602" y="1278"/>
			<point x="1087" y="1278" type="curve" smooth="yes"/>
			<point x="1206" y="1278"/>
			<point x="1301" y="1262"/>
			<point x="1395" y="1204" type="curve"/>
			<point x="1376" y="1276" type="line"/>
			<point x="1350" y="960" type="line"/>
			<point x="1493" y="960" type="line"/>
			<point x="1653" y="1484" type="line"/>
			<point x="1542" y="1484" type="line"/>
			<point x="1418" y="1371" type="line"/>
			<point x="1474" y="1374" type="line"/>
			<point x="1380" y="1409"/>
			<point x="1266" y="1434"/>
			<point x="1129" y="1434" type="curve" smooth="yes"/>
			<point x="512" y="1434"/>
			<point x="172" y="1057"/>
			<point x="172" y="543" type="curve" smooth="yes"/>
			<point x="172" y="191"/>
			<point x="369" y="-20"/>
			<point x="785" y="-20" type="curve" smooth="yes"/>
			<point x="964" y="-20"/>
			<point x="1121" y="10"/>
			<point x="1237" y="57" type="curve"/>
			<point x="1391" y="434" type="line"/>
			<point x="1246" y="434" type="line"/>
			<point x="1000" y="90" type="line"/>
		</contour>
	</outline>
	<anchor name="UCtop" x="1078" y="1414"/>
	<anchor name="bottom" x="725" y="0"/>
	<anchor name="right" x="1216" y="0"/>
</glyph>
<glyph name="D" format="2">
	<unicode hex="0044"/>
	<advance width="1621"/>
	<outline>
		<contour>
			<point x="628" y="146" type="curve" smooth="yes"/>
			<point x="274" y="146" type="line"/>
			<point x="226" y="0" type="line"/>
			<point x="646" y="0" type="line" smooth="yes"/>
			<point x="1236" y="0"/>
			<point x="1569" y="363"/>
			<point x="1569" y="904" type="curve" smooth="yes"/>
			<point x="1569" y="1234"/>
			<point x="1393" y="1414"/>
			<point x="915" y="1414" type="curve" smooth="yes"/>
			<point x="658" y="1414" type="line"/>
			<point x="610" y="1268" type="line"/>
			<point x="916" y="1268" type="line" smooth="yes"/>
			<point x="1242" y="1268"/>
			<point x="1353" y="1131"/>
			<point x="1353" y="905" type="curve" smooth="yes"/>
			<point x="1353" y="438"/>
			<point x="1110" y="146"/>
		</contour>
		<contour>
			<point x="526" y="1269" type="line"/>
			<point x="182" y="145" type="line"/>
			<point x="-10" y="100" type="line"/>
			<point x="-41" y="0" type="line"/>
			<point x="345" y="0" type="line"/>
			<point x="777" y="1414" type="line"/>
			<point x="376" y="1414" type="line"/>
			<point x="345" y="1314" type="line"/>
		</contour>
	</outline>
	<anchor name="UCtop" x="1060" y="1414"/>
	<anchor name="bottom" x="737" y="0"/>
</glyph>
<glyph name="E" format="2">
	<unicode hex="0045"/>
	<advance width="1443"/>
	<outline>
		<contour>
			<point x="526" y="1269" type="line"/>
			<point x="182" y="145" type="line"/>
			<point x="-10" y="100" type="line"/>
			<point x="-41" y="0" type="line"/>
			<point x="345" y="0" type="line"/>
			<point x="777" y="1414" type="line"/>
			<point x="376" y="1414" type="line"/>
			<point x="345" y="1314" type="line"/>
		</contour>
		<contour>
			<point x="1331" y="1342" type="line"/>
			<point x="1311" y="1042" type="line"/>
			<point x="1444" y="1042" type="line"/>
			<point x="1579" y="1484" type="line"/>
			<point x="1474" y="1484" type="line"/>
			<point x="1372" y="1414" type="line"/>
			<point x="658" y="1414" type="line"/>
			<point x="610" y="1268" type="line"/>
			<point x="1375" y="1268" type="line"/>
		</contour>
		<contour>
			<point x="961" y="-72" type="line"/>
			<point x="1082" y="-72" type="line"/>
			<point x="1346" y="422" type="line"/>
			<point x="1211" y="422" type="line"/>
			<point x="901" y="72" type="line"/>
			<point x="1017" y="146" type="line"/>
			<point x="274" y="146" type="line"/>
			<point x="226" y="0" type="line"/>
			<point x="923" y="0" type="line"/>
		</contour>
		<contour>
			<point x="983" y="480" type="line"/>
			<point x="1061" y="735" type="line"/>
			<point x="1139" y="990" type="line"/>
			<point x="1015" y="990" type="line"/>
			<point x="944" y="810" type="line"/>
			<point x="474" y="810" type="line"/>
			<point x="428" y="664" type="line"/>
			<point x="899" y="664" type="line"/>
			<point x="859" y="480" type="line"/>
		</contour>
	</outline>
	<anchor name="UCtop" x="975" y="1414"/>
	<anchor name="right" x="1092" y="0"/>
	<anchor name="bottom" x="592" y="0"/>
</glyph>
<glyph name="F" format="2">
	<unicode hex="0046"/>
	<advance width="1341"/>
	<outline>
		<contour>
			<point x="1107" y="914" type="line"/>
			<point x="983" y="914" type="line"/>
			<point x="912" y="734" type="line"/>
			<point x="442" y="734" type="line"/>
			<point x="396" y="588" type="line"/>
			<point x="867" y="588" type="line"/>
			<point x="827" y="404" type="line"/>
			<point x="951" y="404" type="line"/>
			<point x="1029" y="659" type="line"/>
		</contour>
		<contour>
			<point x="1414" y="1016" type="line"/>
			<point x="1549" y="1484" type="line"/>
			<point x="1444" y="1484" type="line"/>
			<point x="1342" y="1414" type="line"/>
			<point x="658" y="1414" type="line"/>
			<point x="610" y="1268" type="line"/>
			<point x="1345" y="1268" type="line"/>
			<point x="1301" y="1334" type="line"/>
			<point x="1281" y="1016" type="line"/>
		</contour>
		<contour>
			<point x="389" y="145" type="line"/>
			<point x="777" y="1414" type="line"/>
			<point x="376" y="1414" type="line"/>
			<point x="345" y="1314" type="line"/>
			<point x="526" y="1269" type="line"/>
			<point x="182" y="145" type="line"/>
			<point x="-10" y="100" type="line"/>
			<point x="-41" y="0" type="line"/>
			<point x="539" y="0" type="line"/>
			<point x="569" y="100" type="line"/>
		</contour>
	</outline>
	<anchor name="UCtop" x="944" y="1414"/>
	<anchor name="bottom" x="241" y="0"/>
</glyph>
<glyph name="G" format="2">
	<unicode hex="0047"/>
	<advance width="1648"/>
	<outline>
		<contour>
			<point x="833" y="131" type="curve" smooth="yes"/>
			<point x="552" y="131"/>
			<point x="390" y="273"/>
			<point x="390" y="578" type="curve" smooth="yes"/>
			<point x="390" y="969"/>
			<point x="592" y="1278"/>
			<point x="1074" y="1278" type="curve" smooth="yes"/>
			<point x="1201" y="1278"/>
			<point x="1304" y="1265"/>
			<point x="1402" y="1204" type="curve"/>
			<point x="1383" y="1276" type="line"/>
			<point x="1357" y="960" type="line"/>
			<point x="1500" y="960" type="line"/>
			<point x="1660" y="1484" type="line"/>
			<point x="1549" y="1484" type="line"/>
			<point x="1425" y="1371" type="line"/>
			<point x="1481" y="1374" type="line"/>
			<point x="1385" y="1410"/>
			<point x="1268" y="1434"/>
			<point x="1128" y="1434" type="curve" smooth="yes"/>
			<point x="498" y="1434"/>
			<point x="173" y="1057"/>
			<point x="173" y="543" type="curve" smooth="yes"/>
			<point x="173" y="198"/>
			<point x="340" y="-20"/>
			<point x="815" y="-20" type="curve" smooth="yes"/>
			<point x="1020" y="-20"/>
			<point x="1240" y="33"/>
			<point x="1423" y="118" type="curve"/>
			<point x="1453" y="215" type="line"/>
			<point x="1314" y="215" type="line"/>
			<point x="1411" y="532" type="line"/>
			<point x="1573" y="577" type="line"/>
			<point x="1604" y="677" type="line"/>
			<point x="1024" y="677" type="line"/>
			<point x="994" y="577" type="line"/>
			<point x="1204" y="532" type="line"/>
			<point x="1077" y="114" type="line"/>
			<point x="1168" y="215" type="line"/>
			<point x="1046" y="151"/>
			<point x="937" y="131"/>
		</contour>
	</outline>
	<anchor name="UCtop" x="1083" y="1414"/>
	<anchor name="bottom" x="740" y="0"/>
</glyph>
<glyph name="H" format="2">
	<unicode hex="0048"/>
	<advance width="1723"/>
	<outline>
		<contour>
			<point x="424" y="647" type="line"/>
			<point x="1380" y="647" type="line"/>
			<point x="1423" y="793" type="line"/>
			<point x="468" y="793" type="line"/>
		</contour>
		<contour>
			<point x="526" y="1269" type="line"/>
			<point x="182" y="145" type="line"/>
			<point x="-10" y="100" type="line"/>
			<point x="-41" y="0" type="line"/>
			<point x="539" y="0" type="line"/>
			<point x="569" y="100" type="line"/>
			<point x="389" y="145" type="line"/>
			<point x="733" y="1269" type="line"/>
			<point x="925" y="1314" type="line"/>
			<point x="955" y="1414" type="line"/>
			<point x="376" y="1414" type="line"/>
			<point x="345" y="1314" type="line"/>
		</contour>
		<contour>
			<point x="1450" y="1269" type="line"/>
			<point x="1106" y="145" type="line"/>
			<point x="914" y="100" type="line"/>
			<point x="884" y="0" type="line"/>
			<point x="1463" y="0" type="line"/>
			<point x="1494" y="100" type="line"/>
			<point x="1313" y="145" type="line"/>
			<point x="1657" y="1269" type="line"/>
			<point x="1849" y="1314" type="line"/>
			<point x="1879" y="1414" type="line"/>
			<point x="1300" y="1414" type="line"/>
			<point x="1270" y="1314" type="line"/>
		</contour>
	</outline>
	<anchor name="UCtop" x="1075" y="1414"/>
	<anchor name="bottom" x="742" y="0"/>
</glyph>
<glyph name="I" format="2">
	<unicode hex="0049"/>
	<advance width="799"/>
	<outline>
		<contour>
			<point x="526" y="1269" type="line"/>
			<point x="182" y="145" type="line"/>
			<point x="-10" y="100" type="line"/>
			<point x="-41" y="0" type="line"/>
			<point x="539" y="0" type="line"/>
			<point x="569" y="100" type="line"/>
			<point x="389" y="145" type="line"/>
			<point x="733" y="1269" type="line"/>
			<point x="925" y="1314" type="line"/>
			<point x="955" y="1414" type="line"/>
			<point x="376" y="1414" type="line"/>
			<point x="345" y="1314" type="line"/>
		</contour>
	</outline>
	<anchor name="UCtop" x="643" y="1414"/>
	<anchor name="right" x="390" y="0"/>
	<anchor name="bottom" x="270" y="0"/>
</glyph>
<glyph name="J" format="2">
	<unicode hex="004A"/>
	<advance width="1056"/>
	<outline>
		<contour>
			<point x="732" y="320" type="curve" smooth="yes"/>
			<point x="1023" y="1269" type="line"/>
			<point x="1215" y="1314" type="line"/>
			<point x="1245" y="1414" type="line"/>
			<point x="666" y="1414" type="line"/>
			<point x="635" y="1314" type="line"/>
			<point x="816" y="1269" type="line"/>
			<point x="544" y="381" type="line" smooth="yes"/>
			<point x="488" y="199"/>
			<point x="410" y="146"/>
			<point x="266" y="146" type="curve" smooth="yes"/>
			<point x="93" y="146"/>
			<point x="74" y="277"/>
			<point x="37" y="277" type="curve" smooth="yes"/>
			<point x="-22" y="277"/>
			<point x="-67" y="233"/>
			<point x="-67" y="167" type="curve" smooth="yes"/>
			<point x="-67" y="57"/>
			<point x="12" y="-16"/>
			<point x="253" y="-16" type="curve" smooth="yes"/>
			<point x="500" y="-16"/>
			<point x="661" y="87"/>
		</contour>
	</outline>
	<anchor name="UCtop" x="925" y="1414"/>
	<anchor name="bottom" x="302" y="0"/>
</glyph>
<glyph name="K" format="2">
	<unicode hex="004B"/>
	<advance width="1594"/>
	<outline>
		<contour>
			<point x="1286" y="137" type="line"/>
			<point x="858" y="818" type="line"/>
			<point x="845" y="701" type="line"/>
			<point x="1554" y="1269" type="line"/>
			<point x="1728" y="1314" type="line"/>
			<point x="1758" y="1414" type="line"/>
			<point x="1244" y="1414" type="line"/>
			<point x="1213" y="1314" type="line"/>
			<point x="1353" y="1275" type="line"/>
			<point x="766" y="804" type="line"/>
			<point x="526" y="804" type="line"/>
			<point x="482" y="658" type="line"/>
			<point x="721" y="658" type="line"/>
			<point x="1062" y="106" type="line"/>
			<point x="1050" y="66" type="line"/>
			<point x="1030" y="0" type="line"/>
			<point x="1409" y="0" type="line"/>
			<point x="1441" y="106" type="line"/>
		</contour>
		<contour>
			<point x="526" y="1269" type="line"/>
			<point x="182" y="145" type="line"/>
			<point x="-10" y="100" type="line"/>
			<point x="-41" y="0" type="line"/>
			<point x="539" y="0" type="line"/>
			<point x="569" y="100" type="line"/>
			<point x="389" y="145" type="line"/>
			<point x="733" y="1269" type="line"/>
			<point x="925" y="1314" type="line"/>
			<point x="955" y="1414" type="line"/>
			<point x="376" y="1414" type="line"/>
			<point x="345" y="1314" type="line"/>
		</contour>
	</outline>
	<anchor name="UCtop" x="1064" y="1414"/>
	<anchor name="bottom" x="751" y="0"/>
</glyph>
<glyph name="L" format="2">
	<unicode hex="004C"/>
	<advance width="1294"/>
	<outline>
		<contour>
			<point x="733" y="1269" type="line"/>
			<point x="925" y="1314" type="line"/>
			<point x="955" y="1414" type="line"/>
			<point x="376" y="1414" type="line"/>
			<point x="345" y="1314" type="line"/>
			<point x="526" y="1269" type="line"/>
			<point x="182" y="145" type="line"/>
			<point x="-10" y="100" type="line"/>
			<point x="-41" y="0" type="line"/>
			<point x="345" y="0" type="line"/>
		</contour>
		<contour>
			<point x="818" y="70" type="line"/>
			<point x="935" y="146" type="line"/>
			<point x="192" y="146" type="line"/>
			<point x="144" y="0" type="line"/>
			<point x="841" y="0" type="line"/>
			<point x="879" y="-72" type="line"/>
			<point x="1000" y="-72" type="line"/>
			<point x="1220" y="462" type="line"/>
			<point x="1085" y="462" type="line"/>
		</contour>
	</outline>
	<anchor name="UCtop" x="666" y="1414"/>
	<anchor name="right" x="966" y="1414"/>
	<anchor name="bottom" x="513" y="0"/>
	<anchor name="mid" x="1126" y="772"/>
</glyph>
<glyph name="M" format="2">
  <advance width="2095.0"/>
  <unicode hex="004D"/>
  <guideline x="991.0" y="56" angle="358.02970916925466" identifier="VyvZWcL2IS"/>
  <anchor x="1273.0" y="1414.0" name="UCtop"/>
  <anchor x="880.0" y="0" name="bottom"/>
  <outline>
    <contour>
      <point x="731.0" y="1304.0" type="line"/>
      <point x="700.0" y="1298.0" type="line"/>
      <point x="735.0" y="0.0" type="line"/>
      <point x="968.0" y="0.0" type="line"/>
      <point x="1868.0" y="1383.0" type="line"/>
      <point x="1877.0" y="1414.0" type="line"/>
      <point x="1731.0" y="1414.0" type="line"/>
      <point x="860.0" y="56.0" type="line"/>
      <point x="929.0" y="56.0" type="line"/>
      <point x="893.0" y="1414.0" type="line"/>
      <point x="417.0" y="1414.0" type="line"/>
      <point x="386.0" y="1314.0" type="line"/>
      <point x="560.0" y="1254.0" type="line"/>
      <point x="143.0" y="145.0" type="line"/>
      <point x="-31.0" y="100.0" type="line"/>
      <point x="-61.0" y="0.0" type="line"/>
      <point x="423.0" y="0.0" type="line"/>
      <point x="453.0" y="100.0" type="line"/>
      <point x="290.0" y="145.0" type="line"/>
    </contour>
    <contour>
      <point x="1813.0" y="1414.0" type="line"/>
      <point x="1509.0" y="145.0" type="line"/>
      <point x="1318.0" y="100.0" type="line"/>
      <point x="1288.0" y="0.0" type="line"/>
      <point x="1847.0" y="0.0" type="line"/>
      <point x="1878.0" y="100.0" type="line"/>
      <point x="1715.0" y="145.0" type="line"/>
      <point x="1983.0" y="1259.0" type="line"/>
      <point x="2185.0" y="1314.0" type="line"/>
      <point x="2215.0" y="1414.0" type="line"/>
    </contour>
  </outline>
</glyph>
<glyph name="N" format="2">
	<unicode hex="004E"/>
	<advance width="1663"/>
	<outline>
		<contour>
			<point x="1160" y="88" type="line"/>
			<point x="829" y="1414" type="line"/>
			<point x="386" y="1414" type="line"/>
			<point x="356" y="1314" type="line"/>
			<point x="523" y="1269" type="line"/>
			<point x="177" y="145" type="line"/>
			<point x="-15" y="100" type="line"/>
			<point x="-44" y="0" type="line"/>
			<point x="482" y="0" type="line"/>
			<point x="511" y="100" type="line"/>
			<point x="329" y="145" type="line"/>
			<point x="677" y="1278" type="line"/>
			<point x="653" y="1298" type="line"/>
			<point x="977" y="0" type="line"/>
			<point x="1234" y="0" type="line"/>
			<point x="1624" y="1269" type="line"/>
			<point x="1816" y="1314" type="line"/>
			<point x="1845" y="1414" type="line"/>
			<point x="1319" y="1414" type="line"/>
			<point x="1290" y="1314" type="line"/>
			<point x="1472" y="1269" type="line"/>
			<point x="1124" y="136" type="line"/>
		</contour>
	</outline>
	<anchor name="UCtop" x="1086" y="1414"/>
	<anchor name="bottom" x="723" y="0"/>
</glyph>
<glyph name="O" format="2">
	<unicode hex="004F"/>
	<advance width="1639"/>
	<outline>
		<contour>
			<point x="373" y="517" type="curve" smooth="yes"/>
			<point x="373" y="918"/>
			<point x="612" y="1277"/>
			<point x="1004" y="1277" type="curve" smooth="yes"/>
			<point x="1265" y="1277"/>
			<point x="1383" y="1129"/>
			<point x="1383" y="897" type="curve" smooth="yes"/>
			<point x="1383" y="496"/>
			<point x="1144" y="137"/>
			<point x="752" y="137" type="curve" smooth="yes"/>
			<point x="491" y="137"/>
			<point x="373" y="285"/>
		</contour>
		<contour>
			<point x="1596" y="900" type="curve" smooth="yes"/>
			<point x="1596" y="1223"/>
			<point x="1392" y="1434"/>
			<point x="1011" y="1434" type="curve" smooth="yes"/>
			<point x="527" y="1434"/>
			<point x="160" y="998"/>
			<point x="160" y="514" type="curve" smooth="yes"/>
			<point x="160" y="191"/>
			<point x="364" y="-20"/>
			<point x="745" y="-20" type="curve" smooth="yes"/>
			<point x="1229" y="-20"/>
			<point x="1596" y="416"/>
		</contour>
	</outline>
	<anchor name="UCtop" x="1085" y="1414"/>
	<anchor name="bottom" x="645" y="0"/>
	<anchor name="right" x="821" y="0"/>
	<anchor name="horn" x="1472" y="1414"/>
</glyph>
<glyph name="P" format="2">
	<unicode hex="0050"/>
	<advance width="1349"/>
	<outline>
		<contour>
			<point x="834" y="714" type="curve" smooth="yes"/>
			<point x="410" y="714" type="line"/>
			<point x="361" y="568" type="line"/>
			<point x="800" y="568" type="line" smooth="yes"/>
			<point x="1216" y="568"/>
			<point x="1415" y="780"/>
			<point x="1415" y="1091" type="curve" smooth="yes"/>
			<point x="1415" y="1299"/>
			<point x="1282" y="1414"/>
			<point x="974" y="1414" type="curve" smooth="yes"/>
			<point x="621" y="1414" type="line"/>
			<point x="573" y="1268" type="line"/>
			<point x="908" y="1268" type="line" smooth="yes"/>
			<point x="1132" y="1268"/>
			<point x="1207" y="1197"/>
			<point x="1207" y="1078" type="curve" smooth="yes"/>
			<point x="1207" y="856"/>
			<point x="1086" y="714"/>
		</contour>
		<contour>
			<point x="389" y="145" type="line"/>
			<point x="777" y="1414" type="line"/>
			<point x="376" y="1414" type="line"/>
			<point x="345" y="1314" type="line"/>
			<point x="526" y="1269" type="line"/>
			<point x="182" y="145" type="line"/>
			<point x="-10" y="100" type="line"/>
			<point x="-41" y="0" type="line"/>
			<point x="539" y="0" type="line"/>
			<point x="569" y="100" type="line"/>
		</contour>
	</outline>
	<anchor name="UCtop" x="943" y="1414"/>
	<anchor name="bottom" x="241" y="0"/>
</glyph>
<glyph name="Q" format="2">
	<unicode hex="0051"/>
	<advance width="1640"/>
	<outline>
		<contour>
			<point x="647" y="-256" type="line" smooth="yes"/>
			<point x="781" y="-405"/>
			<point x="869" y="-465"/>
			<point x="1018" y="-465" type="curve" smooth="yes"/>
			<point x="1102" y="-465"/>
			<point x="1156" y="-458"/>
			<point x="1227" y="-445" type="curve"/>
			<point x="1259" y="-320" type="line"/>
			<point x="1045" y="-334"/>
			<point x="998" y="-327"/>
			<point x="842" y="-181" type="curve" smooth="yes"/>
			<point x="567" y="75" type="line"/>
			<point x="574" y="37" type="line"/>
			<point x="1181" y="-112"/>
			<point x="1596" y="377"/>
			<point x="1596" y="900" type="curve" smooth="yes"/>
			<point x="1596" y="1223"/>
			<point x="1392" y="1434"/>
			<point x="1011" y="1434" type="curve" smooth="yes"/>
			<point x="527" y="1434"/>
			<point x="160" y="998"/>
			<point x="160" y="514" type="curve" smooth="yes"/>
			<point x="160" y="360"/>
			<point x="206" y="237"/>
			<point x="292" y="141" type="curve" smooth="yes"/>
		</contour>
		<contour>
			<point x="373" y="517" type="curve" smooth="yes"/>
			<point x="373" y="918"/>
			<point x="612" y="1277"/>
			<point x="1004" y="1277" type="curve" smooth="yes"/>
			<point x="1265" y="1277"/>
			<point x="1383" y="1129"/>
			<point x="1383" y="897" type="curve" smooth="yes"/>
			<point x="1383" y="496"/>
			<point x="1144" y="137"/>
			<point x="752" y="137" type="curve" smooth="yes"/>
			<point x="491" y="137"/>
			<point x="373" y="285"/>
		</contour>
	</outline>
	<anchor name="bottom" x="389" y="-134"/>
	<anchor name="UCtop" x="1085" y="1414"/>
</glyph>
<glyph name="R" format="2">
	<unicode hex="0052"/>
	<advance width="1475"/>
	<outline>
		<contour>
			<point x="873" y="780" type="curve" smooth="yes"/>
			<point x="514" y="780" type="line"/>
			<point x="470" y="634" type="line"/>
			<point x="814" y="634" type="line" smooth="yes"/>
			<point x="937" y="634"/>
			<point x="957" y="617"/>
			<point x="975" y="424" type="curve" smooth="yes"/>
			<point x="995" y="210" type="line" smooth="yes"/>
			<point x="1013" y="14"/>
			<point x="1065" y="-11"/>
			<point x="1310" y="0" type="curve"/>
			<point x="1340" y="110" type="line"/>
			<point x="1249" y="110"/>
			<point x="1219" y="122"/>
			<point x="1203" y="259" type="curve" smooth="yes"/>
			<point x="1182" y="441" type="line" smooth="yes"/>
			<point x="1161" y="623"/>
			<point x="1125" y="688"/>
			<point x="981" y="704" type="curve"/>
			<point x="981" y="696" type="line"/>
			<point x="1275" y="716"/>
			<point x="1431" y="887"/>
			<point x="1431" y="1127" type="curve" smooth="yes"/>
			<point x="1431" y="1296"/>
			<point x="1326" y="1414"/>
			<point x="1043" y="1414" type="curve" smooth="yes"/>
			<point x="707" y="1414" type="line"/>
			<point x="662" y="1268" type="line"/>
			<point x="993" y="1268" type="line" smooth="yes"/>
			<point x="1149" y="1268"/>
			<point x="1215" y="1207"/>
			<point x="1215" y="1098" type="curve" smooth="yes"/>
			<point x="1215" y="920"/>
			<point x="1133" y="780"/>
		</contour>
		<contour>
			<point x="389" y="145" type="line"/>
			<point x="777" y="1414" type="line"/>
			<point x="376" y="1414" type="line"/>
			<point x="345" y="1314" type="line"/>
			<point x="526" y="1269" type="line"/>
			<point x="182" y="145" type="line"/>
			<point x="-10" y="100" type="line"/>
			<point x="-41" y="0" type="line"/>
			<point x="539" y="0" type="line"/>
			<point x="569" y="100" type="line"/>
		</contour>
	</outline>
	<anchor name="UCtop" x="941" y="1414"/>
	<anchor name="bottom" x="738" y="0"/>
</glyph>
<glyph name="S" format="2">
	<unicode hex="0053"/>
	<advance width="1269"/>
	<outline>
		<contour>
			<point x="1130" y="1225" type="curve"/>
			<point x="1095" y="1276" type="line"/>
			<point x="1093" y="983" type="line"/>
			<point x="1226" y="983" type="line"/>
			<point x="1359" y="1484" type="line"/>
			<point x="1248" y="1484" type="line"/>
			<point x="1136" y="1371" type="line"/>
			<point x="1253" y="1348" type="line"/>
			<point x="1152" y="1409"/>
			<point x="1031" y="1434"/>
			<point x="886" y="1434" type="curve" smooth="yes"/>
			<point x="490" y="1434"/>
			<point x="308" y="1256"/>
			<point x="308" y="997" type="curve" smooth="yes"/>
			<point x="308" y="789"/>
			<point x="449" y="726"/>
			<point x="608" y="675" type="curve" smooth="yes"/>
			<point x="767" y="624"/>
			<point x="917" y="581"/>
			<point x="917" y="419" type="curve" smooth="yes"/>
			<point x="917" y="243"/>
			<point x="777" y="124"/>
			<point x="490" y="124" type="curve" smooth="yes"/>
			<point x="389" y="124"/>
			<point x="312" y="134"/>
			<point x="248" y="149" type="curve"/>
			<point x="336" y="40" type="line"/>
			<point x="217" y="434" type="line"/>
			<point x="81" y="434" type="line"/>
			<point x="97" y="32" type="line"/>
			<point x="198" y="-1"/>
			<point x="302" y="-20"/>
			<point x="482" y="-20" type="curve" smooth="yes"/>
			<point x="894" y="-20"/>
			<point x="1113" y="172"/>
			<point x="1113" y="469" type="curve" smooth="yes"/>
			<point x="1113" y="702"/>
			<point x="942" y="772"/>
			<point x="777" y="828" type="curve" smooth="yes"/>
			<point x="612" y="884"/>
			<point x="500" y="917"/>
			<point x="500" y="1058" type="curve" smooth="yes"/>
			<point x="500" y="1199"/>
			<point x="593" y="1295"/>
			<point x="854" y="1295" type="curve" smooth="yes"/>
			<point x="977" y="1295"/>
			<point x="1077" y="1266"/>
		</contour>
	</outline>
	<anchor name="UCtop" x="836" y="1414"/>
	<anchor name="bottom" x="563" y="0"/>
</glyph>
<glyph name="T" format="2">
	<unicode hex="0054"/>
	<advance width="1474"/>
	<outline>
		<contour>
			<point x="1429" y="1258" type="line"/>
			<point x="1396" y="1296" type="line"/>
			<point x="1420" y="950" type="line"/>
			<point x="1553" y="950" type="line"/>
			<point x="1631" y="1504" type="line"/>
			<point x="1524" y="1504" type="line"/>
			<point x="1414" y="1391" type="line"/>
			<point x="1540" y="1414" type="line"/>
			<point x="455" y="1414" type="line"/>
			<point x="563" y="1391" type="line"/>
			<point x="527" y="1504" type="line"/>
			<point x="420" y="1504" type="line"/>
			<point x="197" y="950" type="line"/>
			<point x="338" y="950" type="line"/>
			<point x="564" y="1296" type="line"/>
			<point x="479" y="1258" type="line"/>
		</contour>
		<contour>
			<point x="885" y="1350" type="line"/>
			<point x="516" y="145" type="line"/>
			<point x="324" y="100" type="line"/>
			<point x="293" y="0" type="line"/>
			<point x="873" y="0" type="line"/>
			<point x="903" y="100" type="line"/>
			<point x="723" y="145" type="line"/>
			<point x="1092" y="1350" type="line"/>
		</contour>
	</outline>
	<anchor name="UCtop" x="988" y="1414"/>
	<anchor name="bottom" x="607" y="0"/>
</glyph>
<glyph name="U" format="2">
	<unicode hex="0055"/>
	<advance width="1636"/>
	<outline>
		<contour>
			<point x="457" y="522" type="curve" smooth="yes"/>
			<point x="686" y="1269" type="line"/>
			<point x="878" y="1314" type="line"/>
			<point x="908" y="1414" type="line"/>
			<point x="329" y="1414" type="line"/>
			<point x="298" y="1314" type="line"/>
			<point x="479" y="1269" type="line"/>
			<point x="273" y="596" type="line" smooth="yes"/>
			<point x="136" y="151"/>
			<point x="329" y="-20"/>
			<point x="717" y="-20" type="curve" smooth="yes"/>
			<point x="1065" y="-20"/>
			<point x="1255" y="130"/>
			<point x="1372" y="512" type="curve" smooth="yes"/>
			<point x="1603" y="1269" type="line"/>
			<point x="1795" y="1314" type="line"/>
			<point x="1824" y="1414" type="line"/>
			<point x="1298" y="1414" type="line"/>
			<point x="1269" y="1314" type="line"/>
			<point x="1451" y="1269" type="line"/>
			<point x="1216" y="502" type="line" smooth="yes"/>
			<point x="1140" y="253"/>
			<point x="1010" y="149"/>
			<point x="751" y="149" type="curve" smooth="yes"/>
			<point x="503" y="149"/>
			<point x="378" y="265"/>
		</contour>
	</outline>
	<anchor name="UCtop" x="1073" y="1414"/>
	<anchor name="right" x="857" y="0"/>
	<anchor name="bottom" x="670" y="0"/>
	<anchor name="horn" x="1660" y="1414"/>
</glyph>
<glyph name="V" format="2">
	<unicode hex="0056"/>
	<advance width="1538"/>
	<outline>
		<contour>
			<point x="401" y="1269" type="line"/>
			<point x="506" y="-20" type="line"/>
			<point x="769" y="-20" type="line"/>
			<point x="1572" y="1269" type="line"/>
			<point x="1745" y="1314" type="line"/>
			<point x="1776" y="1414" type="line"/>
			<point x="1252" y="1414" type="line"/>
			<point x="1222" y="1314" type="line"/>
			<point x="1385" y="1269" type="line"/>
			<point x="672" y="78" type="line"/>
			<point x="700" y="78" type="line"/>
			<point x="615" y="1269" type="line"/>
			<point x="805" y="1314" type="line"/>
			<point x="836" y="1414" type="line"/>
			<point x="269" y="1414" type="line"/>
			<point x="238" y="1314" type="line"/>
		</contour>
	</outline>
	<anchor name="UCtop" x="1013" y="1414"/>
	<anchor name="bottom" x="670" y="0"/>
</glyph>
<glyph name="W" format="2">
	<unicode hex="0057"/>
	<advance width="2099"/>
	<outline>
		<contour>
			<point x="1967" y="1269" type="line"/>
			<point x="1388" y="98" type="line"/>
			<point x="1449" y="98" type="line"/>
			<point x="1477" y="1414" type="line"/>
			<point x="1226" y="1414" type="line"/>
			<point x="453" y="98" type="line"/>
			<point x="505" y="98" type="line"/>
			<point x="645" y="1269" type="line"/>
			<point x="835" y="1314" type="line"/>
			<point x="865" y="1414" type="line"/>
			<point x="292" y="1414" type="line"/>
			<point x="262" y="1314" type="line"/>
			<point x="424" y="1269" type="line"/>
			<point x="281" y="0" type="line"/>
			<point x="563" y="0" type="line"/>
			<point x="1283" y="1211" type="line"/>
			<point x="1252" y="1211" type="line"/>
			<point x="1220" y="0" type="line"/>
			<point x="1489" y="0" type="line"/>
			<point x="2135" y="1269" type="line"/>
			<point x="2308" y="1314" type="line"/>
			<point x="2338" y="1414" type="line"/>
			<point x="1835" y="1414" type="line"/>
			<point x="1804" y="1314" type="line"/>
		</contour>
	</outline>
	<anchor name="UCtop" x="1326" y="1414"/>
	<anchor name="bottom" x="923" y="0"/>
</glyph>
<glyph name="X" format="2">
	<unicode hex="0058"/>
	<advance width="1603"/>
	<outline>
		<contour>
			<point x="836" y="642" type="line"/>
			<point x="938" y="708" type="line"/>
			<point x="1574" y="1269" type="line"/>
			<point x="1747" y="1314" type="line"/>
			<point x="1777" y="1414" type="line"/>
			<point x="1259" y="1414" type="line"/>
			<point x="1229" y="1314" type="line"/>
			<point x="1377" y="1269" type="line"/>
			<point x="884" y="825" type="line"/>
			<point x="782" y="758" type="line"/>
			<point x="90" y="145" type="line"/>
			<point x="-83" y="100" type="line"/>
			<point x="-113" y="0" type="line"/>
			<point x="405" y="0" type="line"/>
			<point x="435" y="100" type="line"/>
			<point x="287" y="145" type="line"/>
		</contour>
		<contour>
			<point x="1049" y="145" type="line"/>
			<point x="879" y="100" type="line"/>
			<point x="848" y="0" type="line"/>
			<point x="1415" y="0" type="line"/>
			<point x="1446" y="100" type="line"/>
			<point x="1282" y="145" type="line"/>
			<point x="965" y="782" type="line"/>
			<point x="939" y="833" type="line"/>
			<point x="721" y="1269" type="line"/>
			<point x="892" y="1314" type="line"/>
			<point x="922" y="1414" type="line"/>
			<point x="355" y="1414" type="line"/>
			<point x="325" y="1314" type="line"/>
			<point x="489" y="1269" type="line"/>
			<point x="772" y="702" type="line"/>
			<point x="795" y="656" type="line"/>
		</contour>
	</outline>
	<anchor name="UCtop" x="1058" y="1414"/>
	<anchor name="bottom" x="645" y="0"/>
</glyph>
<glyph name="Y" format="2">
	<unicode hex="0059"/>
	<advance width="1492"/>
	<outline>
		<contour>
			<point x="1335" y="1269" type="line"/>
			<point x="782" y="676" type="line"/>
			<point x="843" y="676" type="line"/>
			<point x="629" y="1269" type="line"/>
			<point x="799" y="1314" type="line"/>
			<point x="829" y="1414" type="line"/>
			<point x="281" y="1414" type="line"/>
			<point x="251" y="1314" type="line"/>
			<point x="415" y="1269" type="line"/>
			<point x="669" y="581" type="line"/>
			<point x="535" y="145" type="line"/>
			<point x="343" y="100" type="line"/>
			<point x="312" y="0" type="line"/>
			<point x="892" y="0" type="line"/>
			<point x="922" y="100" type="line"/>
			<point x="742" y="145" type="line"/>
			<point x="879" y="591" type="line"/>
			<point x="1531" y="1269" type="line"/>
			<point x="1698" y="1314" type="line"/>
			<point x="1729" y="1414" type="line"/>
			<point x="1207" y="1414" type="line"/>
			<point x="1177" y="1314" type="line"/>
		</contour>
	</outline>
	<anchor name="UCtop" x="996" y="1414"/>
	<anchor name="bottom" x="623" y="0"/>
</glyph>
<glyph name="Z" format="2">
	<unicode hex="005A"/>
	<advance width="1332"/>
	<outline>
		<contour>
			<point x="1454" y="1414" type="line"/>
			<point x="587" y="1414" type="line"/>
			<point x="535" y="1484" type="line"/>
			<point x="430" y="1484" type="line"/>
			<point x="283" y="1002" type="line"/>
			<point x="416" y="1002" type="line"/>
			<point x="554" y="1268" type="line"/>
			<point x="1232" y="1268" type="line"/>
			<point x="1211" y="1328" type="line"/>
			<point x="8" y="136" type="line"/>
			<point x="-33" y="0" type="line"/>
			<point x="848" y="0" type="line"/>
			<point x="866" y="-72" type="line"/>
			<point x="987" y="-72" type="line"/>
			<point x="1213" y="432" type="line"/>
			<point x="1086" y="432" type="line"/>
			<point x="884" y="146" type="line"/>
			<point x="186" y="146" type="line"/>
			<point x="208" y="85" type="line"/>
			<point x="1412" y="1278" type="line"/>
		</contour>
	</outline>
	<anchor name="UCtop" x="937" y="1414"/>
	<anchor name="bottom" x="484" y="0"/>
</glyph>
<glyph name="bracketleft" format="2">
	<unicode hex="005B"/>
	<advance width="748"/>
	<outline>
		<contour>
			<point x="-3" y="-221" type="line"/>
			<point x="461" y="-221" type="line"/>
			<point x="499" y="-99" type="line"/>
			<point x="213" y="-99" type="line"/>
			<point x="653" y="1342" type="line"/>
			<point x="939" y="1342" type="line"/>
			<point x="977" y="1464" type="line"/>
			<point x="512" y="1464" type="line"/>
		</contour>
	</outline>
</glyph>
<glyph name="backslash" format="2">
	<unicode hex="005C"/>
	<advance width="822"/>
	<outline>
		<contour>
			<point x="601" y="0" type="line"/>
			<point x="461" y="1414" type="line"/>
			<point x="335" y="1414" type="line"/>
			<point x="475" y="0" type="line"/>
		</contour>
	</outline>
</glyph>
<glyph name="bracketright" format="2">
	<unicode hex="005D"/>
	<advance width="748"/>
	<outline>
		<contour>
			<point x="815" y="1464" type="line"/>
			<point x="351" y="1464" type="line"/>
			<point x="313" y="1342" type="line"/>
			<point x="599" y="1342" type="line"/>
			<point x="159" y="-99" type="line"/>
			<point x="-127" y="-99" type="line"/>
			<point x="-165" y="-221" type="line"/>
			<point x="300" y="-221" type="line"/>
		</contour>
	</outline>
</glyph>
<glyph name="asciicircum" format="2">
	<unicode hex="005E"/>
	<advance width="1200"/>
	<outline>
		<contour>
			<point x="836" y="1321" type="line"/>
			<point x="941" y="647" type="line"/>
			<point x="1060" y="647" type="line"/>
			<point x="937" y="1414" type="line"/>
			<point x="819" y="1414" type="line"/>
			<point x="228" y="647" type="line"/>
			<point x="373" y="647" type="line"/>
			<point x="889" y="1321" type="line"/>
		</contour>
	</outline>
</glyph>
<glyph name="a" format="2">
	<unicode hex="0061"/>
	<advance width="1312"/>
	<outline>
		<contour>
			<point x="761" y="92" type="line" smooth="yes"/>
			<point x="731" y="14"/>
			<point x="760" y="-20"/>
			<point x="848" y="-20" type="curve" smooth="yes"/>
			<point x="924" y="-20"/>
			<point x="1063" y="15"/>
			<point x="1273" y="184" type="curve"/>
			<point x="1230" y="256" type="line"/>
			<point x="1078" y="157"/>
			<point x="941" y="130"/>
			<point x="848" y="141" type="curve"/>
			<point x="892" y="76" type="line"/>
			<point x="1228" y="1024" type="line"/>
			<point x="1104" y="1024" type="line"/>
			<point x="983" y="843" type="line"/>
			<point x="952" y="760" type="line" smooth="yes"/>
			<point x="836" y="451"/>
			<point x="541" y="118"/>
			<point x="383" y="118" type="curve" smooth="yes"/>
			<point x="291" y="118"/>
			<point x="232" y="166"/>
			<point x="232" y="263" type="curve" smooth="yes"/>
			<point x="232" y="506"/>
			<point x="469" y="926"/>
			<point x="763" y="926" type="curve" smooth="yes"/>
			<point x="854" y="926"/>
			<point x="933" y="886"/>
			<point x="990" y="771" type="curve"/>
			<point x="993" y="833" type="line"/>
			<point x="962" y="967"/>
			<point x="879" y="1044"/>
			<point x="741" y="1044" type="curve" smooth="yes"/>
			<point x="348" y="1044"/>
			<point x="43" y="550"/>
			<point x="43" y="227" type="curve" smooth="yes"/>
			<point x="43" y="67"/>
			<point x="153" y="-20"/>
			<point x="311" y="-20" type="curve" smooth="yes"/>
			<point x="455" y="-20"/>
			<point x="601" y="60"/>
			<point x="892" y="497" type="curve"/>
			<point x="917" y="497" type="line"/>
		</contour>
	</outline>
	<anchor name="top" x="845" y="1024"/>
	<anchor name="right" x="1146" y="0"/>
	<anchor name="bottom" x="481" y="0"/>
</glyph>
<glyph name="b" format="2">
	<unicode hex="0062"/>
	<advance width="1189"/>
	<outline>
		<contour>
			<point x="307" y="347" type="curve" smooth="yes"/>
			<point x="346" y="462" type="line" smooth="yes"/>
			<point x="426" y="698"/>
			<point x="634" y="891"/>
			<point x="789" y="891" type="curve" smooth="yes"/>
			<point x="884" y="891"/>
			<point x="936" y="832"/>
			<point x="936" y="734" type="curve" smooth="yes"/>
			<point x="936" y="423"/>
			<point x="720" y="95"/>
			<point x="483" y="95" type="curve" smooth="yes"/>
			<point x="365" y="95"/>
			<point x="291" y="158"/>
			<point x="291" y="260" type="curve" smooth="yes"/>
			<point x="291" y="286"/>
			<point x="296" y="315"/>
		</contour>
		<contour>
			<point x="398" y="1267" type="curve"/>
			<point x="135" y="380" type="line" smooth="yes"/>
			<point x="120" y="328"/>
			<point x="112" y="281"/>
			<point x="112" y="238" type="curve" smooth="yes"/>
			<point x="112" y="75"/>
			<point x="224" y="-20"/>
			<point x="450" y="-20" type="curve" smooth="yes"/>
			<point x="823" y="-20"/>
			<point x="1128" y="396"/>
			<point x="1128" y="756" type="curve" smooth="yes"/>
			<point x="1128" y="915"/>
			<point x="1033" y="1044"/>
			<point x="869" y="1044" type="curve" smooth="yes"/>
			<point x="729" y="1044"/>
			<point x="558" y="949"/>
			<point x="373" y="665" type="curve"/>
			<point x="350" y="665" type="line"/>
			<point x="648" y="1484" type="line"/>
			<point x="606" y="1484" type="line"/>
			<point x="216" y="1415" type="line"/>
			<point x="200" y="1346" type="line"/>
			<point x="258" y="1323"/>
			<point x="360" y="1282"/>
		</contour>
	</outline>
	<anchor name="UCtop" x="883" y="1414"/>
	<anchor name="bottom" x="373" y="0"/>
</glyph>
<glyph name="c" format="2">
  <advance width="1025"/>
  <unicode hex="0063"/>
  <guideline x="-134.0" y="339" angle="180.0" identifier="3EVRR4CABt"/>
  <anchor x="679.0" y="1024.0" name="top"/>
  <anchor x="764.0" y="0" name="right"/>
  <anchor x="426.0" y="0" name="bottom"/>
  <outline>
    <contour>
      <point x="672" y="930" type="curve" smooth="yes"/>
      <point x="700.0" y="930.0"/>
      <point x="737.0" y="900.0"/>
      <point x="782" y="838" type="curve" smooth="yes"/>
      <point x="827" y="776"/>
      <point x="861" y="747"/>
      <point x="886" y="747" type="curve" smooth="yes"/>
      <point x="945" y="747"/>
      <point x="1011" y="805"/>
      <point x="1011" y="874" type="curve" smooth="yes"/>
      <point x="1011" y="971"/>
      <point x="904" y="1044"/>
      <point x="717" y="1044" type="curve" smooth="yes"/>
      <point x="350" y="1044"/>
      <point x="82" y="727"/>
      <point x="82" y="327" type="curve" smooth="yes"/>
      <point x="82" y="92"/>
      <point x="204" y="-20"/>
      <point x="439" y="-20" type="curve" smooth="yes"/>
      <point x="667" y="-20"/>
      <point x="811" y="110"/>
      <point x="918" y="339" type="curve"/>
      <point x="815" y="339" type="line"/>
      <point x="724" y="184"/>
      <point x="613" y="128"/>
      <point x="483" y="128" type="curve" smooth="yes"/>
      <point x="341" y="128"/>
      <point x="268" y="185"/>
      <point x="268" y="371" type="curve" smooth="yes"/>
      <point x="268" y="692"/>
      <point x="438" y="930"/>
    </contour>
  </outline>
</glyph>
<glyph name="d" format="2">
	<unicode hex="0064"/>
	<advance width="1307"/>
	<outline>
		<contour>
			<point x="990" y="771" type="curve"/>
			<point x="993" y="833" type="line"/>
			<point x="962" y="967"/>
			<point x="879" y="1044"/>
			<point x="741" y="1044" type="curve" smooth="yes"/>
			<point x="348" y="1044"/>
			<point x="43" y="550"/>
			<point x="43" y="227" type="curve" smooth="yes"/>
			<point x="43" y="67"/>
			<point x="153" y="-20"/>
			<point x="311" y="-20" type="curve" smooth="yes"/>
			<point x="455" y="-20"/>
			<point x="601" y="60"/>
			<point x="892" y="497" type="curve"/>
			<point x="917" y="497" type="line"/>
			<point x="761" y="92" type="line" smooth="yes"/>
			<point x="731" y="14"/>
			<point x="760" y="-20"/>
			<point x="848" y="-20" type="curve" smooth="yes"/>
			<point x="924" y="-20"/>
			<point x="1063" y="15"/>
			<point x="1273" y="184" type="curve"/>
			<point x="1230" y="256" type="line"/>
			<point x="1078" y="157"/>
			<point x="941" y="130"/>
			<point x="848" y="141" type="curve"/>
			<point x="892" y="76" type="line"/>
			<point x="1362" y="1484" type="line"/>
			<point x="1320" y="1484" type="line"/>
			<point x="930" y="1415" type="line"/>
			<point x="914" y="1346" type="line"/>
			<point x="971" y="1323.2575757576"/>
			<point x="1076" y="1281.3636363636"/>
			<point x="1112" y="1267" type="curve"/>
			<point x="978" y="832" type="line" smooth="yes"/>
			<point x="866" y="468"/>
			<point x="546" y="118"/>
			<point x="383" y="118" type="curve" smooth="yes"/>
			<point x="291" y="118"/>
			<point x="232" y="166"/>
			<point x="232" y="263" type="curve" smooth="yes"/>
			<point x="232" y="506"/>
			<point x="469" y="926"/>
			<point x="763" y="926" type="curve" smooth="yes"/>
			<point x="854" y="926"/>
			<point x="933" y="886"/>
		</contour>
	</outline>
	<anchor name="center" x="1124" y="1207"/>
	<anchor name="UCtop" x="927" y="1414"/>
	<anchor name="right" x="1355" y="1464"/>
	<anchor name="bottom" x="496" y="0"/>
</glyph>
<glyph name="e" format="2">
	<unicode hex="0065"/>
	<advance width="1056"/>
	<outline>
		<contour>
			<point x="677" y="925" type="curve" smooth="yes"/>
			<point x="778" y="925"/>
			<point x="831" y="868"/>
			<point x="831" y="779" type="curve" smooth="yes"/>
			<point x="831" y="673"/>
			<point x="818" y="640"/>
			<point x="258" y="553" type="curve"/>
			<point x="251" y="454" type="line"/>
			<point x="462" y="476"/>
			<point x="716" y="520"/>
			<point x="951" y="588" type="curve"/>
			<point x="986" y="643"/>
			<point x="1009" y="721"/>
			<point x="1009" y="790" type="curve" smooth="yes"/>
			<point x="1009" y="932"/>
			<point x="930" y="1044"/>
			<point x="722" y="1044" type="curve" smooth="yes"/>
			<point x="369" y="1044"/>
			<point x="83" y="747"/>
			<point x="83" y="327" type="curve" smooth="yes"/>
			<point x="83" y="92"/>
			<point x="195" y="-20"/>
			<point x="430" y="-20" type="curve" smooth="yes"/>
			<point x="615" y="-20"/>
			<point x="787" y="69"/>
			<point x="919" y="339" type="curve"/>
			<point x="816" y="339" type="line"/>
			<point x="722" y="188"/>
			<point x="604" y="128"/>
			<point x="474" y="128" type="curve" smooth="yes"/>
			<point x="332" y="128"/>
			<point x="269" y="185"/>
			<point x="269" y="371" type="curve" smooth="yes"/>
			<point x="269" y="709"/>
			<point x="462" y="925"/>
		</contour>
	</outline>
	<anchor name="top" x="674" y="1024"/>
	<anchor name="right" x="792" y="0"/>
	<anchor name="bottom" x="439" y="0"/>
</glyph>
<glyph name="g" format="2">
	<unicode hex="0067"/>
	<advance width="1070"/>
	<outline>
		<contour>
			<point x="1097" y="865" type="curve" smooth="yes"/>
			<point x="1116" y="865"/>
			<point x="1193" y="986"/>
			<point x="1193" y="1020" type="curve" smooth="yes"/>
			<point x="1193" y="1028"/>
			<point x="1189" y="1031"/>
			<point x="1179" y="1031" type="curve" smooth="yes"/>
			<point x="1121" y="1031"/>
			<point x="899" y="1024"/>
			<point x="722" y="1024" type="curve"/>
			<point x="734" y="942" type="line"/>
			<point x="989" y="900"/>
			<point x="1072" y="865"/>
		</contour>
		<contour>
			<point x="461" y="447" type="curve" smooth="yes"/>
			<point x="351.9990655048" y="444.9999828533"/>
			<point x="311" y="501.3333333333"/>
			<point x="311" y="610" type="curve" smooth="yes"/>
			<point x="311" y="783.1176470588"/>
			<point x="438" y="937"/>
			<point x="609" y="937" type="curve" smooth="yes"/>
			<point x="718" y="937"/>
			<point x="759" y="881.641509434"/>
			<point x="759" y="774" type="curve" smooth="yes"/>
			<point x="759" y="600.8823529412"/>
			<point x="632.0000728664" y="448.0000004261"/>
		</contour>
		<contour>
			<point x="619" y="1044" type="curve" smooth="yes"/>
			<point x="352" y="1044"/>
			<point x="137" y="830"/>
			<point x="137" y="591" type="curve" smooth="yes"/>
			<point x="137" y="458"/>
			<point x="216" y="340"/>
			<point x="451" y="340" type="curve" smooth="yes"/>
			<point x="718" y="340"/>
			<point x="933" y="554"/>
			<point x="933" y="792" type="curve" smooth="yes"/>
			<point x="933" y="926"/>
			<point x="854" y="1044"/>
		</contour>
		<contour>
			<point x="370" y="-464" type="curve" smooth="yes"/>
			<point x="742" y="-464"/>
			<point x="920" y="-331"/>
			<point x="920" y="-140" type="curve" smooth="yes"/>
			<point x="920" y="2"/>
			<point x="833" y="88"/>
			<point x="521" y="141" type="curve" smooth="yes"/>
			<point x="273" y="183"/>
			<point x="245" y="203"/>
			<point x="245" y="256" type="curve" smooth="yes"/>
			<point x="245" y="306"/>
			<point x="289" y="335"/>
			<point x="433" y="342" type="curve"/>
			<point x="413" y="372" type="line"/>
			<point x="216" y="347"/>
			<point x="80" y="318"/>
			<point x="80" y="191" type="curve" smooth="yes"/>
			<point x="80" y="115"/>
			<point x="109" y="38"/>
			<point x="391" y="-7" type="curve" smooth="yes"/>
			<point x="684" y="-54"/>
			<point x="748" y="-88"/>
			<point x="748" y="-175" type="curve" smooth="yes"/>
			<point x="748" y="-274"/>
			<point x="631" y="-352"/>
			<point x="407" y="-352" type="curve" smooth="yes"/>
			<point x="154" y="-352"/>
			<point x="64" y="-282"/>
			<point x="64" y="-181" type="curve" smooth="yes"/>
			<point x="64" y="-65"/>
			<point x="135" y="13"/>
			<point x="433" y="13" type="curve"/>
			<point x="231" y="116" type="line"/>
			<point x="216" y="29" type="line"/>
			<point x="-42" y="-19"/>
			<point x="-121" y="-89"/>
			<point x="-121" y="-217" type="curve" smooth="yes"/>
			<point x="-121" y="-354"/>
			<point x="18" y="-464"/>
		</contour>
	</outline>
	<anchor name="top" x="603" y="1024"/>
	<anchor name="bottom" x="387" y="-445"/>
</glyph>
<glyph name="h" format="2">
	<unicode hex="0068"/>
	<advance width="1307"/>
	<outline>
		<contour>
			<point x="312" y="242" type="line" smooth="yes"/>
			<point x="427" y="600"/>
			<point x="659" y="878"/>
			<point x="868" y="878" type="curve" smooth="yes"/>
			<point x="939" y="878"/>
			<point x="972" y="850"/>
			<point x="972" y="806" type="curve" smooth="yes"/>
			<point x="972" y="778"/>
			<point x="963" y="741"/>
			<point x="932" y="668" type="curve" smooth="yes"/>
			<point x="695" y="113" type="line" smooth="yes"/>
			<point x="653" y="14"/>
			<point x="688" y="-20"/>
			<point x="773" y="-20" type="curve" smooth="yes"/>
			<point x="882" y="-20"/>
			<point x="1037" y="22"/>
			<point x="1256" y="181" type="curve"/>
			<point x="1209" y="257" type="line"/>
			<point x="1056" y="176"/>
			<point x="939" y="141"/>
			<point x="843" y="147" type="curve"/>
			<point x="864" y="85" type="line"/>
			<point x="1094" y="622" type="line" smooth="yes"/>
			<point x="1147" y="746"/>
			<point x="1161" y="812"/>
			<point x="1161" y="866" type="curve" smooth="yes"/>
			<point x="1161" y="967"/>
			<point x="1096" y="1044"/>
			<point x="954" y="1044" type="curve" smooth="yes"/>
			<point x="735" y="1044"/>
			<point x="547" y="906"/>
			<point x="327" y="463" type="curve"/>
			<point x="290" y="463" type="line"/>
			<point x="672" y="1484" type="line"/>
			<point x="630" y="1484" type="line"/>
			<point x="240" y="1415" type="line"/>
			<point x="224" y="1346" type="line"/>
			<point x="281" y="1323.2575757576"/>
			<point x="386" y="1281.3636363636"/>
			<point x="422" y="1267" type="curve"/>
			<point x="41" y="0" type="line"/>
			<point x="234" y="0" type="line"/>
		</contour>
	</outline>
	<anchor name="center" x="552" y="1207"/>
	<anchor name="UCtop" x="858" y="1414"/>
	<anchor name="bottom" x="492" y="0"/>
</glyph>
<glyph name="i" format="2">
	<unicode hex="0069"/>
	<advance width="742"/>
	<outline>
		<contour>
			<point x="147" y="143" type="line" smooth="yes"/>
			<point x="95" y="10"/>
			<point x="119" y="-20"/>
			<point x="217" y="-20" type="curve" smooth="yes"/>
			<point x="315" y="-20"/>
			<point x="459" y="18"/>
			<point x="667" y="178" type="curve"/>
			<point x="622" y="254" type="line"/>
			<point x="484" y="165"/>
			<point x="357" y="141"/>
			<point x="263" y="147" type="curve"/>
			<point x="301" y="85" type="line"/>
			<point x="612" y="881" type="line" smooth="yes"/>
			<point x="659" y="1002"/>
			<point x="627" y="1044"/>
			<point x="532" y="1044" type="curve" smooth="yes"/>
			<point x="447" y="1044"/>
			<point x="301" y="1014"/>
			<point x="56" y="823" type="curve"/>
			<point x="106" y="747" type="line"/>
			<point x="278" y="853"/>
			<point x="405" y="883"/>
			<point x="496" y="877" type="curve"/>
			<point x="458" y="939" type="line"/>
		</contour>
		<contour>
			<point x="486" y="1322" type="curve" smooth="yes"/>
			<point x="486" y="1255"/>
			<point x="533" y="1212"/>
			<point x="630" y="1212" type="curve" smooth="yes"/>
			<point x="746" y="1212"/>
			<point x="810" y="1280"/>
			<point x="810" y="1374" type="curve" smooth="yes"/>
			<point x="810" y="1441"/>
			<point x="763" y="1484"/>
			<point x="666" y="1484" type="curve" smooth="yes"/>
			<point x="550" y="1484"/>
			<point x="486" y="1416"/>
		</contour>
	</outline>
	<anchor name="top" x="664" y="1414"/>
	<anchor name="bottom" x="246" y="0"/>
	<anchor name="right" x="423" y="0"/>
</glyph>
<glyph name="k" format="2">
	<unicode hex="006B"/>
	<advance width="1210"/>
	<outline>
		<contour>
			<point x="670" y="1484" type="line"/>
			<point x="628" y="1484" type="line"/>
			<point x="245" y="1415" type="line"/>
			<point x="229" y="1346" type="line"/>
			<point x="286" y="1323.2575757576"/>
			<point x="391" y="1281.3636363636"/>
			<point x="427" y="1267" type="curve"/>
			<point x="37" y="0" type="line"/>
			<point x="217" y="0" type="line"/>
		</contour>
		<contour>
			<point x="379" y="572" type="line"/>
			<point x="567" y="129"/>
			<point x="669" y="-20"/>
			<point x="788" y="-20" type="curve" smooth="yes"/>
			<point x="862" y="-20"/>
			<point x="965" y="34"/>
			<point x="1132" y="239" type="curve"/>
			<point x="1075" y="293" type="line"/>
			<point x="970" y="180"/>
			<point x="916" y="130"/>
			<point x="865" y="130" type="curve" smooth="yes"/>
			<point x="788" y="130"/>
			<point x="725" y="233"/>
			<point x="533" y="648" type="curve"/>
			<point x="493" y="571" type="line"/>
			<point x="802" y="831"/>
			<point x="896" y="882"/>
			<point x="953" y="882" type="curve" smooth="yes"/>
			<point x="968" y="882"/>
			<point x="990" y="854"/>
			<point x="1012" y="821" type="curve" smooth="yes"/>
			<point x="1034" y="788"/>
			<point x="1055" y="754"/>
			<point x="1063" y="754" type="curve" smooth="yes"/>
			<point x="1115" y="754"/>
			<point x="1224" y="797"/>
			<point x="1224" y="922" type="curve" smooth="yes"/>
			<point x="1224" y="991"/>
			<point x="1177" y="1044"/>
			<point x="1072" y="1044" type="curve" smooth="yes"/>
			<point x="909" y="1044"/>
			<point x="772" y="947"/>
			<point x="385" y="591" type="curve"/>
		</contour>
	</outline>
	<anchor name="UCtop" x="817" y="1414"/>
	<anchor name="bottom" x="484" y="0"/>
</glyph>
<glyph name="l" format="2">
	<unicode hex="006C"/>
	<advance width="677"/>
	<outline>
		<contour>
			<point x="441" y="1267" type="curve"/>
			<point x="95" y="143" type="line" smooth="yes"/>
			<point x="53" y="7"/>
			<point x="73" y="-20"/>
			<point x="171" y="-20" type="curve" smooth="yes"/>
			<point x="269" y="-20"/>
			<point x="413" y="18"/>
			<point x="621" y="178" type="curve"/>
			<point x="576" y="254" type="line"/>
			<point x="438" y="165"/>
			<point x="311" y="141"/>
			<point x="217" y="147" type="curve"/>
			<point x="252" y="85" type="line"/>
			<point x="684" y="1484" type="line"/>
			<point x="642" y="1484" type="line"/>
			<point x="259" y="1415" type="line"/>
			<point x="243" y="1346" type="line"/>
			<point x="300" y="1323.2575757576"/>
			<point x="405" y="1281.3636363636"/>
		</contour>
	</outline>
	<anchor name="UCtop" x="540" y="1414"/>
	<anchor name="right" x="678" y="1464"/>
	<anchor name="bottom" x="212" y="0"/>
	<anchor name="mid" x="642" y="512"/>
</glyph>
<glyph name="m" format="2">
	<unicode hex="006D"/>
	<advance width="1980"/>
	<outline>
		<contour>
			<point x="1536" y="85" type="line"/>
			<point x="1766" y="622" type="line" smooth="yes"/>
			<point x="1819" y="746"/>
			<point x="1833" y="812"/>
			<point x="1833" y="866" type="curve" smooth="yes"/>
			<point x="1833" y="967"/>
			<point x="1771" y="1044"/>
			<point x="1636" y="1044" type="curve" smooth="yes"/>
			<point x="1428" y="1044"/>
			<point x="1249" y="906"/>
			<point x="1040" y="463" type="curve"/>
			<point x="1004" y="463" type="line"/>
			<point x="1061" y="633" type="line" smooth="yes"/>
			<point x="1104" y="761"/>
			<point x="1123" y="825"/>
			<point x="1123" y="891" type="curve" smooth="yes"/>
			<point x="1123" y="977"/>
			<point x="1080" y="1044"/>
			<point x="958" y="1044" type="curve" smooth="yes"/>
			<point x="792" y="1044"/>
			<point x="624" y="914"/>
			<point x="415" y="463" type="curve"/>
			<point x="378" y="463" type="line"/>
			<point x="566" y="1040" type="line"/>
			<point x="531" y="1043"/>
			<point x="502" y="1044"/>
			<point x="470" y="1044" type="curve" smooth="yes"/>
			<point x="267" y="1044"/>
			<point x="132" y="980"/>
			<point x="72" y="736" type="curve"/>
			<point x="82" y="732" type="line"/>
			<point x="160" y="833"/>
			<point x="253" y="873"/>
			<point x="383" y="873" type="curve" smooth="yes"/>
			<point x="386" y="873"/>
			<point x="390" y="873"/>
			<point x="392" y="873" type="curve"/>
			<point x="129" y="0" type="line"/>
			<point x="322" y="0" type="line"/>
			<point x="400" y="242" type="line" smooth="yes"/>
			<point x="514" y="596"/>
			<point x="711" y="878"/>
			<point x="898" y="878" type="curve" smooth="yes"/>
			<point x="969" y="878"/>
			<point x="995" y="850"/>
			<point x="995" y="806" type="curve" smooth="yes"/>
			<point x="995" y="778"/>
			<point x="987" y="741"/>
			<point x="962" y="668" type="curve" smooth="yes"/>
			<point x="735" y="0" type="line"/>
			<point x="929" y="0" type="line"/>
			<point x="1020" y="266" type="line" smooth="yes"/>
			<point x="1132" y="594"/>
			<point x="1344" y="878"/>
			<point x="1549" y="878" type="curve" smooth="yes"/>
			<point x="1618" y="878"/>
			<point x="1644" y="850"/>
			<point x="1644" y="806" type="curve" smooth="yes"/>
			<point x="1644" y="778"/>
			<point x="1635" y="741"/>
			<point x="1604" y="668" type="curve" smooth="yes"/>
			<point x="1367" y="113" type="line" smooth="yes"/>
			<point x="1325" y="14"/>
			<point x="1360" y="-20"/>
			<point x="1445" y="-20" type="curve" smooth="yes"/>
			<point x="1554" y="-20"/>
			<point x="1709" y="22"/>
			<point x="1928" y="181" type="curve"/>
			<point x="1881" y="257" type="line"/>
			<point x="1728" y="176"/>
			<point x="1611" y="141"/>
			<point x="1515" y="147" type="curve"/>
		</contour>
	</outline>
	<anchor name="top" x="1167" y="1024"/>
	<anchor name="bottom" x="850" y="0"/>
</glyph>
<glyph name="n" format="2">
	<unicode hex="006E"/>
	<advance width="1395"/>
	<outline>
		<contour>
			<point x="82" y="732" type="line"/>
			<point x="160" y="833"/>
			<point x="253" y="873"/>
			<point x="383" y="873" type="curve" smooth="yes"/>
			<point x="386" y="873"/>
			<point x="390" y="873"/>
			<point x="392" y="873" type="curve"/>
			<point x="129" y="0" type="line"/>
			<point x="322" y="0" type="line"/>
			<point x="400" y="242" type="line" smooth="yes"/>
			<point x="515" y="600"/>
			<point x="747" y="878"/>
			<point x="956" y="878" type="curve" smooth="yes"/>
			<point x="1027" y="878"/>
			<point x="1060" y="850"/>
			<point x="1060" y="806" type="curve" smooth="yes"/>
			<point x="1060" y="778"/>
			<point x="1051" y="741"/>
			<point x="1020" y="668" type="curve" smooth="yes"/>
			<point x="783" y="113" type="line" smooth="yes"/>
			<point x="740.6051674244" y="13.7209616901"/>
			<point x="775.9090909091" y="-20"/>
			<point x="861" y="-20" type="curve" smooth="yes"/>
			<point x="970" y="-20"/>
			<point x="1125" y="22"/>
			<point x="1344" y="181" type="curve"/>
			<point x="1297" y="257" type="line"/>
			<point x="1144" y="176"/>
			<point x="1027" y="141"/>
			<point x="931" y="147" type="curve"/>
			<point x="952" y="85" type="line"/>
			<point x="1182" y="622" type="line" smooth="yes"/>
			<point x="1235" y="746"/>
			<point x="1249" y="812"/>
			<point x="1249" y="866" type="curve" smooth="yes"/>
			<point x="1249" y="967"/>
			<point x="1184" y="1044"/>
			<point x="1042" y="1044" type="curve" smooth="yes"/>
			<point x="823" y="1044"/>
			<point x="635" y="906"/>
			<point x="415" y="463" type="curve"/>
			<point x="378" y="463" type="line"/>
			<point x="566" y="1040" type="line"/>
			<point x="531" y="1043"/>
			<point x="502" y="1044"/>
			<point x="470" y="1044" type="curve" smooth="yes"/>
			<point x="267" y="1044"/>
			<point x="132" y="980"/>
			<point x="72" y="736" type="curve"/>
		</contour>
	</outline>
	<anchor name="top" x="845" y="1024"/>
	<anchor name="bottom" x="573" y="0"/>
</glyph>
<glyph name="o" format="2">
	<unicode hex="006F"/>
	<advance width="1170"/>
	<outline>
		<contour>
			<point x="708" y="1044" type="curve" smooth="yes"/>
			<point x="356" y="1044"/>
			<point x="80" y="715"/>
			<point x="80" y="330" type="curve" smooth="yes"/>
			<point x="80" y="125"/>
			<point x="211" y="-20"/>
			<point x="459" y="-20" type="curve" smooth="yes"/>
			<point x="811" y="-20"/>
			<point x="1087" y="309"/>
			<point x="1087" y="694" type="curve" smooth="yes"/>
			<point x="1087" y="899"/>
			<point x="956" y="1044"/>
		</contour>
		<contour>
			<point x="465" y="108" type="curve" smooth="yes"/>
			<point x="343" y="108"/>
			<point x="271" y="184"/>
			<point x="271" y="312" type="curve" smooth="yes"/>
			<point x="271" y="627"/>
			<point x="439" y="916"/>
			<point x="702" y="916" type="curve" smooth="yes"/>
			<point x="824" y="916"/>
			<point x="896" y="840"/>
			<point x="896" y="712" type="curve" smooth="yes"/>
			<point x="896" y="397"/>
			<point x="728" y="108"/>
		</contour>
	</outline>
	<anchor name="top" x="741" y="1024"/>
	<anchor name="bottom" x="417" y="0"/>
	<anchor name="horn" x="945" y="1024"/>
	<anchor name="right" x="550" y="0"/>
</glyph>
<glyph name="p" format="2">
	<unicode hex="0070"/>
	<advance width="1305"/>
	<outline>
		<contour>
			<point x="384" y="287" type="curve" smooth="yes"/>
			<point x="428" y="445" type="line" smooth="yes"/>
			<point x="479" y="628"/>
			<point x="704" y="895"/>
			<point x="876" y="895" type="curve" smooth="yes"/>
			<point x="977" y="895"/>
			<point x="1036" y="840"/>
			<point x="1036" y="692" type="curve" smooth="yes"/>
			<point x="1036" y="418"/>
			<point x="850" y="90"/>
			<point x="591" y="90" type="curve" smooth="yes"/>
			<point x="447" y="90"/>
			<point x="377" y="155"/>
			<point x="377" y="239" type="curve" smooth="yes"/>
			<point x="377" y="255"/>
			<point x="379" y="271"/>
		</contour>
		<contour>
			<point x="309" y="151" type="line"/>
			<point x="326" y="41"/>
			<point x="434" y="-20"/>
			<point x="586" y="-20" type="curve" smooth="yes"/>
			<point x="950" y="-20"/>
			<point x="1233" y="350"/>
			<point x="1233" y="738" type="curve" smooth="yes"/>
			<point x="1233" y="919"/>
			<point x="1134" y="1044"/>
			<point x="952" y="1044" type="curve" smooth="yes"/>
			<point x="801" y="1044"/>
			<point x="642" y="937"/>
			<point x="469" y="665" type="curve"/>
			<point x="446" y="665" type="line"/>
			<point x="567" y="1040" type="line"/>
			<point x="532" y="1043"/>
			<point x="503" y="1044"/>
			<point x="471" y="1044" type="curve" smooth="yes"/>
			<point x="268" y="1044"/>
			<point x="133" y="980"/>
			<point x="73" y="736" type="curve"/>
			<point x="83" y="732" type="line"/>
			<point x="161" y="833"/>
			<point x="254" y="873"/>
			<point x="384" y="873" type="curve" smooth="yes"/>
			<point x="387" y="873"/>
			<point x="391" y="873"/>
			<point x="393" y="873" type="curve"/>
			<point x="32" y="-319" type="line"/>
			<point x="-126" y="-359" type="line"/>
			<point x="-152" y="-445" type="line"/>
			<point x="379" y="-445" type="line"/>
			<point x="406" y="-359" type="line"/>
			<point x="213" y="-319" type="line"/>
			<point x="355" y="151" type="line"/>
		</contour>
	</outline>
	<anchor name="top" x="817" y="1024"/>
	<anchor name="bottom" x="84" y="-445"/>
</glyph>
<glyph name="q" format="2">
	<unicode hex="0071"/>
	<advance width="1222"/>
	<outline>
		<contour>
			<point x="629" y="-321" type="line"/>
			<point x="428" y="-359" type="line"/>
			<point x="403" y="-445" type="line"/>
			<point x="945" y="-445" type="line"/>
			<point x="971" y="-359" type="line"/>
			<point x="811" y="-319" type="line"/>
			<point x="1200" y="1024" type="line"/>
			<point x="1082" y="1024" type="line"/>
			<point x="983" y="843" type="line"/>
			<point x="926" y="670" type="line" smooth="yes"/>
			<point x="829.1216177679" y="375.965611822"/>
			<point x="560.5557655955" y="118"/>
			<point x="389" y="118" type="curve" smooth="yes"/>
			<point x="293" y="118"/>
			<point x="232" y="166"/>
			<point x="232" y="263" type="curve" smooth="yes"/>
			<point x="232" y="506"/>
			<point x="469" y="926"/>
			<point x="763" y="926" type="curve" smooth="yes"/>
			<point x="854" y="926"/>
			<point x="933" y="886"/>
			<point x="990" y="771" type="curve"/>
			<point x="993" y="833" type="line"/>
			<point x="962" y="967"/>
			<point x="879" y="1044"/>
			<point x="741" y="1044" type="curve" smooth="yes"/>
			<point x="348" y="1044"/>
			<point x="43" y="550"/>
			<point x="43" y="227" type="curve" smooth="yes"/>
			<point x="43" y="67"/>
			<point x="153" y="-20"/>
			<point x="311" y="-20" type="curve" smooth="yes"/>
			<point x="436.0996309963" y="-20"/>
			<point x="586" y="19"/>
			<point x="817" y="350" type="curve"/>
			<point x="842" y="350" type="line"/>
		</contour>
	</outline>
	<anchor name="top" x="808" y="1024"/>
	<anchor name="bottom" x="682" y="-445"/>
</glyph>
<glyph name="s" format="2">
	<unicode hex="0073"/>
	<advance width="957"/>
	<outline>
		<contour>
			<point x="229" y="302" type="curve"/>
			<point x="75" y="302"/>
			<point x="34" y="249"/>
			<point x="34" y="160" type="curve" smooth="yes"/>
			<point x="34" y="59"/>
			<point x="115" y="-20"/>
			<point x="331" y="-20" type="curve" smooth="yes"/>
			<point x="599" y="-20"/>
			<point x="806" y="108"/>
			<point x="806" y="321" type="curve" smooth="yes"/>
			<point x="806" y="437"/>
			<point x="769" y="528"/>
			<point x="576" y="603" type="curve" smooth="yes"/>
			<point x="383" y="678"/>
			<point x="356" y="714"/>
			<point x="356" y="783" type="curve" smooth="yes"/>
			<point x="356" y="871"/>
			<point x="458" y="930"/>
			<point x="589" y="930" type="curve" smooth="yes"/>
			<point x="634" y="930"/>
			<point x="660" y="927"/>
			<point x="683" y="906" type="curve" smooth="yes"/>
			<point x="706" y="885"/>
			<point x="722" y="839"/>
			<point x="740" y="752" type="curve"/>
			<point x="849" y="752"/>
			<point x="912" y="807"/>
			<point x="912" y="882" type="curve" smooth="yes"/>
			<point x="912" y="991"/>
			<point x="805" y="1044"/>
			<point x="635" y="1044" type="curve" smooth="yes"/>
			<point x="376" y="1044"/>
			<point x="202" y="918"/>
			<point x="202" y="722" type="curve" smooth="yes"/>
			<point x="202" y="616"/>
			<point x="251" y="540"/>
			<point x="432" y="480" type="curve" smooth="yes"/>
			<point x="613" y="420"/>
			<point x="652" y="367"/>
			<point x="652" y="288" type="curve" smooth="yes"/>
			<point x="652" y="160"/>
			<point x="521" y="91"/>
			<point x="371" y="91" type="curve" smooth="yes"/>
			<point x="327" y="91"/>
			<point x="304" y="95"/>
			<point x="281" y="119" type="curve" smooth="yes"/>
			<point x="258" y="143"/>
			<point x="244" y="195"/>
		</contour>
	</outline>
	<anchor name="top" x="600" y="1024"/>
	<anchor name="bottom" x="396" y="0"/>
</glyph>
<glyph name="t" format="2">
	<unicode hex="0074"/>
	<advance width="829"/>
	<outline>
		<contour>
			<point x="156" y="906" type="line"/>
			<point x="867" y="906" type="line"/>
			<point x="867" y="1024" type="line"/>
			<point x="159" y="1024" type="line"/>
		</contour>
		<contour>
			<point x="388" y="304" type="curve" smooth="yes"/>
			<point x="675" y="1233" type="line"/>
			<point x="503" y="1233" type="line"/>
			<point x="214" y="297" type="line" smooth="yes"/>
			<point x="184" y="199"/>
			<point x="174" y="147"/>
			<point x="174" y="110" type="curve" smooth="yes"/>
			<point x="174" y="23"/>
			<point x="218" y="-20"/>
			<point x="289" y="-20" type="curve" smooth="yes"/>
			<point x="387" y="-20"/>
			<point x="529" y="38"/>
			<point x="722" y="219" type="curve"/>
			<point x="668" y="290" type="line"/>
			<point x="518" y="163"/>
			<point x="441" y="136"/>
			<point x="395" y="136" type="curve" smooth="yes"/>
			<point x="370" y="136"/>
			<point x="358" y="144"/>
			<point x="358" y="177" type="curve" smooth="yes"/>
			<point x="358" y="198"/>
			<point x="370" y="245"/>
		</contour>
	</outline>
	<anchor name="right" x="720" y="1535"/>
	<anchor name="bottom" x="344" y="0"/>
</glyph>
<glyph name="u" format="2">
	<unicode hex="0075"/>
	<advance width="1364"/>
	<outline>
		<contour>
			<point x="823" y="90" type="line" smooth="yes"/>
			<point x="797" y="14"/>
			<point x="822" y="-20"/>
			<point x="900" y="-20" type="curve" smooth="yes"/>
			<point x="976" y="-20"/>
			<point x="1115" y="15"/>
			<point x="1325" y="184" type="curve"/>
			<point x="1282" y="256" type="line"/>
			<point x="1130" y="157"/>
			<point x="993" y="130"/>
			<point x="900" y="141" type="curve"/>
			<point x="944" y="76" type="line"/>
			<point x="1254" y="1024" type="line"/>
			<point x="1061" y="1024" type="line"/>
			<point x="888" y="578" type="line" smooth="yes"/>
			<point x="739" y="193"/>
			<point x="544" y="130"/>
			<point x="440" y="130" type="curve" smooth="yes"/>
			<point x="380" y="130"/>
			<point x="338" y="155"/>
			<point x="338" y="203" type="curve" smooth="yes"/>
			<point x="338" y="231"/>
			<point x="350" y="271"/>
			<point x="369" y="318" type="curve" smooth="yes"/>
			<point x="593" y="878" type="line" smooth="yes"/>
			<point x="642" y="1000"/>
			<point x="609" y="1044"/>
			<point x="521" y="1044" type="curve" smooth="yes"/>
			<point x="428" y="1044"/>
			<point x="283" y="1009"/>
			<point x="46" y="813" type="curve"/>
			<point x="96" y="737" type="line"/>
			<point x="247" y="840"/>
			<point x="373" y="883"/>
			<point x="464" y="877" type="curve"/>
			<point x="434" y="939" type="line"/>
			<point x="227" y="420" type="line" smooth="yes"/>
			<point x="168" y="271"/>
			<point x="157" y="207"/>
			<point x="157" y="156" type="curve" smooth="yes"/>
			<point x="157" y="54"/>
			<point x="224" y="-20"/>
			<point x="378" y="-20" type="curve" smooth="yes"/>
			<point x="541" y="-20"/>
			<point x="681" y="38"/>
			<point x="922" y="468" type="curve"/>
			<point x="953" y="468" type="line"/>
		</contour>
	</outline>
	<anchor name="top" x="801" y="1024"/>
	<anchor name="right" x="1158" y="0"/>
	<anchor name="bottom" x="549" y="0"/>
	<anchor name="horn" x="1242" y="1024"/>
</glyph>
<glyph name="w" format="2">
	<unicode hex="0077"/>
	<advance width="1733"/>
	<outline>
		<contour>
			<point x="991" y="1024" type="line"/>
			<point x="856" y="573" type="line" smooth="yes"/>
			<point x="754" y="233"/>
			<point x="592" y="124"/>
			<point x="462" y="124" type="curve" smooth="yes"/>
			<point x="389" y="124"/>
			<point x="351" y="146"/>
			<point x="351" y="204" type="curve" smooth="yes"/>
			<point x="351" y="227"/>
			<point x="357" y="256"/>
			<point x="369" y="291" type="curve" smooth="yes"/>
			<point x="629" y="1040" type="line"/>
			<point x="588" y="1043"/>
			<point x="549" y="1044"/>
			<point x="512" y="1044" type="curve" smooth="yes"/>
			<point x="279" y="1044"/>
			<point x="149" y="980"/>
			<point x="80" y="736" type="curve"/>
			<point x="90" y="732" type="line"/>
			<point x="168" y="833"/>
			<point x="261" y="873"/>
			<point x="391" y="873" type="curve" smooth="yes"/>
			<point x="396" y="873"/>
			<point x="395" y="873"/>
			<point x="400" y="873" type="curve"/>
			<point x="205" y="318" type="line" smooth="yes"/>
			<point x="187" y="267"/>
			<point x="178" y="220"/>
			<point x="178" y="179" type="curve" smooth="yes"/>
			<point x="178" y="53"/>
			<point x="261" y="-20"/>
			<point x="403" y="-20" type="curve" smooth="yes"/>
			<point x="582" y="-20"/>
			<point x="736" y="101"/>
			<point x="894" y="466" type="curve"/>
			<point x="925" y="466" type="line"/>
			<point x="864" y="282" type="line" smooth="yes"/>
			<point x="845" y="226"/>
			<point x="836" y="178"/>
			<point x="836" y="139" type="curve" smooth="yes"/>
			<point x="836" y="27"/>
			<point x="907" y="-20"/>
			<point x="1032" y="-20" type="curve" smooth="yes"/>
			<point x="1348" y="-20"/>
			<point x="1662" y="361"/>
			<point x="1662" y="835" type="curve" smooth="yes"/>
			<point x="1662" y="970"/>
			<point x="1596" y="1044"/>
			<point x="1499" y="1044" type="curve" smooth="yes"/>
			<point x="1414" y="1044"/>
			<point x="1336" y="986"/>
			<point x="1336" y="890" type="curve" smooth="yes"/>
			<point x="1336" y="826"/>
			<point x="1503" y="822"/>
			<point x="1503" y="668" type="curve" smooth="yes"/>
			<point x="1503" y="397"/>
			<point x="1261" y="124"/>
			<point x="1042" y="124" type="curve" smooth="yes"/>
			<point x="972" y="124"/>
			<point x="931" y="148"/>
			<point x="931" y="213" type="curve" smooth="yes"/>
			<point x="931" y="234"/>
			<point x="936" y="260"/>
			<point x="945" y="291" type="curve" smooth="yes"/>
			<point x="1165" y="1024" type="line"/>
		</contour>
	</outline>
	<anchor name="top" x="1058" y="1024"/>
	<anchor name="bottom" x="744" y="0"/>
</glyph>
<glyph name="x" format="2">
	<unicode hex="0078"/>
	<advance width="1270"/>
	<outline>
		<contour>
			<point x="684" y="495" type="line"/>
			<point x="828" y="670" type="line" smooth="yes"/>
			<point x="935" y="805"/>
			<point x="1015" y="850"/>
			<point x="1054" y="850" type="curve" smooth="yes"/>
			<point x="1061" y="850"/>
			<point x="1088" y="826"/>
			<point x="1114" y="801" type="curve" smooth="yes"/>
			<point x="1140" y="776"/>
			<point x="1168" y="750"/>
			<point x="1174" y="750" type="curve" smooth="yes"/>
			<point x="1208" y="750"/>
			<point x="1304" y="814"/>
			<point x="1304" y="917" type="curve" smooth="yes"/>
			<point x="1304" y="986"/>
			<point x="1251" y="1044"/>
			<point x="1146" y="1044" type="curve" smooth="yes"/>
			<point x="1050" y="1044"/>
			<point x="965" y="998"/>
			<point x="846" y="852" type="curve" smooth="yes"/>
			<point x="645" y="597" type="line"/>
			<point x="588" y="548" type="line"/>
			<point x="422" y="354" type="line" smooth="yes"/>
			<point x="312" y="222"/>
			<point x="235" y="174"/>
			<point x="196" y="174" type="curve" smooth="yes"/>
			<point x="189" y="174"/>
			<point x="162" y="199"/>
			<point x="135" y="224" type="curve" smooth="yes"/>
			<point x="108" y="249"/>
			<point x="82" y="274"/>
			<point x="76" y="274" type="curve" smooth="yes"/>
			<point x="42" y="274"/>
			<point x="-54" y="210"/>
			<point x="-54" y="107" type="curve" smooth="yes"/>
			<point x="-54" y="38"/>
			<point x="-1" y="-20"/>
			<point x="104" y="-20" type="curve" smooth="yes"/>
			<point x="200" y="-20"/>
			<point x="283" y="27"/>
			<point x="404" y="172" type="curve" smooth="yes"/>
			<point x="621" y="438" type="line"/>
		</contour>
		<contour>
			<point x="1193" y="232" type="curve"/>
			<point x="1142" y="293" type="line"/>
			<point x="1005" y="186"/>
			<point x="883" y="135"/>
			<point x="847" y="135" type="curve" smooth="yes"/>
			<point x="833" y="135"/>
			<point x="830" y="143"/>
			<point x="817" y="188" type="curve" smooth="yes"/>
			<point x="610" y="924" type="line" smooth="yes"/>
			<point x="585" y="1012"/>
			<point x="557" y="1044"/>
			<point x="486" y="1044" type="curve" smooth="yes"/>
			<point x="396" y="1044"/>
			<point x="263" y="955"/>
			<point x="116" y="715" type="curve"/>
			<point x="187" y="664" type="line"/>
			<point x="287" y="794"/>
			<point x="395" y="881"/>
			<point x="436" y="881" type="curve" smooth="yes"/>
			<point x="448" y="881"/>
			<point x="452" y="872"/>
			<point x="459" y="846" type="curve" smooth="yes"/>
			<point x="667" y="100" type="line" smooth="yes"/>
			<point x="692" y="11"/>
			<point x="718" y="-20"/>
			<point x="785" y="-20" type="curve" smooth="yes"/>
			<point x="853" y="-20"/>
			<point x="983" y="31"/>
		</contour>
	</outline>
	<anchor name="top" x="782" y="1024"/>
	<anchor name="bottom" x="468" y="0"/>
</glyph>
<glyph name="y" format="2">
	<unicode hex="0079"/>
	<advance width="1236"/>
	<outline>
		<contour>
			<point x="126" y="576" type="line"/>
			<point x="230" y="759"/>
			<point x="323" y="844"/>
			<point x="349" y="844" type="curve" smooth="yes"/>
			<point x="366" y="844"/>
			<point x="377" y="819"/>
			<point x="412" y="700" type="curve" smooth="yes"/>
			<point x="447" y="581"/>
			<point x="516" y="311"/>
			<point x="594" y="-167" type="curve"/>
			<point x="749" y="-57" type="line"/>
			<point x="671" y="483"/>
			<point x="572" y="804"/>
			<point x="531" y="909" type="curve" smooth="yes"/>
			<point x="490" y="1014"/>
			<point x="471" y="1044"/>
			<point x="421" y="1044" type="curve" smooth="yes"/>
			<point x="348" y="1044"/>
			<point x="209" y="989"/>
			<point x="40" y="616" type="curve"/>
		</contour>
		<contour>
			<point x="629" y="-48" type="line"/>
			<point x="480" y="-236"/>
			<point x="338" y="-304"/>
			<point x="254" y="-304" type="curve" smooth="yes"/>
			<point x="237" y="-304"/>
			<point x="202" y="-276"/>
			<point x="170" y="-249" type="curve" smooth="yes"/>
			<point x="138" y="-222"/>
			<point x="108" y="-195"/>
			<point x="102" y="-195" type="curve" smooth="yes"/>
			<point x="54" y="-195"/>
			<point x="-6" y="-247"/>
			<point x="-6" y="-321" type="curve" smooth="yes"/>
			<point x="-6" y="-397"/>
			<point x="37" y="-465"/>
			<point x="150" y="-465" type="curve" smooth="yes"/>
			<point x="374" y="-465"/>
			<point x="654" y="-238"/>
			<point x="845" y="66" type="curve" smooth="yes"/>
			<point x="1036" y="370"/>
			<point x="1146" y="641"/>
			<point x="1212" y="984" type="curve" smooth="yes"/>
			<point x="1220" y="1023"/>
			<point x="1184" y="1041"/>
			<point x="1131" y="1042" type="curve" smooth="yes"/>
			<point x="1092" y="1043"/>
			<point x="1064" y="1040"/>
			<point x="1008" y="1026" type="curve"/>
			<point x="977" y="535"/>
			<point x="830" y="206"/>
			<point x="689" y="2" type="curve"/>
		</contour>
	</outline>
	<anchor name="top" x="721" y="1024"/>
	<anchor name="bottom" x="897" y="-133"/>
</glyph>
<glyph name="z" format="2">
	<unicode hex="007A"/>
	<advance width="1119"/>
	<outline>
		<contour>
			<point x="26" y="51" type="line"/>
			<point x="104" y="-27" type="line"/>
			<point x="1100" y="970" type="line"/>
			<point x="1023" y="1050" type="line"/>
		</contour>
		<contour>
			<point x="200" y="670" type="line"/>
			<point x="373" y="902"/>
			<point x="390" y="889"/>
			<point x="553" y="826" type="curve" smooth="yes"/>
			<point x="803" y="730" type="line"/>
			<point x="937" y="888" type="line"/>
			<point x="602" y="1019" type="line" smooth="yes"/>
			<point x="460" y="1074"/>
			<point x="320" y="1062"/>
			<point x="114" y="710" type="curve"/>
		</contour>
		<contour>
			<point x="533" y="14" type="line" smooth="yes"/>
			<point x="669" y="-56"/>
			<point x="773" y="-43"/>
			<point x="1040" y="265" type="curve"/>
			<point x="984" y="325" type="line"/>
			<point x="771" y="128"/>
			<point x="756" y="122"/>
			<point x="600" y="201" type="curve" smooth="yes"/>
			<point x="402" y="302" type="line"/>
			<point x="254" y="157" type="line"/>
		</contour>
	</outline>
	<anchor name="top" x="680" y="1024"/>
	<anchor name="bottom" x="426" y="0"/>
</glyph>
<glyph name="braceleft" format="2">
	<unicode hex="007B"/>
	<advance width="741"/>
	<outline>
		<contour>
			<point x="89" y="567" type="line"/>
			<point x="160" y="566" type="line" smooth="yes"/>
			<point x="233" y="565"/>
			<point x="267" y="538"/>
			<point x="267" y="482" type="curve" smooth="yes"/>
			<point x="267" y="354"/>
			<point x="110" y="127"/>
			<point x="110" y="-24" type="curve" smooth="yes"/>
			<point x="110" y="-130"/>
			<point x="188" y="-222"/>
			<point x="336" y="-236" type="curve" smooth="yes"/>
			<point x="422" y="-245" type="line"/>
			<point x="462" y="-133" type="line"/>
			<point x="389" y="-123" type="line" smooth="yes"/>
			<point x="318" y="-115"/>
			<point x="286" y="-85"/>
			<point x="286" y="-23" type="curve" smooth="yes"/>
			<point x="286" y="99"/>
			<point x="422" y="364"/>
			<point x="422" y="479" type="curve" smooth="yes"/>
			<point x="422" y="563"/>
			<point x="379" y="618"/>
			<point x="251" y="640" type="curve"/>
			<point x="238" y="598" type="line"/>
			<point x="419" y="615"/>
			<point x="514" y="704"/>
			<point x="555" y="838" type="curve" smooth="yes"/>
			<point x="592" y="959"/>
			<point x="594" y="1094"/>
			<point x="627" y="1198" type="curve" smooth="yes"/>
			<point x="657" y="1296"/>
			<point x="712" y="1352"/>
			<point x="837" y="1367" type="curve" smooth="yes"/>
			<point x="917" y="1377" type="line"/>
			<point x="934" y="1488" type="line"/>
			<point x="812" y="1478" type="line" smooth="yes"/>
			<point x="598" y="1460"/>
			<point x="481" y="1348"/>
			<point x="441" y="1218" type="curve" smooth="yes"/>
			<point x="401" y="1087"/>
			<point x="415" y="950"/>
			<point x="379" y="831" type="curve" smooth="yes"/>
			<point x="345" y="720"/>
			<point x="291" y="680"/>
			<point x="193" y="677" type="curve" smooth="yes"/>
			<point x="123" y="677" type="line"/>
		</contour>
	</outline>
</glyph>
<glyph name="bar" format="2">
	<unicode hex="007C"/>
	<advance width="579"/>
	<outline>
		<contour>
			<point x="-68" y="-465" type="line"/>
			<point x="64" y="-465" type="line"/>
			<point x="659" y="1535" type="line"/>
			<point x="526" y="1535" type="line"/>
		</contour>
	</outline>
</glyph>
<glyph name="braceright" format="2">
	<unicode hex="007D"/>
	<advance width="741"/>
	<outline>
		<contour>
			<point x="716" y="676" type="line"/>
			<point x="645" y="677" type="line" smooth="yes"/>
			<point x="572" y="678"/>
			<point x="538" y="705"/>
			<point x="538" y="761" type="curve" smooth="yes"/>
			<point x="538" y="889"/>
			<point x="695" y="1116"/>
			<point x="695" y="1267" type="curve" smooth="yes"/>
			<point x="695" y="1373"/>
			<point x="617" y="1465"/>
			<point x="469" y="1479" type="curve" smooth="yes"/>
			<point x="383" y="1488" type="line"/>
			<point x="343" y="1376" type="line"/>
			<point x="416" y="1366" type="line" smooth="yes"/>
			<point x="487" y="1358"/>
			<point x="519" y="1328"/>
			<point x="519" y="1266" type="curve" smooth="yes"/>
			<point x="519" y="1144"/>
			<point x="383" y="879"/>
			<point x="383" y="764" type="curve" smooth="yes"/>
			<point x="383" y="680"/>
			<point x="426" y="625"/>
			<point x="554" y="603" type="curve"/>
			<point x="567" y="645" type="line"/>
			<point x="386" y="628"/>
			<point x="291" y="539"/>
			<point x="250" y="405" type="curve" smooth="yes"/>
			<point x="213" y="284"/>
			<point x="211" y="149"/>
			<point x="178" y="45" type="curve" smooth="yes"/>
			<point x="148" y="-53"/>
			<point x="93" y="-109"/>
			<point x="-32" y="-124" type="curve" smooth="yes"/>
			<point x="-112" y="-134" type="line"/>
			<point x="-129" y="-245" type="line"/>
			<point x="-7" y="-235" type="line" smooth="yes"/>
			<point x="207" y="-217"/>
			<point x="324" y="-105"/>
			<point x="364" y="25" type="curve" smooth="yes"/>
			<point x="404" y="156"/>
			<point x="390" y="293"/>
			<point x="426" y="412" type="curve" smooth="yes"/>
			<point x="460" y="523"/>
			<point x="514" y="563"/>
			<point x="612" y="566" type="curve" smooth="yes"/>
			<point x="682" y="566" type="line"/>
		</contour>
	</outline>
</glyph>
<glyph name="asciitilde" format="2">
	<unicode hex="007E"/>
	<advance width="1200"/>
	<outline>
		<contour>
			<point x="1061" y="653" type="curve"/>
			<point x="940" y="653" type="line"/>
			<point x="899" y="540"/>
			<point x="849" y="494"/>
			<point x="769" y="494" type="curve" smooth="yes"/>
			<point x="643" y="494"/>
			<point x="590" y="662"/>
			<point x="429" y="662" type="curve" smooth="yes"/>
			<point x="304" y="662"/>
			<point x="204" y="598"/>
			<point x="137" y="377" type="curve"/>
			<point x="258" y="377" type="line"/>
			<point x="300" y="489"/>
			<point x="350" y="535"/>
			<point x="429" y="535" type="curve" smooth="yes"/>
			<point x="555" y="535"/>
			<point x="608" y="367"/>
			<point x="769" y="367" type="curve" smooth="yes"/>
			<point x="894" y="367"/>
			<point x="994" y="431"/>
		</contour>
	</outline>
</glyph>
<glyph name="exclamdown" format="2">
	<unicode hex="00A1"/>
	<advance width="610"/>
	<outline>
		<contour>
			<point x="-72" y="-363" type="line" smooth="yes"/>
			<point x="-82" y="-394"/>
			<point x="-62" y="-410"/>
			<point x="29" y="-410" type="curve" smooth="yes"/>
			<point x="117" y="-410"/>
			<point x="144" y="-394"/>
			<point x="153" y="-363" type="curve" smooth="yes"/>
			<point x="174" y="-291" type="line" smooth="yes"/>
			<point x="184" y="-255"/>
			<point x="366" y="490"/>
			<point x="386" y="583" type="curve"/>
			<point x="274" y="583" type="line"/>
			<point x="236" y="490"/>
			<point x="-37" y="-255"/>
			<point x="-49" y="-291" type="curve" smooth="yes"/>
		</contour>
		<contour>
			<point x="385" y="762" type="curve" smooth="yes"/>
			<point x="506" y="762"/>
			<point x="570" y="845"/>
			<point x="570" y="942" type="curve" smooth="yes"/>
			<point x="570" y="1006"/>
			<point x="531" y="1041"/>
			<point x="459" y="1041" type="curve" smooth="yes"/>
			<point x="338" y="1041"/>
			<point x="274" y="958"/>
			<point x="274" y="862" type="curve" smooth="yes"/>
			<point x="274" y="797"/>
			<point x="313" y="762"/>
		</contour>
	</outline>
</glyph>
<glyph name="currency" format="2">
	<unicode hex="00A4"/>
	<advance width="1084"/>
	<outline>
		<contour>
			<point x="239" y="835" type="line"/>
			<point x="340" y="682" type="line"/>
			<point x="444" y="756" type="line"/>
			<point x="343" y="906" type="line"/>
		</contour>
		<contour>
			<point x="928" y="868" type="line"/>
			<point x="749" y="731" type="line"/>
			<point x="819" y="639" type="line"/>
			<point x="992" y="769" type="line"/>
		</contour>
		<contour>
			<point x="841" y="195" type="line"/>
			<point x="740" y="348" type="line"/>
			<point x="636" y="274" type="line"/>
			<point x="737" y="123" type="line"/>
		</contour>
		<contour>
			<point x="88" y="261" type="line"/>
			<point x="152" y="162" type="line"/>
			<point x="331" y="299" type="line"/>
			<point x="261" y="391" type="line"/>
		</contour>
		<contour>
			<point x="590" y="841" type="curve" smooth="yes"/>
			<point x="353" y="841"/>
			<point x="201" y="668"/>
			<point x="201" y="456" type="curve" smooth="yes"/>
			<point x="201" y="299"/>
			<point x="312" y="189"/>
			<point x="490" y="189" type="curve" smooth="yes"/>
			<point x="727" y="189"/>
			<point x="879" y="361"/>
			<point x="879" y="574" type="curve" smooth="yes"/>
			<point x="879" y="731"/>
			<point x="768" y="841"/>
		</contour>
		<contour>
			<point x="507" y="292" type="curve" smooth="yes"/>
			<point x="390" y="292"/>
			<point x="315" y="363"/>
			<point x="315" y="471" type="curve" smooth="yes"/>
			<point x="315" y="618"/>
			<point x="415" y="738"/>
			<point x="573" y="738" type="curve" smooth="yes"/>
			<point x="690" y="738"/>
			<point x="765" y="667"/>
			<point x="765" y="558" type="curve" smooth="yes"/>
			<point x="765" y="412"/>
			<point x="665" y="292"/>
		</contour>
	</outline>
</glyph>
<glyph name="brokenbar" format="2">
	<unicode hex="00A6"/>
	<advance width="579"/>
	<outline>
		<contour>
			<point x="429" y="761" type="line"/>
			<point x="659" y="1535" type="line"/>
			<point x="526" y="1535" type="line"/>
			<point x="296" y="761" type="line"/>
		</contour>
		<contour>
			<point x="-68" y="-465" type="line"/>
			<point x="64" y="-465" type="line"/>
			<point x="295" y="309" type="line"/>
			<point x="162" y="309" type="line"/>
		</contour>
	</outline>
</glyph>
<glyph name="section" format="2">
	<unicode hex="00A7"/>
	<advance width="1218"/>
	<outline>
		<contour>
			<point x="663" y="815" type="curve"/>
			<point x="597" y="859" type="line"/>
			<point x="284" y="859"/>
			<point x="118" y="738"/>
			<point x="118" y="532" type="curve" smooth="yes"/>
			<point x="118" y="167"/>
			<point x="697" y="317"/>
			<point x="697" y="71" type="curve" smooth="yes"/>
			<point x="697" y="-23"/>
			<point x="618" y="-111"/>
			<point x="418" y="-111" type="curve" smooth="yes"/>
			<point x="254" y="-111"/>
			<point x="176" y="42"/>
			<point x="151" y="42" type="curve" smooth="yes"/>
			<point x="86" y="42"/>
			<point x="23" y="-6"/>
			<point x="22" y="-89" type="curve" smooth="yes"/>
			<point x="21" y="-161"/>
			<point x="57" y="-243"/>
			<point x="340" y="-243" type="curve" smooth="yes"/>
			<point x="708" y="-243"/>
			<point x="883" y="-80"/>
			<point x="883" y="126" type="curve" smooth="yes"/>
			<point x="883" y="500"/>
			<point x="304" y="321"/>
			<point x="304" y="598" type="curve" smooth="yes"/>
			<point x="304" y="730"/>
			<point x="417" y="811"/>
		</contour>
		<contour>
			<point x="962" y="593" type="curve" smooth="yes"/>
			<point x="962" y="461"/>
			<point x="849" y="380"/>
			<point x="603" y="376" type="curve"/>
			<point x="669" y="332" type="line"/>
			<point x="982" y="332"/>
			<point x="1148" y="453"/>
			<point x="1148" y="659" type="curve" smooth="yes"/>
			<point x="1148" y="1024"/>
			<point x="569" y="874"/>
			<point x="569" y="1120" type="curve" smooth="yes"/>
			<point x="569" y="1214"/>
			<point x="648" y="1302"/>
			<point x="848" y="1302" type="curve" smooth="yes"/>
			<point x="1012" y="1302"/>
			<point x="1090" y="1149"/>
			<point x="1115" y="1149" type="curve" smooth="yes"/>
			<point x="1180" y="1149"/>
			<point x="1243" y="1197"/>
			<point x="1244" y="1280" type="curve" smooth="yes"/>
			<point x="1245" y="1352"/>
			<point x="1209" y="1434"/>
			<point x="926" y="1434" type="curve" smooth="yes"/>
			<point x="558" y="1434"/>
			<point x="383" y="1271"/>
			<point x="383" y="1065" type="curve" smooth="yes"/>
			<point x="383" y="691"/>
			<point x="962" y="870"/>
		</contour>
	</outline>
</glyph>
<glyph name="copyright" format="2">
	<unicode hex="00A9"/>
	<advance width="1767"/>
	<outline>
		<contour>
			<point x="956" y="405" type="curve" smooth="yes"/>
			<point x="778" y="405"/>
			<point x="679" y="490"/>
			<point x="679" y="635" type="curve" smooth="yes"/>
			<point x="679" y="861"/>
			<point x="806" y="1014"/>
			<point x="1043" y="1014" type="curve" smooth="yes"/>
			<point x="1136" y="1014"/>
			<point x="1193" y="998"/>
			<point x="1250" y="958" type="curve"/>
			<point x="1214" y="1052" type="line"/>
			<point x="1197" y="844" type="line"/>
			<point x="1276" y="844" type="line"/>
			<point x="1366" y="1140" type="line"/>
			<point x="1301" y="1140" type="line"/>
			<point x="1235" y="1066" type="line"/>
			<point x="1303" y="1081" type="line"/>
			<point x="1240" y="1108"/>
			<point x="1162" y="1123"/>
			<point x="1069" y="1123" type="curve" smooth="yes"/>
			<point x="717" y="1123"/>
			<point x="508" y="917"/>
			<point x="508" y="628" type="curve" smooth="yes"/>
			<point x="508" y="411"/>
			<point x="651" y="301"/>
			<point x="909" y="301" type="curve" smooth="yes"/>
			<point x="1005" y="301"/>
			<point x="1075" y="317"/>
			<point x="1158" y="344" type="curve"/>
			<point x="1240" y="563" type="line"/>
			<point x="1163" y="563" type="line"/>
			<point x="1036" y="354" type="line"/>
			<point x="1140" y="442" type="line"/>
			<point x="1079" y="416"/>
			<point x="1011" y="405"/>
		</contour>
		<contour>
			<point x="869" y="93" type="curve" smooth="yes"/>
			<point x="499" y="93"/>
			<point x="309" y="255"/>
			<point x="309" y="557" type="curve" smooth="yes"/>
			<point x="309" y="930"/>
			<point x="536" y="1321"/>
			<point x="1014" y="1321" type="curve" smooth="yes"/>
			<point x="1384" y="1321"/>
			<point x="1574" y="1159"/>
			<point x="1574" y="857" type="curve" smooth="yes"/>
			<point x="1574" y="484"/>
			<point x="1347" y="93"/>
		</contour>
		<contour>
			<point x="1027" y="1434" type="curve" smooth="yes"/>
			<point x="467" y="1434"/>
			<point x="183" y="993"/>
			<point x="183" y="541" type="curve" smooth="yes"/>
			<point x="183" y="186"/>
			<point x="412" y="-20"/>
			<point x="856" y="-20" type="curve" smooth="yes"/>
			<point x="1416" y="-20"/>
			<point x="1700" y="421"/>
			<point x="1700" y="873" type="curve" smooth="yes"/>
			<point x="1700" y="1228"/>
			<point x="1471" y="1434"/>
		</contour>
	</outline>
</glyph>
<glyph name="ordfeminine" format="2">
	<unicode hex="00AA"/>
	<advance width="1045"/>
	<outline>
		<contour>
			<point x="204" y="510" type="line"/>
			<point x="861" y="510" type="line"/>
			<point x="903" y="647" type="line"/>
			<point x="246" y="647" type="line"/>
		</contour>
		<contour>
			<point x="726" y="862" type="line" smooth="yes"/>
			<point x="700" y="790"/>
			<point x="722" y="769"/>
			<point x="784" y="769" type="curve" smooth="yes"/>
			<point x="851" y="769"/>
			<point x="930" y="786"/>
			<point x="1061" y="870" type="curve"/>
			<point x="1044" y="914" type="line"/>
			<point x="938" y="867"/>
			<point x="876" y="860"/>
			<point x="797" y="866" type="curve"/>
			<point x="862" y="806" type="line"/>
			<point x="1073" y="1414" type="line"/>
			<point x="916" y="1414" type="line"/>
			<point x="858" y="1307" type="line"/>
			<point x="814" y="1188" type="line" smooth="yes"/>
			<point x="760" y="1041"/>
			<point x="636" y="878"/>
			<point x="533" y="878" type="curve" smooth="yes"/>
			<point x="474" y="878"/>
			<point x="449" y="904"/>
			<point x="449" y="960" type="curve" smooth="yes"/>
			<point x="449" y="1100"/>
			<point x="597" y="1339"/>
			<point x="737" y="1339" type="curve" smooth="yes"/>
			<point x="790" y="1339"/>
			<point x="833" y="1315"/>
			<point x="863" y="1251" type="curve"/>
			<point x="881" y="1275" type="line"/>
			<point x="849" y="1374"/>
			<point x="795" y="1429"/>
			<point x="704" y="1429" type="curve" smooth="yes"/>
			<point x="471" y="1429"/>
			<point x="272" y="1141"/>
			<point x="272" y="931" type="curve" smooth="yes"/>
			<point x="272" y="828"/>
			<point x="337" y="769"/>
			<point x="444" y="769" type="curve" smooth="yes"/>
			<point x="550" y="769"/>
			<point x="647" y="818"/>
			<point x="784" y="1041" type="curve"/>
			<point x="796" y="1041" type="line"/>
		</contour>
	</outline>
</glyph>
<glyph name="guillemotleft" format="2">
	<unicode hex="00AB"/>
	<advance width="1135"/>
	<outline>
		<contour>
			<point x="274" y="534" type="line"/>
			<point x="253" y="463" type="line"/>
			<point x="703" y="883" type="line"/>
			<point x="629" y="981" type="line"/>
			<point x="123" y="594" type="line"/>
			<point x="79" y="450" type="line"/>
			<point x="364" y="63" type="line"/>
			<point x="471" y="122" type="line"/>
		</contour>
		<contour>
			<point x="714" y="534" type="line"/>
			<point x="693" y="463" type="line"/>
			<point x="1143" y="883" type="line"/>
			<point x="1069" y="981" type="line"/>
			<point x="563" y="594" type="line"/>
			<point x="519" y="450" type="line"/>
			<point x="804" y="63" type="line"/>
			<point x="911" y="122" type="line"/>
		</contour>
	</outline>
</glyph>
<glyph name="logicalnot" format="2">
	<unicode hex="00AC"/>
	<advance width="1200"/>
	<outline>
		<contour>
			<point x="244" y="772" type="line"/>
			<point x="206" y="647" type="line"/>
			<point x="930" y="647" type="line"/>
			<point x="807" y="247" type="line"/>
			<point x="929" y="247" type="line"/>
			<point x="1089" y="772" type="line"/>
		</contour>
	</outline>
</glyph>
<glyph name="registered" format="2">
	<unicode hex="00AE"/>
	<advance width="1186"/>
	<outline>
		<contour>
			<point x="944" y="857" type="line"/>
			<point x="909" y="857"/>
			<point x="905" y="858"/>
			<point x="902" y="896" type="curve" smooth="yes"/>
			<point x="898" y="944" type="line" smooth="yes"/>
			<point x="894" y="989"/>
			<point x="883" y="1012"/>
			<point x="831" y="1016" type="curve"/>
			<point x="828" y="1014" type="line"/>
			<point x="932" y="1022"/>
			<point x="976" y="1072"/>
			<point x="976" y="1144" type="curve" smooth="yes"/>
			<point x="976" y="1202"/>
			<point x="939" y="1231"/>
			<point x="840" y="1231" type="curve" smooth="yes"/>
			<point x="679" y="1231" type="line"/>
			<point x="663" y="1161" type="line"/>
			<point x="793" y="1161" type="line" smooth="yes"/>
			<point x="841" y="1161"/>
			<point x="856" y="1150"/>
			<point x="856" y="1124" type="curve" smooth="yes"/>
			<point x="856" y="1072"/>
			<point x="827" y="1042"/>
			<point x="765" y="1042" type="curve" smooth="yes"/>
			<point x="626" y="1042" type="line"/>
			<point x="615" y="987" type="line"/>
			<point x="742" y="987" type="line" smooth="yes"/>
			<point x="785" y="987"/>
			<point x="788" y="981"/>
			<point x="789" y="941" type="curve" smooth="yes"/>
			<point x="790" y="871" type="line" smooth="yes"/>
			<point x="791.3157894737" y="809.1578947368"/>
			<point x="815" y="797"/>
			<point x="929" y="809" type="curve"/>
		</contour>
		<contour>
			<point x="750" y="1231" type="line"/>
			<point x="576" y="1231" type="line"/>
			<point x="564" y="1193" type="line"/>
			<point x="617" y="1183" type="line"/>
			<point x="518" y="857" type="line"/>
			<point x="458" y="846" type="line"/>
			<point x="447" y="809" type="line"/>
			<point x="671" y="809" type="line"/>
			<point x="682" y="846" type="line"/>
			<point x="636" y="857" type="line"/>
		</contour>
		<contour>
			<point x="709" y="664" type="curve" smooth="yes"/>
			<point x="464" y="664"/>
			<point x="365" y="759"/>
			<point x="365" y="921" type="curve" smooth="yes"/>
			<point x="365" y="1130"/>
			<point x="469" y="1350"/>
			<point x="768" y="1350" type="curve" smooth="yes"/>
			<point x="1013" y="1350"/>
			<point x="1112" y="1255"/>
			<point x="1112" y="1093" type="curve" smooth="yes"/>
			<point x="1112" y="884"/>
			<point x="1008" y="664"/>
		</contour>
		<contour>
			<point x="781" y="1434" type="curve" smooth="yes"/>
			<point x="439" y="1434"/>
			<point x="271" y="1188"/>
			<point x="271" y="918" type="curve" smooth="yes"/>
			<point x="271" y="702"/>
			<point x="413" y="580"/>
			<point x="696" y="580" type="curve" smooth="yes"/>
			<point x="1038" y="580"/>
			<point x="1206" y="826"/>
			<point x="1206" y="1095" type="curve" smooth="yes"/>
			<point x="1206" y="1311"/>
			<point x="1064" y="1434"/>
		</contour>
	</outline>
</glyph>
<glyph name="degree" format="2">
	<unicode hex="00B0"/>
	<advance width="806"/>
	<outline>
		<contour>
			<point x="623" y="1434" type="curve" smooth="yes"/>
			<point x="421" y="1434"/>
			<point x="282" y="1277"/>
			<point x="282" y="1093" type="curve" smooth="yes"/>
			<point x="282" y="947"/>
			<point x="388" y="846"/>
			<point x="549" y="846" type="curve" smooth="yes"/>
			<point x="751" y="846"/>
			<point x="890" y="1003"/>
			<point x="890" y="1187" type="curve" smooth="yes"/>
			<point x="890" y="1333"/>
			<point x="784" y="1434"/>
		</contour>
		<contour>
			<point x="560" y="933" type="curve" smooth="yes"/>
			<point x="449" y="933"/>
			<point x="378" y="999"/>
			<point x="378" y="1103" type="curve" smooth="yes"/>
			<point x="378" y="1236"/>
			<point x="471" y="1347"/>
			<point x="611" y="1347" type="curve" smooth="yes"/>
			<point x="723" y="1347"/>
			<point x="794" y="1281"/>
			<point x="794" y="1177" type="curve" smooth="yes"/>
			<point x="794" y="1044"/>
			<point x="701" y="933"/>
		</contour>
	</outline>
</glyph>
<glyph name="plusminus" format="2">
	<unicode hex="00B1"/>
	<advance width="1200"/>
	<outline>
		<contour>
			<point x="696" y="1030" type="line"/>
			<point x="435" y="179" type="line"/>
			<point x="557" y="179" type="line"/>
			<point x="818" y="1030" type="line"/>
		</contour>
		<contour>
			<point x="227" y="667" type="line"/>
			<point x="189" y="542" type="line"/>
			<point x="1026" y="542" type="line"/>
			<point x="1064" y="667" type="line"/>
		</contour>
		<contour>
			<point x="62" y="125" type="line"/>
			<point x="23" y="0" type="line"/>
			<point x="860" y="0" type="line"/>
			<point x="899" y="125" type="line"/>
		</contour>
	</outline>
</glyph>
<glyph name="uni00B2" format="2">
	<unicode hex="00B2"/>
	<advance width="794"/>
	<outline>
		<contour>
			<point x="595" y="742" type="line"/>
			<point x="758" y="810" type="line"/>
			<point x="322" y="810" type="line"/>
			<point x="324" y="757" type="line"/>
			<point x="582" y="917" type="line" smooth="yes"/>
			<point x="811" y="1059"/>
			<point x="849" y="1147"/>
			<point x="849" y="1253" type="curve" smooth="yes"/>
			<point x="849" y="1369"/>
			<point x="756" y="1432"/>
			<point x="612" y="1432" type="curve" smooth="yes"/>
			<point x="437" y="1432"/>
			<point x="337" y="1360"/>
			<point x="272" y="1172" type="curve"/>
			<point x="357" y="1137" type="line"/>
			<point x="403" y="1250"/>
			<point x="455" y="1302"/>
			<point x="550" y="1302" type="curve" smooth="yes"/>
			<point x="627" y="1302"/>
			<point x="671" y="1262"/>
			<point x="671" y="1200" type="curve" smooth="yes"/>
			<point x="671" y="1133"/>
			<point x="639" y="1082"/>
			<point x="466" y="957" type="curve" smooth="yes"/>
			<point x="215" y="766" type="line"/>
			<point x="182" y="662" type="line"/>
			<point x="635" y="662" type="line"/>
			<point x="646" y="626" type="line"/>
			<point x="703" y="626" type="line"/>
			<point x="842" y="909" type="line"/>
			<point x="753" y="909" type="line"/>
		</contour>
	</outline>
</glyph>
<glyph name="uni00B3" format="2">
	<unicode hex="00B3"/>
	<advance width="758"/>
	<outline>
		<contour>
			<point x="437" y="997" type="line"/>
			<point x="480" y="1001" type="line" smooth="yes"/>
			<point x="596" y="1012"/>
			<point x="626" y="983"/>
			<point x="626" y="919" type="curve" smooth="yes"/>
			<point x="626" y="819"/>
			<point x="552" y="746"/>
			<point x="411" y="746" type="curve" smooth="yes"/>
			<point x="297" y="746"/>
			<point x="257" y="837"/>
			<point x="245" y="837" type="curve" smooth="yes"/>
			<point x="196" y="837"/>
			<point x="168" y="801"/>
			<point x="168" y="754" type="curve" smooth="yes"/>
			<point x="168" y="705"/>
			<point x="216" y="652"/>
			<point x="379" y="652" type="curve" smooth="yes"/>
			<point x="656" y="652"/>
			<point x="793" y="775"/>
			<point x="793" y="940" type="curve" smooth="yes"/>
			<point x="793" y="1033"/>
			<point x="730" y="1097"/>
			<point x="603" y="1093" type="curve"/>
			<point x="603" y="1089" type="line"/>
			<point x="756" y="1106"/>
			<point x="827" y="1181"/>
			<point x="827" y="1283" type="curve" smooth="yes"/>
			<point x="827" y="1379"/>
			<point x="761" y="1428"/>
			<point x="622" y="1428" type="curve" smooth="yes"/>
			<point x="431" y="1428"/>
			<point x="353" y="1345"/>
			<point x="300" y="1218" type="curve"/>
			<point x="373" y="1181" type="line"/>
			<point x="419" y="1273"/>
			<point x="471" y="1304"/>
			<point x="555" y="1304" type="curve" smooth="yes"/>
			<point x="625" y="1304"/>
			<point x="665" y="1282"/>
			<point x="665" y="1226" type="curve" smooth="yes"/>
			<point x="665" y="1151"/>
			<point x="623" y="1095"/>
			<point x="452" y="1076" type="curve"/>
		</contour>
	</outline>
</glyph>
<glyph name="uni00B5" format="2">
	<unicode hex="00B5"/>
	<advance width="1410"/>
	<outline>
		<contour>
			<point x="876" y="578" type="line" smooth="yes"/>
			<point x="727" y="193"/>
			<point x="560" y="130"/>
			<point x="456" y="130" type="curve" smooth="yes"/>
			<point x="379" y="130"/>
			<point x="346" y="166"/>
			<point x="346" y="215" type="curve" smooth="yes"/>
			<point x="346" y="242"/>
			<point x="355" y="277"/>
			<point x="367" y="318" type="curve" smooth="yes"/>
			<point x="582" y="1024" type="line"/>
			<point x="389" y="1024" type="line"/>
			<point x="-63" y="-455" type="line"/>
			<point x="-23" y="-455" type="line"/>
			<point x="145" y="-441" type="line"/>
			<point x="208" y="150" type="line"/>
			<point x="190" y="150" type="line"/>
			<point x="192" y="50"/>
			<point x="264" y="-20"/>
			<point x="394" y="-20" type="curve" smooth="yes"/>
			<point x="571" y="-20"/>
			<point x="669" y="38"/>
			<point x="910" y="468" type="curve"/>
			<point x="941" y="468" type="line"/>
			<point x="811" y="90" type="line" smooth="yes"/>
			<point x="785" y="14"/>
			<point x="810" y="-20"/>
			<point x="888" y="-20" type="curve" smooth="yes"/>
			<point x="964" y="-20"/>
			<point x="1103" y="15"/>
			<point x="1313" y="184" type="curve"/>
			<point x="1270" y="256" type="line"/>
			<point x="1118" y="157"/>
			<point x="981" y="130"/>
			<point x="888" y="141" type="curve"/>
			<point x="932" y="76" type="line"/>
			<point x="1242" y="1024" type="line"/>
			<point x="1049" y="1024" type="line"/>
		</contour>
	</outline>
</glyph>
<glyph name="paragraph" format="2">
	<unicode hex="00B6"/>
	<advance width="1327"/>
	<outline>
		<contour>
			<point x="509" y="-222" type="line"/>
			<point x="974" y="1298" type="line"/>
			<point x="1205" y="1298" type="line"/>
			<point x="1240" y="1414" type="line"/>
			<point x="885" y="1414" type="line"/>
			<point x="384" y="-222" type="line"/>
		</contour>
		<contour>
			<point x="812" y="-222" type="line"/>
			<point x="1276" y="1297" type="line"/>
			<point x="1479" y="1323" type="line"/>
			<point x="1507" y="1414" type="line"/>
			<point x="1188" y="1414" type="line"/>
			<point x="688" y="-222" type="line"/>
		</contour>
		<contour>
			<point x="954" y="1414" type="line"/>
			<point x="683" y="1414" type="line" smooth="yes"/>
			<point x="335" y="1414"/>
			<point x="223" y="1182"/>
			<point x="223" y="952" type="curve" smooth="yes"/>
			<point x="223" y="804"/>
			<point x="312" y="737"/>
			<point x="496" y="737" type="curve" smooth="yes"/>
			<point x="747" y="737" type="line"/>
		</contour>
	</outline>
</glyph>
<glyph name="uni00B9" format="2">
	<unicode hex="00B9"/>
	<advance width="676"/>
	<outline>
		<contour>
			<point x="359" y="765" type="line"/>
			<point x="209" y="734" type="line"/>
			<point x="188" y="662" type="line"/>
			<point x="657" y="662" type="line"/>
			<point x="678" y="734" type="line"/>
			<point x="535" y="765" type="line"/>
			<point x="733" y="1414" type="line"/>
			<point x="614" y="1414" type="line"/>
			<point x="277" y="1278" type="line"/>
			<point x="299" y="1186" type="line"/>
			<point x="581" y="1264" type="line"/>
			<point x="537" y="1348" type="line"/>
		</contour>
	</outline>
</glyph>
<glyph name="ordmasculine" format="2">
	<unicode hex="00BA"/>
	<advance width="990"/>
	<outline>
		<contour>
			<point x="154" y="510" type="line"/>
			<point x="811" y="510" type="line"/>
			<point x="853" y="647" type="line"/>
			<point x="196" y="647" type="line"/>
		</contour>
		<contour>
			<point x="765" y="1434" type="curve" smooth="yes"/>
			<point x="474" y="1434"/>
			<point x="324" y="1212"/>
			<point x="324" y="996" type="curve" smooth="yes"/>
			<point x="324" y="853"/>
			<point x="420" y="769"/>
			<point x="600" y="769" type="curve" smooth="yes"/>
			<point x="891" y="769"/>
			<point x="1042" y="991"/>
			<point x="1042" y="1207" type="curve" smooth="yes"/>
			<point x="1042" y="1351"/>
			<point x="945" y="1434"/>
		</contour>
		<contour>
			<point x="620" y="883" type="curve" smooth="yes"/>
			<point x="538" y="883"/>
			<point x="485" y="922.7851851852"/>
			<point x="485" y="1014" type="curve" smooth="yes"/>
			<point x="485" y="1162.0707395498"/>
			<point x="578" y="1321"/>
			<point x="746" y="1321" type="curve" smooth="yes"/>
			<point x="828" y="1321"/>
			<point x="880" y="1280.2352941176"/>
			<point x="880" y="1189" type="curve" smooth="yes"/>
			<point x="880" y="1040.935483871"/>
			<point x="788" y="883"/>
		</contour>
	</outline>
</glyph>
<glyph name="guillemotright" format="2">
  <advance width="1164"/>
  <unicode hex="00BB"/>
  <outline>
    <contour>
      <point x="434.0" y="510.0" type="line"/>
      <point x="455.0" y="581.0" type="line"/>
      <point x="5.0" y="161.0" type="line"/>
      <point x="79.0" y="63.0" type="line"/>
      <point x="585.0" y="450.0" type="line"/>
      <point x="629.0" y="594.0" type="line"/>
      <point x="344.0" y="981.0" type="line"/>
      <point x="237.0" y="922.0" type="line"/>
    </contour>
    <contour>
      <point x="874.0" y="510.0" type="line"/>
      <point x="895.0" y="581.0" type="line"/>
      <point x="445.0" y="161.0" type="line"/>
      <point x="519.0" y="63.0" type="line"/>
      <point x="1025.0" y="450.0" type="line"/>
      <point x="1069.0" y="594.0" type="line"/>
      <point x="784.0" y="981.0" type="line"/>
      <point x="677.0" y="922.0" type="line"/>
    </contour>
  </outline>
</glyph>
<glyph name="questiondown" format="2">
	<unicode hex="00BF"/>
	<advance width="1121"/>
	<outline>
		<contour>
			<point x="662" y="763" type="curve" smooth="yes"/>
			<point x="783" y="763"/>
			<point x="847" y="846"/>
			<point x="847" y="943" type="curve" smooth="yes"/>
			<point x="847" y="1007"/>
			<point x="808" y="1042"/>
			<point x="736" y="1042" type="curve" smooth="yes"/>
			<point x="615" y="1042"/>
			<point x="551" y="959"/>
			<point x="551" y="863" type="curve" smooth="yes"/>
			<point x="551" y="798"/>
			<point x="590" y="763"/>
		</contour>
		<contour>
			<point x="467" y="-410" type="curve" smooth="yes"/>
			<point x="744" y="-410"/>
			<point x="829" y="-334"/>
			<point x="829" y="-248" type="curve" smooth="yes"/>
			<point x="829" y="-196"/>
			<point x="789" y="-161"/>
			<point x="730" y="-161" type="curve" smooth="yes"/>
			<point x="691" y="-161"/>
			<point x="636" y="-297"/>
			<point x="438" y="-297" type="curve" smooth="yes"/>
			<point x="242" y="-297"/>
			<point x="145" y="-171"/>
			<point x="145" y="-22" type="curve" smooth="yes"/>
			<point x="145" y="165"/>
			<point x="240" y="247"/>
			<point x="606" y="221" type="curve"/>
			<point x="686" y="589" type="line"/>
			<point x="571" y="589" type="line"/>
			<point x="460" y="297" type="line"/>
			<point x="550" y="384" type="line"/>
			<point x="126" y="405"/>
			<point x="-26" y="258"/>
			<point x="-26" y="1" type="curve" smooth="yes"/>
			<point x="-26" y="-251"/>
			<point x="200" y="-410"/>
		</contour>
	</outline>
</glyph>
<glyph name="AE" format="2">
	<unicode hex="00C6"/>
	<advance width="2194"/>
	<outline>
		<contour>
			<point x="256" y="145" type="line"/>
			<point x="1268" y="1269" type="line"/>
			<point x="1277" y="1269" type="line"/>
			<point x="933" y="145" type="line"/>
			<point x="741" y="100" type="line"/>
			<point x="710" y="0" type="line"/>
			<point x="1096" y="0" type="line"/>
			<point x="1528" y="1414" type="line"/>
			<point x="900" y="1414" type="line"/>
			<point x="869" y="1314" type="line"/>
			<point x="1077" y="1271" type="line"/>
			<point x="57" y="145" type="line"/>
			<point x="-116" y="100" type="line"/>
			<point x="-147" y="0" type="line"/>
			<point x="389" y="0" type="line"/>
			<point x="419" y="100" type="line"/>
		</contour>
		<contour>
			<point x="1712" y="-72" type="line"/>
			<point x="1833" y="-72" type="line"/>
			<point x="2097" y="422" type="line"/>
			<point x="1962" y="422" type="line"/>
			<point x="1652" y="72" type="line"/>
			<point x="1768" y="146" type="line"/>
			<point x="1025" y="146" type="line"/>
			<point x="977" y="0" type="line"/>
			<point x="1674" y="0" type="line"/>
		</contour>
		<contour>
			<point x="456" y="494" type="line"/>
			<point x="1068" y="494" type="line"/>
			<point x="1116" y="640" type="line"/>
			<point x="503" y="640" type="line"/>
		</contour>
		<contour>
			<point x="1610" y="480" type="line"/>
			<point x="1734" y="480" type="line"/>
			<point x="1812" y="735" type="line"/>
			<point x="1890" y="990" type="line"/>
			<point x="1766" y="990" type="line"/>
			<point x="1695" y="810" type="line"/>
			<point x="1225" y="810" type="line"/>
			<point x="1179" y="664" type="line"/>
			<point x="1650" y="664" type="line"/>
		</contour>
		<contour>
			<point x="2062" y="1042" type="line"/>
			<point x="2195" y="1042" type="line"/>
			<point x="2330" y="1484" type="line"/>
			<point x="2225" y="1484" type="line"/>
			<point x="2123" y="1414" type="line"/>
			<point x="1409" y="1414" type="line"/>
			<point x="1361" y="1268" type="line"/>
			<point x="2126" y="1268" type="line"/>
			<point x="2082" y="1342" type="line"/>
		</contour>
	</outline>
	<anchor name="UCtop" x="1417" y="1414"/>
	<anchor name="bottom" x="984" y="0"/>
</glyph>
<glyph name="Ccedilla" format="2">
  <advance width="1515.0"/>
  <unicode hex="00C7"/>
  <outline>
    <contour>
      <point x="1208.0" y="206.0" type="line"/>
      <point x="1088.0" y="162.0"/>
      <point x="955.0" y="131.0"/>
      <point x="832.0" y="131.0" type="curve" smooth="yes"/>
      <point x="551.0" y="131.0"/>
      <point x="389.0" y="273.0"/>
      <point x="389.0" y="558.0" type="curve" smooth="yes"/>
      <point x="389.0" y="960.0"/>
      <point x="602.0" y="1278.0"/>
      <point x="1087.0" y="1278.0" type="curve" smooth="yes"/>
      <point x="1206.0" y="1278.0"/>
      <point x="1301.0" y="1262.0"/>
      <point x="1395.0" y="1204.0" type="curve"/>
      <point x="1376.0" y="1276.0" type="line"/>
      <point x="1350.0" y="960.0" type="line"/>
      <point x="1493.0" y="960.0" type="line"/>
      <point x="1653.0" y="1484.0" type="line"/>
      <point x="1542.0" y="1484.0" type="line"/>
      <point x="1418.0" y="1371.0" type="line"/>
      <point x="1474.0" y="1374.0" type="line"/>
      <point x="1380.0" y="1409.0"/>
      <point x="1266.0" y="1434.0"/>
      <point x="1129.0" y="1434.0" type="curve" smooth="yes"/>
      <point x="512.0" y="1434.0"/>
      <point x="172.0" y="1057.0"/>
      <point x="172.0" y="543.0" type="curve" smooth="yes"/>
      <point x="172.0" y="191.0"/>
      <point x="369.0" y="-20.0"/>
      <point x="785.0" y="-20.0" type="curve" smooth="yes"/>
      <point x="964.0" y="-20.0"/>
      <point x="1121.0" y="10.0"/>
      <point x="1237.0" y="57.0" type="curve"/>
      <point x="1391.0" y="434.0" type="line"/>
      <point x="1246.0" y="434.0" type="line"/>
      <point x="1000.0" y="90.0" type="line"/>
    </contour>
    <contour>
      <point x="563.0" y="-399.0" type="curve" smooth="yes"/>
      <point x="495.0" y="-399.0"/>
      <point x="464.0" y="-345.0"/>
      <point x="449.0" y="-345.0" type="curve" smooth="yes"/>
      <point x="419.0" y="-345.0"/>
      <point x="398.0" y="-371.0"/>
      <point x="398.0" y="-401.0" type="curve" smooth="yes"/>
      <point x="398.0" y="-441.0"/>
      <point x="430.0" y="-465.0"/>
      <point x="532.0" y="-465.0" type="curve" smooth="yes"/>
      <point x="727.0" y="-465.0"/>
      <point x="817.0" y="-372.0"/>
      <point x="817.0" y="-256.0" type="curve" smooth="yes"/>
      <point x="817.0" y="-189.0"/>
      <point x="770.0" y="-138.0"/>
      <point x="623.0" y="-107.0" type="curve"/>
      <point x="620.0" y="-168.0" type="line"/>
      <point x="810.0" y="19.0" type="line"/>
      <point x="716.0" y="19.0" type="line"/>
      <point x="515.0" y="-183.0" type="line"/>
      <point x="509.0" y="-203.0" type="line"/>
      <point x="648.0" y="-227.0"/>
      <point x="688.0" y="-256.0"/>
      <point x="688.0" y="-298.0" type="curve" smooth="yes"/>
      <point x="688.0" y="-358.0"/>
      <point x="643.0" y="-399.0"/>
    </contour>
  </outline>
</glyph>
<glyph name="multiply" format="2">
	<unicode hex="00D7"/>
	<advance width="1200"/>
	<outline>
		<contour>
			<point x="136" y="236" type="line"/>
			<point x="199" y="138" type="line"/>
			<point x="1062" y="794" type="line"/>
			<point x="999" y="892" type="line"/>
		</contour>
		<contour>
			<point x="326" y="821" type="line"/>
			<point x="769" y="138" type="line"/>
			<point x="873" y="207" type="line"/>
			<point x="430" y="892" type="line"/>
		</contour>
	</outline>
</glyph>
<glyph name="Oslash" format="2">
	<unicode hex="00D8"/>
	<advance width="1666"/>
	<outline>
		<contour>
			<point x="1810" y="1414" type="line"/>
			<point x="1608" y="1414" type="line"/>
			<point x="1415" y="1249" type="line"/>
			<point x="1360" y="1198" type="line"/>
			<point x="344" y="314" type="line"/>
			<point x="277" y="262" type="line"/>
			<point x="-28" y="0" type="line"/>
			<point x="174" y="0" type="line"/>
			<point x="367" y="165" type="line"/>
			<point x="422" y="216" type="line"/>
			<point x="1438" y="1100" type="line"/>
			<point x="1505" y="1152" type="line"/>
		</contour>
		<contour>
			<point x="386" y="517" type="curve" smooth="yes"/>
			<point x="386" y="918"/>
			<point x="625" y="1277"/>
			<point x="1017" y="1277" type="curve" smooth="yes"/>
			<point x="1278" y="1277"/>
			<point x="1396" y="1129"/>
			<point x="1396" y="897" type="curve" smooth="yes"/>
			<point x="1396" y="496"/>
			<point x="1157" y="137"/>
			<point x="765" y="137" type="curve" smooth="yes"/>
			<point x="504" y="137"/>
			<point x="386" y="285"/>
		</contour>
		<contour>
			<point x="1609" y="900" type="curve" smooth="yes"/>
			<point x="1609" y="1223"/>
			<point x="1405" y="1434"/>
			<point x="1024" y="1434" type="curve" smooth="yes"/>
			<point x="540" y="1434"/>
			<point x="173" y="998"/>
			<point x="173" y="514" type="curve" smooth="yes"/>
			<point x="173" y="191"/>
			<point x="377" y="-20"/>
			<point x="758" y="-20" type="curve" smooth="yes"/>
			<point x="1242" y="-20"/>
			<point x="1609" y="416"/>
		</contour>
	</outline>
	<anchor name="UCtop" x="1098" y="1414"/>
	<anchor name="bottom" x="658" y="0"/>
</glyph>
<glyph name="Thorn" format="2">
	<unicode hex="00DE"/>
	<advance width="1369"/>
	<outline>
		<contour>
			<point x="747" y="431" type="curve" smooth="yes"/>
			<point x="323" y="431" type="line"/>
			<point x="274" y="285" type="line"/>
			<point x="713" y="285" type="line" smooth="yes"/>
			<point x="1129" y="285"/>
			<point x="1328" y="497"/>
			<point x="1328" y="808" type="curve" smooth="yes"/>
			<point x="1328" y="1016"/>
			<point x="1195" y="1131"/>
			<point x="887" y="1131" type="curve" smooth="yes"/>
			<point x="534" y="1131" type="line"/>
			<point x="486" y="985" type="line"/>
			<point x="821" y="985" type="line" smooth="yes"/>
			<point x="1045" y="985"/>
			<point x="1120" y="914"/>
			<point x="1120" y="795" type="curve" smooth="yes"/>
			<point x="1120" y="573"/>
			<point x="999" y="431"/>
		</contour>
		<contour>
			<point x="526" y="1269" type="line"/>
			<point x="182" y="145" type="line"/>
			<point x="-10" y="100" type="line"/>
			<point x="-41" y="0" type="line"/>
			<point x="539" y="0" type="line"/>
			<point x="569" y="100" type="line"/>
			<point x="389" y="145" type="line"/>
			<point x="733" y="1269" type="line"/>
			<point x="925" y="1314" type="line"/>
			<point x="955" y="1414" type="line"/>
			<point x="376" y="1414" type="line"/>
			<point x="345" y="1314" type="line"/>
		</contour>
	</outline>
</glyph>
<glyph name="germandbls" format="2">
	<unicode hex="00DF"/>
	<advance width="1468"/>
	<outline>
		<contour>
			<point x="145" y="906" type="line"/>
			<point x="508" y="906" type="line"/>
			<point x="508" y="1024" type="line"/>
			<point x="145" y="1024" type="line"/>
		</contour>
		<contour>
			<point x="442" y="215" type="curve" smooth="yes"/>
			<point x="617" y="1070" type="line" smooth="yes"/>
			<point x="663" y="1294"/>
			<point x="748" y="1389"/>
			<point x="957" y="1389" type="curve" smooth="yes"/>
			<point x="1103" y="1389"/>
			<point x="1157" y="1337"/>
			<point x="1157" y="1238" type="curve" smooth="yes"/>
			<point x="1157" y="1157"/>
			<point x="1124" y="1091"/>
			<point x="987" y="997" type="curve" smooth="yes"/>
			<point x="850" y="903"/>
			<point x="814" y="826"/>
			<point x="814" y="734" type="curve" smooth="yes"/>
			<point x="814" y="640"/>
			<point x="853" y="576"/>
			<point x="990" y="489" type="curve" smooth="yes"/>
			<point x="1127" y="402"/>
			<point x="1153" y="353"/>
			<point x="1153" y="282" type="curve" smooth="yes"/>
			<point x="1153" y="160"/>
			<point x="1061" y="91"/>
			<point x="932" y="91" type="curve" smooth="yes"/>
			<point x="889" y="91"/>
			<point x="861" y="95"/>
			<point x="841" y="120" type="curve" smooth="yes"/>
			<point x="821" y="145"/>
			<point x="804" y="194"/>
			<point x="790" y="302" type="curve"/>
			<point x="646" y="302"/>
			<point x="595" y="256"/>
			<point x="595" y="160" type="curve" smooth="yes"/>
			<point x="595" y="59"/>
			<point x="676" y="-20"/>
			<point x="892" y="-20" type="curve" smooth="yes"/>
			<point x="1137" y="-20"/>
			<point x="1307" y="108"/>
			<point x="1307" y="329" type="curve" smooth="yes"/>
			<point x="1307" y="437"/>
			<point x="1265" y="522"/>
			<point x="1133" y="610" type="curve" smooth="yes"/>
			<point x="1001" y="698"/>
			<point x="980" y="737"/>
			<point x="980" y="789" type="curve" smooth="yes"/>
			<point x="980" y="855"/>
			<point x="1016" y="902"/>
			<point x="1149" y="985" type="curve" smooth="yes"/>
			<point x="1282" y="1068"/>
			<point x="1335" y="1149"/>
			<point x="1335" y="1258" type="curve" smooth="yes"/>
			<point x="1335" y="1396"/>
			<point x="1230" y="1484"/>
			<point x="957" y="1484" type="curve" smooth="yes"/>
			<point x="650" y="1484"/>
			<point x="486" y="1327"/>
			<point x="423" y="998" type="curve" smooth="yes"/>
			<point x="245" y="65" type="line" smooth="yes"/>
			<point x="184" y="-253"/>
			<point x="81" y="-356"/>
			<point x="-34" y="-356" type="curve" smooth="yes"/>
			<point x="-74" y="-356"/>
			<point x="-100" y="-350"/>
			<point x="-117" y="-326" type="curve" smooth="yes"/>
			<point x="-134" y="-302"/>
			<point x="-143" y="-259"/>
			<point x="-151" y="-184" type="curve"/>
			<point x="-270" y="-184"/>
			<point x="-320" y="-227"/>
			<point x="-320" y="-312" type="curve" smooth="yes"/>
			<point x="-320" y="-405"/>
			<point x="-253" y="-465"/>
			<point x="-119" y="-465" type="curve" smooth="yes"/>
			<point x="158" y="-465"/>
			<point x="349" y="-241"/>
		</contour>
	</outline>
</glyph>
<glyph name="ae" format="2">
	<unicode hex="00E6"/>
	<advance width="1831"/>
	<outline>
		<contour>
			<point x="1179" y="886" type="line"/>
			<point x="1198" y="1024" type="line"/>
			<point x="1074" y="1024" type="line"/>
			<point x="983" y="843" type="line"/>
			<point x="952" y="760" type="line" smooth="yes"/>
			<point x="836" y="451"/>
			<point x="541" y="118"/>
			<point x="383" y="118" type="curve" smooth="yes"/>
			<point x="291" y="118"/>
			<point x="232" y="166"/>
			<point x="232" y="263" type="curve" smooth="yes"/>
			<point x="232" y="506"/>
			<point x="469" y="926"/>
			<point x="763" y="926" type="curve" smooth="yes"/>
			<point x="854" y="926"/>
			<point x="933" y="886"/>
			<point x="990" y="771" type="curve"/>
			<point x="993" y="833" type="line"/>
			<point x="962" y="967"/>
			<point x="879" y="1044"/>
			<point x="741" y="1044" type="curve" smooth="yes"/>
			<point x="348" y="1044"/>
			<point x="43" y="550"/>
			<point x="43" y="227" type="curve" smooth="yes"/>
			<point x="43" y="67"/>
			<point x="153" y="-20"/>
			<point x="311" y="-20" type="curve" smooth="yes"/>
			<point x="455" y="-20"/>
			<point x="601" y="60"/>
			<point x="892" y="497" type="curve"/>
			<point x="917" y="497" type="line"/>
			<point x="808" y="152"/>
			<point x="919" y="-20"/>
			<point x="1205" y="-20" type="curve" smooth="yes"/>
			<point x="1390" y="-20"/>
			<point x="1562" y="69"/>
			<point x="1694" y="339" type="curve"/>
			<point x="1591" y="339" type="line"/>
			<point x="1497" y="188"/>
			<point x="1379" y="128"/>
			<point x="1249" y="128" type="curve" smooth="yes"/>
			<point x="1107" y="128"/>
			<point x="1044" y="185"/>
			<point x="1044" y="371" type="curve" smooth="yes"/>
			<point x="1044" y="709"/>
			<point x="1237" y="925"/>
			<point x="1452" y="925" type="curve" smooth="yes"/>
			<point x="1553" y="925"/>
			<point x="1606" y="868"/>
			<point x="1606" y="779" type="curve" smooth="yes"/>
			<point x="1606" y="673"/>
			<point x="1593" y="640"/>
			<point x="1033" y="553" type="curve"/>
			<point x="1026" y="454" type="line"/>
			<point x="1237" y="476"/>
			<point x="1491" y="520"/>
			<point x="1726" y="588" type="curve"/>
			<point x="1761" y="643"/>
			<point x="1784" y="721"/>
			<point x="1784" y="790" type="curve" smooth="yes"/>
			<point x="1784" y="932"/>
			<point x="1712" y="1044"/>
			<point x="1521" y="1044" type="curve" smooth="yes"/>
			<point x="1380" y="1044"/>
			<point x="1249" y="986"/>
			<point x="1147" y="886" type="curve"/>
		</contour>
	</outline>
	<anchor name="top" x="1070" y="1024"/>
	<anchor name="bottom" x="756" y="0"/>
</glyph>
<glyph name="ccedilla" format="2">
  <advance width="1026"/>
  <unicode hex="00E7"/>
  <outline>
    <contour>
      <point x="233.0" y="-465.0" type="curve" smooth="yes"/>
      <point x="428.0" y="-465.0"/>
      <point x="518.0" y="-372.0"/>
      <point x="518.0" y="-256.0" type="curve" smooth="yes"/>
      <point x="518.0" y="-189.0"/>
      <point x="471.0" y="-138.0"/>
      <point x="324.0" y="-107.0" type="curve"/>
      <point x="321.0" y="-168.0" type="line"/>
      <point x="511.0" y="19.0" type="line"/>
      <point x="417.0" y="19.0" type="line"/>
      <point x="216.0" y="-183.0" type="line"/>
      <point x="210.0" y="-203.0" type="line"/>
      <point x="349.0" y="-227.0"/>
      <point x="389.0" y="-256.0"/>
      <point x="389.0" y="-298.0" type="curve" smooth="yes"/>
      <point x="389.0" y="-358.0"/>
      <point x="344.0" y="-399.0"/>
      <point x="264.0" y="-399.0" type="curve" smooth="yes"/>
      <point x="196.0" y="-399.0"/>
      <point x="165.0" y="-345.0"/>
      <point x="150.0" y="-345.0" type="curve" smooth="yes"/>
      <point x="120.0" y="-345.0"/>
      <point x="99.0" y="-371.0"/>
      <point x="99.0" y="-401.0" type="curve" smooth="yes"/>
      <point x="99.0" y="-441.0"/>
      <point x="131.0" y="-465.0"/>
    </contour>
    <contour>
      <point x="672" y="930" type="curve" smooth="yes"/>
      <point x="700.0" y="930.0"/>
      <point x="737.0" y="900.0"/>
      <point x="782" y="838" type="curve" smooth="yes"/>
      <point x="827" y="776"/>
      <point x="861" y="747"/>
      <point x="886" y="747" type="curve" smooth="yes"/>
      <point x="945" y="747"/>
      <point x="1011" y="805"/>
      <point x="1011" y="874" type="curve" smooth="yes"/>
      <point x="1011" y="971"/>
      <point x="904" y="1044"/>
      <point x="717" y="1044" type="curve" smooth="yes"/>
      <point x="350" y="1044"/>
      <point x="82" y="727"/>
      <point x="82" y="327" type="curve" smooth="yes"/>
      <point x="82" y="92"/>
      <point x="204" y="-20"/>
      <point x="439" y="-20" type="curve" smooth="yes"/>
      <point x="667" y="-20"/>
      <point x="811" y="110"/>
      <point x="918" y="339" type="curve"/>
      <point x="815" y="339" type="line"/>
      <point x="724" y="184"/>
      <point x="613" y="128"/>
      <point x="483" y="128" type="curve" smooth="yes"/>
      <point x="341" y="128"/>
      <point x="268" y="185"/>
      <point x="268" y="371" type="curve" smooth="yes"/>
      <point x="268" y="692"/>
      <point x="438" y="930"/>
    </contour>
  </outline>
</glyph>
<glyph name="eth" format="2">
	<unicode hex="00F0"/>
	<advance width="1165"/>
	<outline>
		<contour>
			<point x="921" y="724" type="line"/>
			<point x="916" y="883"/>
			<point x="824" y="1012"/>
			<point x="646" y="1012" type="curve" smooth="yes"/>
			<point x="335" y="1012"/>
			<point x="79" y="693"/>
			<point x="79" y="319" type="curve" smooth="yes"/>
			<point x="79" y="121"/>
			<point x="210" y="-20"/>
			<point x="458" y="-20" type="curve" smooth="yes"/>
			<point x="812" y="-20"/>
			<point x="1086" y="301"/>
			<point x="1086" y="783" type="curve" smooth="yes"/>
			<point x="1086" y="1159"/>
			<point x="930" y="1399"/>
			<point x="418" y="1484" type="curve"/>
			<point x="391" y="1381" type="line"/>
			<point x="772" y="1290"/>
			<point x="947" y="1143"/>
			<point x="906" y="724" type="curve"/>
		</contour>
		<contour>
			<point x="464" y="108" type="curve" smooth="yes"/>
			<point x="342" y="108"/>
			<point x="270" y="180.5050505051"/>
			<point x="270" y="302" type="curve" smooth="yes"/>
			<point x="270" y="605.9112627986"/>
			<point x="438" y="884"/>
			<point x="701" y="884" type="curve" smooth="yes"/>
			<point x="823" y="884"/>
			<point x="895" y="811.4949494949"/>
			<point x="895" y="690" type="curve" smooth="yes"/>
			<point x="895" y="386.0887372014"/>
			<point x="727" y="108"/>
		</contour>
		<contour>
			<point x="520" y="1053" type="line"/>
			<point x="1103" y="1386" type="line"/>
			<point x="1048" y="1484" type="line"/>
			<point x="465" y="1151" type="line"/>
		</contour>
	</outline>
</glyph>
<glyph name="divide" format="2">
	<unicode hex="00F7"/>
	<advance width="1200"/>
	<outline>
		<contour>
			<point x="200" y="577" type="line"/>
			<point x="162" y="453" type="line"/>
			<point x="999" y="453" type="line"/>
			<point x="1037" y="577" type="line"/>
		</contour>
		<contour>
			<point x="723" y="999" type="curve" smooth="yes"/>
			<point x="638" y="999"/>
			<point x="584" y="946"/>
			<point x="584" y="866" type="curve" smooth="yes"/>
			<point x="584" y="796"/>
			<point x="627" y="758"/>
			<point x="698" y="758" type="curve" smooth="yes"/>
			<point x="783" y="758"/>
			<point x="836" y="811"/>
			<point x="836" y="891" type="curve" smooth="yes"/>
			<point x="836" y="962"/>
			<point x="793" y="999"/>
		</contour>
		<contour>
			<point x="501" y="272" type="curve" smooth="yes"/>
			<point x="416" y="272"/>
			<point x="362" y="219"/>
			<point x="362" y="139" type="curve" smooth="yes"/>
			<point x="362" y="69"/>
			<point x="405" y="31"/>
			<point x="476" y="31" type="curve" smooth="yes"/>
			<point x="561" y="31"/>
			<point x="614" y="84"/>
			<point x="614" y="164" type="curve" smooth="yes"/>
			<point x="614" y="235"/>
			<point x="571" y="272"/>
		</contour>
	</outline>
</glyph>
<glyph name="oslash" format="2">
	<unicode hex="00F8"/>
	<advance width="1222"/>
	<outline>
		<contour>
			<point x="734" y="1044" type="curve" smooth="yes"/>
			<point x="382" y="1044"/>
			<point x="106" y="715"/>
			<point x="106" y="330" type="curve" smooth="yes"/>
			<point x="106" y="125"/>
			<point x="237" y="-20"/>
			<point x="485" y="-20" type="curve" smooth="yes"/>
			<point x="837" y="-20"/>
			<point x="1113" y="309"/>
			<point x="1113" y="694" type="curve" smooth="yes"/>
			<point x="1113" y="899"/>
			<point x="982" y="1044"/>
		</contour>
		<contour>
			<point x="491" y="108" type="curve" smooth="yes"/>
			<point x="369" y="108"/>
			<point x="297" y="184"/>
			<point x="297" y="312" type="curve" smooth="yes"/>
			<point x="297" y="627"/>
			<point x="465" y="916"/>
			<point x="728" y="916" type="curve" smooth="yes"/>
			<point x="850" y="916"/>
			<point x="922" y="840"/>
			<point x="922" y="712" type="curve" smooth="yes"/>
			<point x="922" y="397"/>
			<point x="754" y="108"/>
		</contour>
		<contour>
			<point x="1095" y="1024" type="line"/>
			<point x="950" y="894" type="line"/>
			<point x="915" y="862" type="line"/>
			<point x="209" y="225" type="line"/>
			<point x="168" y="193" type="line"/>
			<point x="-50" y="0" type="line"/>
			<point x="123" y="0" type="line"/>
			<point x="268" y="129" type="line"/>
			<point x="303" y="162" type="line"/>
			<point x="1010" y="799" type="line"/>
			<point x="1051" y="831" type="line"/>
			<point x="1268" y="1024" type="line"/>
		</contour>
	</outline>
	<anchor name="top" x="767" y="1024"/>
	<anchor name="bottom" x="443" y="0"/>
</glyph>
<glyph name="thorn" format="2">
	<unicode hex="00FE"/>
	<advance width="1216"/>
	<outline>
		<contour>
			<point x="295" y="287" type="curve" smooth="yes"/>
			<point x="339" y="445" type="line" smooth="yes"/>
			<point x="390" y="628"/>
			<point x="615" y="895"/>
			<point x="787" y="895" type="curve" smooth="yes"/>
			<point x="888" y="895"/>
			<point x="947" y="840"/>
			<point x="947" y="692" type="curve" smooth="yes"/>
			<point x="947" y="418"/>
			<point x="761" y="90"/>
			<point x="502" y="90" type="curve" smooth="yes"/>
			<point x="358" y="90"/>
			<point x="288" y="155"/>
			<point x="288" y="239" type="curve" smooth="yes"/>
			<point x="288" y="255"/>
			<point x="290" y="271"/>
		</contour>
		<contour>
			<point x="357" y="665" type="line"/>
			<point x="667" y="1484" type="line"/>
			<point x="625" y="1484" type="line"/>
			<point x="242" y="1415" type="line"/>
			<point x="226" y="1346" type="line"/>
			<point x="283" y="1323.2575757576"/>
			<point x="388" y="1281.3636363636"/>
			<point x="424" y="1267" type="curve"/>
			<point x="-57" y="-319" type="line"/>
			<point x="-215" y="-359" type="line"/>
			<point x="-241" y="-445" type="line"/>
			<point x="290" y="-445" type="line"/>
			<point x="317" y="-359" type="line"/>
			<point x="124" y="-319" type="line"/>
			<point x="266" y="151" type="line"/>
			<point x="220" y="151" type="line"/>
			<point x="237" y="41"/>
			<point x="345" y="-20"/>
			<point x="497" y="-20" type="curve" smooth="yes"/>
			<point x="861" y="-20"/>
			<point x="1144" y="350"/>
			<point x="1144" y="738" type="curve" smooth="yes"/>
			<point x="1144" y="919"/>
			<point x="1045" y="1044"/>
			<point x="863" y="1044" type="curve" smooth="yes"/>
			<point x="712" y="1044"/>
			<point x="553" y="937"/>
			<point x="380" y="665" type="curve"/>
		</contour>
	</outline>
</glyph>
<glyph name="Aogonek" format="2">
	<unicode hex="0104"/>
	<advance width="1570"/>
	<outline>
		<contour>
			<point x="416" y="474" type="line"/>
			<point x="1098" y="474" type="line"/>
			<point x="1146" y="620" type="line"/>
			<point x="463" y="620" type="line"/>
		</contour>
		<contour>
			<point x="1280" y="145" type="line"/>
			<point x="1175" y="1434" type="line"/>
			<point x="912" y="1434" type="line"/>
			<point x="79" y="145" type="line"/>
			<point x="-94" y="100" type="line"/>
			<point x="-125" y="0" type="line"/>
			<point x="399" y="0" type="line"/>
			<point x="429" y="100" type="line"/>
			<point x="266" y="145" type="line"/>
			<point x="1009" y="1336" type="line"/>
			<point x="981" y="1336" type="line"/>
			<point x="1066" y="145" type="line"/>
			<point x="876" y="100" type="line"/>
			<point x="845" y="0" type="line"/>
			<point x="1412" y="0" type="line"/>
			<point x="1443" y="100" type="line"/>
		</contour>
		<contour>
			<point x="1027" y="-299" type="curve" smooth="yes"/>
			<point x="1027" y="-257"/>
			<point x="1044" y="-210"/>
			<point x="1120" y="-101" type="curve" smooth="yes"/>
			<point x="1217" y="37" type="line"/>
			<point x="1144" y="37" type="line"/>
			<point x="1047" y="-72" type="line" smooth="yes"/>
			<point x="925" y="-210"/>
			<point x="897" y="-271"/>
			<point x="897" y="-341" type="curve" smooth="yes"/>
			<point x="897" y="-410"/>
			<point x="937" y="-465"/>
			<point x="1028" y="-465" type="curve" smooth="yes"/>
			<point x="1094" y="-465"/>
			<point x="1150" y="-451"/>
			<point x="1233" y="-398" type="curve"/>
			<point x="1233" y="-334" type="line"/>
			<point x="1179" y="-362"/>
			<point x="1147" y="-368"/>
			<point x="1108" y="-368" type="curve" smooth="yes"/>
			<point x="1055" y="-368"/>
			<point x="1027" y="-342"/>
		</contour>
	</outline>
</glyph>
<glyph name="aogonek" format="2">
	<unicode hex="0105"/>
	<advance width="1319"/>
	<outline>
		<contour>
			<point x="1273" y="184" type="curve"/>
			<point x="1230" y="256" type="line"/>
			<point x="1078" y="157"/>
			<point x="941" y="130"/>
			<point x="848" y="141" type="curve"/>
			<point x="892" y="76" type="line"/>
			<point x="1228" y="1024" type="line"/>
			<point x="1104" y="1024" type="line"/>
			<point x="983" y="843" type="line"/>
			<point x="952" y="760" type="line" smooth="yes"/>
			<point x="836" y="451"/>
			<point x="541" y="118"/>
			<point x="383" y="118" type="curve" smooth="yes"/>
			<point x="291" y="118"/>
			<point x="232" y="166"/>
			<point x="232" y="263" type="curve" smooth="yes"/>
			<point x="232" y="506"/>
			<point x="469" y="926"/>
			<point x="763" y="926" type="curve" smooth="yes"/>
			<point x="854" y="926"/>
			<point x="933" y="886"/>
			<point x="990" y="771" type="curve"/>
			<point x="993" y="833" type="line"/>
			<point x="962" y="967"/>
			<point x="879" y="1044"/>
			<point x="741" y="1044" type="curve" smooth="yes"/>
			<point x="348" y="1044"/>
			<point x="43" y="550"/>
			<point x="43" y="227" type="curve" smooth="yes"/>
			<point x="43" y="67"/>
			<point x="153" y="-20"/>
			<point x="311" y="-20" type="curve" smooth="yes"/>
			<point x="455" y="-20"/>
			<point x="601" y="60"/>
			<point x="892" y="497" type="curve"/>
			<point x="917" y="497" type="line"/>
			<point x="761" y="92" type="line" smooth="yes"/>
			<point x="731" y="14"/>
			<point x="760" y="-20"/>
			<point x="848" y="-20" type="curve" smooth="yes"/>
			<point x="896" y="-20"/>
			<point x="970" y="-6"/>
			<point x="1071" y="48" type="curve"/>
			<point x="1062" y="61" type="line"/>
			<point x="912" y="-72" type="line" smooth="yes"/>
			<point x="755" y="-211"/>
			<point x="727" y="-271"/>
			<point x="727" y="-341" type="curve" smooth="yes"/>
			<point x="727" y="-410"/>
			<point x="767" y="-465"/>
			<point x="858" y="-465" type="curve" smooth="yes"/>
			<point x="924" y="-465"/>
			<point x="980" y="-451"/>
			<point x="1063" y="-398" type="curve"/>
			<point x="1063" y="-334" type="line"/>
			<point x="1009" y="-362"/>
			<point x="977" y="-368"/>
			<point x="938" y="-368" type="curve" smooth="yes"/>
			<point x="885" y="-368"/>
			<point x="857" y="-342"/>
			<point x="857" y="-299" type="curve" smooth="yes"/>
			<point x="857" y="-254"/>
			<point x="866" y="-210"/>
			<point x="978" y="-104" type="curve" smooth="yes"/>
			<point x="1126" y="37" type="line" smooth="yes"/>
			<point x="1176" y="85"/>
			<point x="1224" y="133"/>
		</contour>
	</outline>
</glyph>
<glyph name="Dcroat" format="2">
	<unicode hex="0110"/>
	<advance width="1624"/>
	<outline>
		<contour>
			<point x="159" y="645" type="line"/>
			<point x="875" y="645" type="line"/>
			<point x="915" y="775" type="line"/>
			<point x="199" y="775" type="line"/>
		</contour>
		<contour>
			<point x="631" y="146" type="curve" smooth="yes"/>
			<point x="277" y="146" type="line"/>
			<point x="229" y="0" type="line"/>
			<point x="649" y="0" type="line" smooth="yes"/>
			<point x="1239" y="0"/>
			<point x="1572" y="363"/>
			<point x="1572" y="904" type="curve" smooth="yes"/>
			<point x="1572" y="1234"/>
			<point x="1396" y="1414"/>
			<point x="918" y="1414" type="curve" smooth="yes"/>
			<point x="661" y="1414" type="line"/>
			<point x="613" y="1268" type="line"/>
			<point x="919" y="1268" type="line" smooth="yes"/>
			<point x="1245" y="1268"/>
			<point x="1356" y="1131"/>
			<point x="1356" y="905" type="curve" smooth="yes"/>
			<point x="1356" y="438"/>
			<point x="1113" y="146"/>
		</contour>
		<contour>
			<point x="529" y="1269" type="line"/>
			<point x="185" y="145" type="line"/>
			<point x="-7" y="100" type="line"/>
			<point x="-38" y="0" type="line"/>
			<point x="348" y="0" type="line"/>
			<point x="780" y="1414" type="line"/>
			<point x="379" y="1414" type="line"/>
			<point x="348" y="1314" type="line"/>
		</contour>
	</outline>
</glyph>
<glyph name="Eogonek" format="2">
	<unicode hex="0118"/>
	<advance width="1443"/>
	<outline>
		<contour>
			<point x="526" y="1269" type="line"/>
			<point x="182" y="145" type="line"/>
			<point x="-10" y="100" type="line"/>
			<point x="-41" y="0" type="line"/>
			<point x="345" y="0" type="line"/>
			<point x="777" y="1414" type="line"/>
			<point x="376" y="1414" type="line"/>
			<point x="345" y="1314" type="line"/>
		</contour>
		<contour>
			<point x="859" y="480" type="line"/>
			<point x="983" y="480" type="line"/>
			<point x="1061" y="735" type="line"/>
			<point x="1139" y="990" type="line"/>
			<point x="1015" y="990" type="line"/>
			<point x="944" y="810" type="line"/>
			<point x="474" y="810" type="line"/>
			<point x="428" y="664" type="line"/>
			<point x="899" y="664" type="line"/>
		</contour>
		<contour>
			<point x="1444" y="1042" type="line"/>
			<point x="1579" y="1484" type="line"/>
			<point x="1474" y="1484" type="line"/>
			<point x="1372" y="1414" type="line"/>
			<point x="658" y="1414" type="line"/>
			<point x="610" y="1268" type="line"/>
			<point x="1375" y="1268" type="line"/>
			<point x="1331" y="1342" type="line"/>
			<point x="1311" y="1042" type="line"/>
		</contour>
		<contour>
			<point x="961" y="-72" type="line"/>
			<point x="1082" y="-72" type="line"/>
			<point x="1346" y="422" type="line"/>
			<point x="1211" y="422" type="line"/>
			<point x="901" y="72" type="line"/>
			<point x="1017" y="146" type="line"/>
			<point x="274" y="146" type="line"/>
			<point x="226" y="0" type="line"/>
			<point x="923" y="0" type="line"/>
		</contour>
		<contour>
			<point x="803" y="-299" type="curve" smooth="yes"/>
			<point x="803" y="-257"/>
			<point x="809" y="-217"/>
			<point x="883" y="-109" type="curve" smooth="yes"/>
			<point x="983" y="37" type="line"/>
			<point x="910" y="37" type="line"/>
			<point x="809" y="-80" type="line" smooth="yes"/>
			<point x="689" y="-219"/>
			<point x="673" y="-271"/>
			<point x="673" y="-341" type="curve" smooth="yes"/>
			<point x="673" y="-410"/>
			<point x="713" y="-465"/>
			<point x="804" y="-465" type="curve"/>
			<point x="870" y="-465"/>
			<point x="926" y="-451"/>
			<point x="1009" y="-398" type="curve"/>
			<point x="1009" y="-334" type="line"/>
			<point x="955" y="-362"/>
			<point x="923" y="-368"/>
			<point x="884" y="-368" type="curve" smooth="yes"/>
			<point x="831" y="-368"/>
			<point x="803" y="-342"/>
		</contour>
	</outline>
</glyph>
<glyph name="eogonek" format="2">
	<unicode hex="0119"/>
	<advance width="1056"/>
	<outline>
		<contour>
			<point x="819" y="177" type="line" smooth="yes"/>
			<point x="856" y="223"/>
			<point x="888" y="276"/>
			<point x="919" y="339" type="curve"/>
			<point x="816" y="339" type="line"/>
			<point x="722" y="188"/>
			<point x="604" y="128"/>
			<point x="474" y="128" type="curve" smooth="yes"/>
			<point x="332" y="128"/>
			<point x="269" y="185"/>
			<point x="269" y="371" type="curve" smooth="yes"/>
			<point x="269" y="709"/>
			<point x="462" y="925"/>
			<point x="677" y="925" type="curve" smooth="yes"/>
			<point x="778" y="925"/>
			<point x="831" y="868"/>
			<point x="831" y="779" type="curve" smooth="yes"/>
			<point x="831" y="673"/>
			<point x="818" y="640"/>
			<point x="258" y="553" type="curve"/>
			<point x="251" y="454" type="line"/>
			<point x="462" y="476"/>
			<point x="716" y="520"/>
			<point x="951" y="588" type="curve"/>
			<point x="986" y="643"/>
			<point x="1009" y="721"/>
			<point x="1009" y="790" type="curve" smooth="yes"/>
			<point x="1009" y="932"/>
			<point x="930" y="1044"/>
			<point x="722" y="1044" type="curve" smooth="yes"/>
			<point x="369" y="1044"/>
			<point x="83" y="747"/>
			<point x="83" y="327" type="curve" smooth="yes"/>
			<point x="83" y="92"/>
			<point x="195" y="-20"/>
			<point x="430" y="-20" type="curve" smooth="yes"/>
			<point x="507" y="-20"/>
			<point x="582" y="-5"/>
			<point x="653" y="33" type="curve"/>
			<point x="636" y="55" type="line"/>
			<point x="539" y="-53" type="line" smooth="yes"/>
			<point x="397" y="-210"/>
			<point x="373" y="-271"/>
			<point x="373" y="-341" type="curve" smooth="yes"/>
			<point x="373" y="-410"/>
			<point x="413" y="-465"/>
			<point x="504" y="-465" type="curve" smooth="yes"/>
			<point x="570" y="-465"/>
			<point x="626" y="-451"/>
			<point x="709" y="-398" type="curve"/>
			<point x="709" y="-334" type="line"/>
			<point x="655" y="-362"/>
			<point x="623" y="-368"/>
			<point x="584" y="-368" type="curve" smooth="yes"/>
			<point x="531" y="-368"/>
			<point x="503" y="-342"/>
			<point x="503" y="-299" type="curve" smooth="yes"/>
			<point x="503" y="-257"/>
			<point x="515" y="-200"/>
			<point x="609" y="-84" type="curve" smooth="yes"/>
		</contour>
	</outline>
</glyph>
<glyph name="Hbar" format="2">
	<unicode hex="0126"/>
	<advance width="1728"/>
	<outline>
		<contour>
			<point x="426" y="647" type="line"/>
			<point x="1382" y="647" type="line"/>
			<point x="1425" y="793" type="line"/>
			<point x="470" y="793" type="line"/>
		</contour>
		<contour>
			<point x="265" y="995" type="line"/>
			<point x="1769" y="995" type="line"/>
			<point x="1809" y="1125" type="line"/>
			<point x="305" y="1125" type="line"/>
		</contour>
		<contour>
			<point x="528" y="1269" type="line"/>
			<point x="184" y="145" type="line"/>
			<point x="-8" y="100" type="line"/>
			<point x="-39" y="0" type="line"/>
			<point x="541" y="0" type="line"/>
			<point x="571" y="100" type="line"/>
			<point x="391" y="145" type="line"/>
			<point x="735" y="1269" type="line"/>
			<point x="927" y="1314" type="line"/>
			<point x="957" y="1414" type="line"/>
			<point x="378" y="1414" type="line"/>
			<point x="347" y="1314" type="line"/>
		</contour>
		<contour>
			<point x="1452" y="1269" type="line"/>
			<point x="1108" y="145" type="line"/>
			<point x="916" y="100" type="line"/>
			<point x="886" y="0" type="line"/>
			<point x="1465" y="0" type="line"/>
			<point x="1496" y="100" type="line"/>
			<point x="1315" y="145" type="line"/>
			<point x="1659" y="1269" type="line"/>
			<point x="1851" y="1314" type="line"/>
			<point x="1881" y="1414" type="line"/>
			<point x="1302" y="1414" type="line"/>
			<point x="1272" y="1314" type="line"/>
		</contour>
	</outline>
</glyph>
<glyph name="Iogonek" format="2">
	<unicode hex="012E"/>
	<advance width="799"/>
	<outline>
		<contour>
			<point x="526" y="1269" type="line"/>
			<point x="182" y="145" type="line"/>
			<point x="-10" y="100" type="line"/>
			<point x="-41" y="0" type="line"/>
			<point x="539" y="0" type="line"/>
			<point x="569" y="100" type="line"/>
			<point x="389" y="145" type="line"/>
			<point x="733" y="1269" type="line"/>
			<point x="925" y="1314" type="line"/>
			<point x="955" y="1414" type="line"/>
			<point x="376" y="1414" type="line"/>
			<point x="345" y="1314" type="line"/>
		</contour>
		<contour>
			<point x="101" y="-299" type="curve" smooth="yes"/>
			<point x="101" y="-257"/>
			<point x="117" y="-209"/>
			<point x="202" y="-101" type="curve" smooth="yes"/>
			<point x="310" y="37" type="line"/>
			<point x="237" y="37" type="line"/>
			<point x="130" y="-72" type="line" smooth="yes"/>
			<point x="-4" y="-208"/>
			<point x="-29" y="-271"/>
			<point x="-29" y="-341" type="curve" smooth="yes"/>
			<point x="-29" y="-410"/>
			<point x="11" y="-465"/>
			<point x="102" y="-465" type="curve" smooth="yes"/>
			<point x="168" y="-465"/>
			<point x="224" y="-451"/>
			<point x="307" y="-398" type="curve"/>
			<point x="307" y="-334" type="line"/>
			<point x="253" y="-362"/>
			<point x="221" y="-368"/>
			<point x="182" y="-368" type="curve" smooth="yes"/>
			<point x="129" y="-368"/>
			<point x="101" y="-342"/>
		</contour>
	</outline>
</glyph>
<glyph name="iogonek" format="2">
	<unicode hex="012F"/>
	<advance width="746"/>
	<outline>
		<contour>
			<point x="486" y="1322" type="curve" smooth="yes"/>
			<point x="486" y="1255"/>
			<point x="533" y="1212"/>
			<point x="630" y="1212" type="curve" smooth="yes"/>
			<point x="746" y="1212"/>
			<point x="810" y="1280"/>
			<point x="810" y="1374" type="curve" smooth="yes"/>
			<point x="810" y="1441"/>
			<point x="763" y="1484"/>
			<point x="666" y="1484" type="curve" smooth="yes"/>
			<point x="550" y="1484"/>
			<point x="486" y="1416"/>
		</contour>
		<contour>
			<point x="494" y="54" type="line" smooth="yes"/>
			<point x="563" y="102"/>
			<point x="621" y="143"/>
			<point x="667" y="178" type="curve"/>
			<point x="622" y="254" type="line"/>
			<point x="484" y="165"/>
			<point x="357" y="141"/>
			<point x="263" y="147" type="curve"/>
			<point x="301" y="85" type="line"/>
			<point x="612" y="881" type="line" smooth="yes"/>
			<point x="659" y="1002"/>
			<point x="627" y="1044"/>
			<point x="532" y="1044" type="curve" smooth="yes"/>
			<point x="447" y="1044"/>
			<point x="301" y="1014"/>
			<point x="56" y="823" type="curve"/>
			<point x="106" y="747" type="line"/>
			<point x="278" y="853"/>
			<point x="405" y="883"/>
			<point x="496" y="877" type="curve"/>
			<point x="458" y="939" type="line"/>
			<point x="147" y="143" type="line" smooth="yes"/>
			<point x="95" y="10"/>
			<point x="119" y="-20"/>
			<point x="217" y="-20" type="curve" smooth="yes"/>
			<point x="251" y="-20"/>
			<point x="290" y="-15"/>
			<point x="336" y="-3" type="curve"/>
			<point x="331" y="7" type="line"/>
			<point x="210" y="-71" type="line" smooth="yes"/>
			<point x="33" y="-184"/>
			<point x="4" y="-271"/>
			<point x="4" y="-341" type="curve" smooth="yes"/>
			<point x="4" y="-410"/>
			<point x="44" y="-465"/>
			<point x="135" y="-465" type="curve" smooth="yes"/>
			<point x="201" y="-465"/>
			<point x="257" y="-451"/>
			<point x="340" y="-398" type="curve"/>
			<point x="340" y="-334" type="line"/>
			<point x="286" y="-362"/>
			<point x="254" y="-368"/>
			<point x="215" y="-368" type="curve" smooth="yes"/>
			<point x="162" y="-368"/>
			<point x="134" y="-342"/>
			<point x="134" y="-299" type="curve" smooth="yes"/>
			<point x="134" y="-232"/>
			<point x="172" y="-168"/>
			<point x="275" y="-97" type="curve" smooth="yes"/>
		</contour>
	</outline>
</glyph>
<glyph name="kgreenlandic" format="2">
	<unicode hex="0138"/>
	<advance width="1296"/>
	<outline>
		<contour>
			<point x="621" y="1040" type="line"/>
			<point x="580" y="1043"/>
			<point x="541" y="1044"/>
			<point x="504" y="1044" type="curve" smooth="yes"/>
			<point x="271" y="1044"/>
			<point x="141" y="980"/>
			<point x="72" y="736" type="curve"/>
			<point x="82" y="732" type="line"/>
			<point x="160" y="833"/>
			<point x="253" y="873"/>
			<point x="383" y="873" type="curve" smooth="yes"/>
			<point x="386" y="873"/>
			<point x="390" y="873"/>
			<point x="392" y="873" type="curve"/>
			<point x="123" y="0" type="line"/>
			<point x="303" y="0" type="line"/>
		</contour>
		<contour>
			<point x="1149" y="754" type="curve" smooth="yes"/>
			<point x="1201" y="754"/>
			<point x="1310" y="797"/>
			<point x="1310" y="922" type="curve" smooth="yes"/>
			<point x="1310" y="991"/>
			<point x="1263" y="1044"/>
			<point x="1158" y="1044" type="curve" smooth="yes"/>
			<point x="1030" y="1044"/>
			<point x="904" y="961"/>
			<point x="465" y="540" type="curve"/>
			<point x="459" y="521" type="line"/>
			<point x="647" y="78"/>
			<point x="755" y="-20"/>
			<point x="874" y="-20" type="curve" smooth="yes"/>
			<point x="948" y="-20"/>
			<point x="1051" y="34"/>
			<point x="1218" y="239" type="curve"/>
			<point x="1161" y="293" type="line"/>
			<point x="1056" y="180"/>
			<point x="1002" y="130"/>
			<point x="951" y="130" type="curve" smooth="yes"/>
			<point x="874" y="130"/>
			<point x="810" y="192"/>
			<point x="613" y="597" type="curve"/>
			<point x="573" y="520" type="line"/>
			<point x="928" y="843"/>
			<point x="989" y="882"/>
			<point x="1039" y="882" type="curve" smooth="yes"/>
			<point x="1054" y="882"/>
			<point x="1076" y="854"/>
			<point x="1098" y="821" type="curve" smooth="yes"/>
			<point x="1120" y="788"/>
			<point x="1141" y="754"/>
		</contour>
	</outline>
</glyph>
<glyph name="Lslash" format="2">
	<unicode hex="0141"/>
	<advance width="1317"/>
	<outline>
		<contour>
			<point x="756" y="1269" type="line"/>
			<point x="948" y="1314" type="line"/>
			<point x="978" y="1414" type="line"/>
			<point x="399" y="1414" type="line"/>
			<point x="368" y="1314" type="line"/>
			<point x="549" y="1269" type="line"/>
			<point x="205" y="145" type="line"/>
			<point x="13" y="100" type="line"/>
			<point x="-18" y="0" type="line"/>
			<point x="368" y="0" type="line"/>
		</contour>
		<contour>
			<point x="841" y="70" type="line"/>
			<point x="958" y="146" type="line"/>
			<point x="215" y="146" type="line"/>
			<point x="167" y="0" type="line"/>
			<point x="864" y="0" type="line"/>
			<point x="902" y="-72" type="line"/>
			<point x="1023" y="-72" type="line"/>
			<point x="1243" y="462" type="line"/>
			<point x="1108" y="462" type="line"/>
		</contour>
		<contour>
			<point x="1023" y="991" type="line"/>
			<point x="562" y="771" type="line"/>
			<point x="459" y="750" type="line"/>
			<point x="177" y="616" type="line"/>
			<point x="130" y="464" type="line"/>
			<point x="413" y="598" type="line"/>
			<point x="515" y="619" type="line"/>
			<point x="977" y="839" type="line"/>
		</contour>
	</outline>
</glyph>
<glyph name="lslash" format="2">
	<unicode hex="0142"/>
	<advance width="828"/>
	<outline>
		<contour>
			<point x="110" y="603" type="line"/>
			<point x="64" y="450" type="line"/>
			<point x="349" y="618" type="line"/>
			<point x="406" y="613" type="line"/>
			<point x="766" y="825" type="line"/>
			<point x="812" y="978" type="line"/>
			<point x="452" y="766" type="line"/>
			<point x="396" y="771" type="line"/>
		</contour>
		<contour>
			<point x="498" y="1267" type="curve"/>
			<point x="152" y="143" type="line" smooth="yes"/>
			<point x="110" y="7"/>
			<point x="130" y="-20"/>
			<point x="228" y="-20" type="curve" smooth="yes"/>
			<point x="326" y="-20"/>
			<point x="470" y="18"/>
			<point x="678" y="178" type="curve"/>
			<point x="633" y="254" type="line"/>
			<point x="495" y="165"/>
			<point x="368" y="141"/>
			<point x="274" y="147" type="curve"/>
			<point x="309" y="85" type="line"/>
			<point x="741" y="1484" type="line"/>
			<point x="699" y="1484" type="line"/>
			<point x="316" y="1415" type="line"/>
			<point x="300" y="1346" type="line"/>
			<point x="357" y="1323.2575757576"/>
			<point x="462" y="1281.3636363636"/>
		</contour>
	</outline>
</glyph>
<glyph name="Eng" format="2">
	<unicode hex="014A"/>
	<advance width="1663"/>
	<outline>
		<contour>
			<point x="1203" y="223" type="line"/>
			<point x="820" y="1414" type="line"/>
			<point x="386" y="1414" type="line"/>
			<point x="356" y="1314" type="line"/>
			<point x="523" y="1269" type="line"/>
			<point x="177" y="145" type="line"/>
			<point x="-15" y="100" type="line"/>
			<point x="-44" y="0" type="line"/>
			<point x="482" y="0" type="line"/>
			<point x="511" y="100" type="line"/>
			<point x="329" y="145" type="line"/>
			<point x="677" y="1278" type="line"/>
			<point x="653" y="1298" type="line"/>
			<point x="1100" y="-87" type="line"/>
		</contour>
		<contour>
			<point x="1185" y="-159" type="curve" smooth="yes"/>
			<point x="1624" y="1269" type="line"/>
			<point x="1816" y="1314" type="line"/>
			<point x="1845" y="1414" type="line"/>
			<point x="1319" y="1414" type="line"/>
			<point x="1290" y="1314" type="line"/>
			<point x="1472" y="1269" type="line"/>
			<point x="1038" y="-144" type="line" smooth="yes"/>
			<point x="1000" y="-268"/>
			<point x="937" y="-303"/>
			<point x="848" y="-303" type="curve" smooth="yes"/>
			<point x="728" y="-303"/>
			<point x="694" y="-213"/>
			<point x="665" y="-214" type="curve" smooth="yes"/>
			<point x="611" y="-215"/>
			<point x="575" y="-273"/>
			<point x="575" y="-333" type="curve" smooth="yes"/>
			<point x="575" y="-413"/>
			<point x="656" y="-465"/>
			<point x="791" y="-465" type="curve" smooth="yes"/>
			<point x="1002" y="-465"/>
			<point x="1119" y="-374"/>
		</contour>
	</outline>
</glyph>
<glyph name="eng" format="2">
	<unicode hex="014B"/>
	<advance width="1317"/>
	<outline>
		<contour>
			<point x="497" y="-465" type="curve" smooth="yes"/>
			<point x="688" y="-465"/>
			<point x="896" y="-231"/>
			<point x="1033" y="190" type="curve" smooth="yes"/>
			<point x="1174" y="622" type="line" smooth="yes"/>
			<point x="1216" y="752"/>
			<point x="1226" y="816"/>
			<point x="1226" y="866" type="curve" smooth="yes"/>
			<point x="1226" y="975"/>
			<point x="1148" y="1044"/>
			<point x="1004" y="1044" type="curve" smooth="yes"/>
			<point x="790" y="1044"/>
			<point x="634" y="904"/>
			<point x="415" y="463" type="curve"/>
			<point x="378" y="463" type="line"/>
			<point x="566" y="1040" type="line"/>
			<point x="531" y="1043"/>
			<point x="502" y="1044"/>
			<point x="470" y="1044" type="curve" smooth="yes"/>
			<point x="267" y="1044"/>
			<point x="132" y="980"/>
			<point x="72" y="736" type="curve"/>
			<point x="82" y="732" type="line"/>
			<point x="160" y="833"/>
			<point x="253" y="873"/>
			<point x="383" y="873" type="curve" smooth="yes"/>
			<point x="386" y="873"/>
			<point x="390" y="873"/>
			<point x="392" y="873" type="curve"/>
			<point x="129" y="0" type="line"/>
			<point x="322" y="0" type="line"/>
			<point x="400" y="242" type="line" smooth="yes"/>
			<point x="515" y="599"/>
			<point x="725" y="878"/>
			<point x="929" y="878" type="curve" smooth="yes"/>
			<point x="1000" y="878"/>
			<point x="1037" y="847"/>
			<point x="1037" y="803" type="curve" smooth="yes"/>
			<point x="1037" y="772"/>
			<point x="1034" y="742"/>
			<point x="1011" y="668" type="curve" smooth="yes"/>
			<point x="848" y="143" type="line" smooth="yes"/>
			<point x="721" y="-265"/>
			<point x="648" y="-314"/>
			<point x="572" y="-314" type="curve" smooth="yes"/>
			<point x="558" y="-314"/>
			<point x="531" y="-293"/>
			<point x="501" y="-268" type="curve" smooth="yes"/>
			<point x="471" y="-243"/>
			<point x="442" y="-218"/>
			<point x="436" y="-218" type="curve" smooth="yes"/>
			<point x="393" y="-218"/>
			<point x="339" y="-266"/>
			<point x="339" y="-338" type="curve" smooth="yes"/>
			<point x="339" y="-410"/>
			<point x="378" y="-465"/>
		</contour>
	</outline>
</glyph>
<glyph name="OE" format="2">
  <advance width="2262.0"/>
  <unicode hex="0152"/>
  <outline>
    <contour>
      <point x="1390.0" y="1414.0" type="line"/>
      <point x="956.0" y="0.0" type="line"/>
      <point x="1164.0" y="0.0" type="line"/>
      <point x="1596.0" y="1414.0" type="line"/>
    </contour>
    <contour>
      <point x="1088.0" y="1414.0" type="line" smooth="yes"/>
      <point x="498.0" y="1414.0"/>
      <point x="165.0" y="1039.0"/>
      <point x="165.0" y="498.0" type="curve" smooth="yes"/>
      <point x="165.0" y="178.0"/>
      <point x="345.0" y="0.0"/>
      <point x="792.0" y="0.0" type="curve" smooth="yes"/>
      <point x="1742.0" y="0.0" type="line"/>
      <point x="1780.0" y="-72.0" type="line"/>
      <point x="1901.0" y="-72.0" type="line"/>
      <point x="2165.0" y="422.0" type="line"/>
      <point x="2030.0" y="422.0" type="line"/>
      <point x="1720.0" y="72.0" type="line"/>
      <point x="1836.0" y="146.0" type="line"/>
      <point x="818.0" y="146.0" type="line" smooth="yes"/>
      <point x="492.0" y="146.0"/>
      <point x="381.0" y="283.0"/>
      <point x="381.0" y="509.0" type="curve" smooth="yes"/>
      <point x="381.0" y="976.0"/>
      <point x="624.0" y="1268.0"/>
      <point x="1106.0" y="1268.0" type="curve" smooth="yes"/>
      <point x="2194.0" y="1268.0" type="line"/>
      <point x="2150.0" y="1342.0" type="line"/>
      <point x="2130.0" y="1042.0" type="line"/>
      <point x="2263.0" y="1042.0" type="line"/>
      <point x="2398.0" y="1484.0" type="line"/>
      <point x="2293.0" y="1484.0" type="line"/>
      <point x="2191.0" y="1414.0" type="line"/>
    </contour>
    <contour>
      <point x="1802.0" y="480.0" type="line"/>
      <point x="1880.0" y="735.0" type="line"/>
      <point x="1958.0" y="990.0" type="line"/>
      <point x="1834.0" y="990.0" type="line"/>
      <point x="1763.0" y="810.0" type="line"/>
      <point x="1293.0" y="810.0" type="line"/>
      <point x="1247.0" y="664.0" type="line"/>
      <point x="1718.0" y="664.0" type="line"/>
      <point x="1678.0" y="480.0" type="line"/>
    </contour>
  </outline>
</glyph>
<glyph name="oe" format="2">
	<unicode hex="0153"/>
	<advance width="1834"/>
	<outline>
		<contour>
			<point x="708" y="1044" type="curve" smooth="yes"/>
			<point x="356" y="1044"/>
			<point x="80" y="715"/>
			<point x="80" y="330" type="curve" smooth="yes"/>
			<point x="80" y="125"/>
			<point x="211" y="-20"/>
			<point x="459" y="-20" type="curve" smooth="yes"/>
			<point x="672" y="-20"/>
			<point x="853" y="113"/>
			<point x="967" y="293" type="curve"/>
			<point x="874" y="293" type="line"/>
			<point x="889" y="101"/>
			<point x="996" y="-20"/>
			<point x="1208" y="-20" type="curve" smooth="yes"/>
			<point x="1393" y="-20"/>
			<point x="1565" y="69"/>
			<point x="1697" y="339" type="curve"/>
			<point x="1594" y="339" type="line"/>
			<point x="1500" y="188"/>
			<point x="1382" y="128"/>
			<point x="1252" y="128" type="curve" smooth="yes"/>
			<point x="1110" y="128"/>
			<point x="1047" y="185"/>
			<point x="1047" y="371" type="curve" smooth="yes"/>
			<point x="1047" y="709"/>
			<point x="1240" y="925"/>
			<point x="1455" y="925" type="curve" smooth="yes"/>
			<point x="1556" y="925"/>
			<point x="1609" y="868"/>
			<point x="1609" y="779" type="curve" smooth="yes"/>
			<point x="1609" y="673"/>
			<point x="1596" y="640"/>
			<point x="1036" y="553" type="curve"/>
			<point x="1029" y="454" type="line"/>
			<point x="1240" y="476"/>
			<point x="1494" y="520"/>
			<point x="1729" y="588" type="curve"/>
			<point x="1764" y="643"/>
			<point x="1787" y="721"/>
			<point x="1787" y="790" type="curve" smooth="yes"/>
			<point x="1787" y="932"/>
			<point x="1708" y="1044"/>
			<point x="1500" y="1044" type="curve" smooth="yes"/>
			<point x="1286" y="1044"/>
			<point x="1081" y="915"/>
			<point x="965" y="735" type="curve"/>
			<point x="1067" y="735" type="line"/>
			<point x="1043" y="907"/>
			<point x="930" y="1044"/>
		</contour>
		<contour>
			<point x="465" y="108" type="curve" smooth="yes"/>
			<point x="343" y="108"/>
			<point x="271" y="184"/>
			<point x="271" y="312" type="curve" smooth="yes"/>
			<point x="271" y="627"/>
			<point x="439" y="916"/>
			<point x="702" y="916" type="curve" smooth="yes"/>
			<point x="824" y="916"/>
			<point x="896" y="840"/>
			<point x="896" y="712" type="curve" smooth="yes"/>
			<point x="896" y="397"/>
			<point x="728" y="108"/>
		</contour>
	</outline>
	<anchor name="top" x="1091" y="1024"/>
	<anchor name="bottom" x="777" y="0"/>
</glyph>
<glyph name="Scedilla" format="2">
	<unicode hex="015E"/>
	<advance width="1269"/>
	<outline>
		<contour>
			<point x="1130" y="1225" type="curve"/>
			<point x="1095" y="1276" type="line"/>
			<point x="1093" y="983" type="line"/>
			<point x="1226" y="983" type="line"/>
			<point x="1359" y="1484" type="line"/>
			<point x="1248" y="1484" type="line"/>
			<point x="1136" y="1371" type="line"/>
			<point x="1253" y="1348" type="line"/>
			<point x="1152" y="1409"/>
			<point x="1031" y="1434"/>
			<point x="886" y="1434" type="curve" smooth="yes"/>
			<point x="490" y="1434"/>
			<point x="308" y="1256"/>
			<point x="308" y="997" type="curve" smooth="yes"/>
			<point x="308" y="789"/>
			<point x="449" y="726"/>
			<point x="608" y="675" type="curve" smooth="yes"/>
			<point x="767" y="624"/>
			<point x="917" y="581"/>
			<point x="917" y="419" type="curve" smooth="yes"/>
			<point x="917" y="243"/>
			<point x="777" y="124"/>
			<point x="490" y="124" type="curve" smooth="yes"/>
			<point x="389" y="124"/>
			<point x="312" y="134"/>
			<point x="248" y="149" type="curve"/>
			<point x="336" y="40" type="line"/>
			<point x="217" y="434" type="line"/>
			<point x="81" y="434" type="line"/>
			<point x="97" y="32" type="line"/>
			<point x="198" y="-1"/>
			<point x="302" y="-20"/>
			<point x="482" y="-20" type="curve" smooth="yes"/>
			<point x="894" y="-20"/>
			<point x="1113" y="172"/>
			<point x="1113" y="469" type="curve" smooth="yes"/>
			<point x="1113" y="702"/>
			<point x="942" y="772"/>
			<point x="777" y="828" type="curve" smooth="yes"/>
			<point x="612" y="884"/>
			<point x="500" y="917"/>
			<point x="500" y="1058" type="curve" smooth="yes"/>
			<point x="500" y="1199"/>
			<point x="593" y="1295"/>
			<point x="854" y="1295" type="curve" smooth="yes"/>
			<point x="977" y="1295"/>
			<point x="1077" y="1266"/>
		</contour>
		<contour>
			<point x="370" y="-465" type="curve" smooth="yes"/>
			<point x="565" y="-465"/>
			<point x="655" y="-372"/>
			<point x="655" y="-256" type="curve" smooth="yes"/>
			<point x="655" y="-189"/>
			<point x="608" y="-138"/>
			<point x="461" y="-107" type="curve"/>
			<point x="458" y="-168" type="line"/>
			<point x="648" y="19" type="line"/>
			<point x="554" y="19" type="line"/>
			<point x="353" y="-183" type="line"/>
			<point x="347" y="-203" type="line"/>
			<point x="486" y="-227"/>
			<point x="526" y="-256"/>
			<point x="526" y="-298" type="curve" smooth="yes"/>
			<point x="526" y="-358"/>
			<point x="481" y="-399"/>
			<point x="401" y="-399" type="curve" smooth="yes"/>
			<point x="333" y="-399"/>
			<point x="302" y="-345"/>
			<point x="287" y="-345" type="curve" smooth="yes"/>
			<point x="257" y="-345"/>
			<point x="236" y="-371"/>
			<point x="236" y="-401" type="curve" smooth="yes"/>
			<point x="236" y="-441"/>
			<point x="268" y="-465"/>
		</contour>
	</outline>
</glyph>
<glyph name="scedilla" format="2">
	<unicode hex="015F"/>
	<advance width="957"/>
	<outline>
		<contour>
			<point x="203" y="-465" type="curve" smooth="yes"/>
			<point x="398" y="-465"/>
			<point x="488" y="-372"/>
			<point x="488" y="-256" type="curve" smooth="yes"/>
			<point x="488" y="-189"/>
			<point x="441" y="-138"/>
			<point x="294" y="-107" type="curve"/>
			<point x="291" y="-168" type="line"/>
			<point x="481" y="19" type="line"/>
			<point x="387" y="19" type="line"/>
			<point x="186" y="-183" type="line"/>
			<point x="180" y="-203" type="line"/>
			<point x="319" y="-227"/>
			<point x="359" y="-256"/>
			<point x="359" y="-298" type="curve" smooth="yes"/>
			<point x="359" y="-358"/>
			<point x="314" y="-399"/>
			<point x="234" y="-399" type="curve" smooth="yes"/>
			<point x="166" y="-399"/>
			<point x="135" y="-345"/>
			<point x="120" y="-345" type="curve" smooth="yes"/>
			<point x="90" y="-345"/>
			<point x="69" y="-371"/>
			<point x="69" y="-401" type="curve" smooth="yes"/>
			<point x="69" y="-441"/>
			<point x="101" y="-465"/>
		</contour>
		<contour>
			<point x="229" y="302" type="curve"/>
			<point x="75" y="302"/>
			<point x="34" y="249"/>
			<point x="34" y="160" type="curve" smooth="yes"/>
			<point x="34" y="59"/>
			<point x="115" y="-20"/>
			<point x="331" y="-20" type="curve" smooth="yes"/>
			<point x="599" y="-20"/>
			<point x="806" y="108"/>
			<point x="806" y="321" type="curve" smooth="yes"/>
			<point x="806" y="437"/>
			<point x="769" y="528"/>
			<point x="576" y="603" type="curve" smooth="yes"/>
			<point x="383" y="678"/>
			<point x="356" y="714"/>
			<point x="356" y="783" type="curve" smooth="yes"/>
			<point x="356" y="871"/>
			<point x="458" y="930"/>
			<point x="589" y="930" type="curve" smooth="yes"/>
			<point x="634" y="930"/>
			<point x="660" y="927"/>
			<point x="683" y="906" type="curve" smooth="yes"/>
			<point x="706" y="885"/>
			<point x="722" y="839"/>
			<point x="740" y="752" type="curve"/>
			<point x="849" y="752"/>
			<point x="912" y="807"/>
			<point x="912" y="882" type="curve" smooth="yes"/>
			<point x="912" y="991"/>
			<point x="805" y="1044"/>
			<point x="635" y="1044" type="curve" smooth="yes"/>
			<point x="376" y="1044"/>
			<point x="202" y="918"/>
			<point x="202" y="722" type="curve" smooth="yes"/>
			<point x="202" y="616"/>
			<point x="251" y="540"/>
			<point x="432" y="480" type="curve" smooth="yes"/>
			<point x="613" y="420"/>
			<point x="652" y="367"/>
			<point x="652" y="288" type="curve" smooth="yes"/>
			<point x="652" y="160"/>
			<point x="521" y="91"/>
			<point x="371" y="91" type="curve" smooth="yes"/>
			<point x="327" y="91"/>
			<point x="304" y="95"/>
			<point x="281" y="119" type="curve" smooth="yes"/>
			<point x="258" y="143"/>
			<point x="244" y="195"/>
		</contour>
	</outline>
</glyph>
<glyph name="uni0162" format="2">
	<unicode hex="0162"/>
	<advance width="1474"/>
	<outline>
		<contour>
			<point x="1429" y="1258" type="line"/>
			<point x="1396" y="1296" type="line"/>
			<point x="1420" y="950" type="line"/>
			<point x="1553" y="950" type="line"/>
			<point x="1631" y="1504" type="line"/>
			<point x="1524" y="1504" type="line"/>
			<point x="1414" y="1391" type="line"/>
			<point x="1540" y="1414" type="line"/>
			<point x="455" y="1414" type="line"/>
			<point x="563" y="1391" type="line"/>
			<point x="527" y="1504" type="line"/>
			<point x="420" y="1504" type="line"/>
			<point x="197" y="950" type="line"/>
			<point x="338" y="950" type="line"/>
			<point x="564" y="1296" type="line"/>
			<point x="479" y="1258" type="line"/>
		</contour>
		<contour>
			<point x="885" y="1350" type="line"/>
			<point x="516" y="145" type="line"/>
			<point x="324" y="100" type="line"/>
			<point x="293" y="0" type="line"/>
			<point x="873" y="0" type="line"/>
			<point x="903" y="100" type="line"/>
			<point x="723" y="145" type="line"/>
			<point x="1092" y="1350" type="line"/>
		</contour>
		<contour>
			<point x="414" y="-465" type="curve" smooth="yes"/>
			<point x="609" y="-465"/>
			<point x="699" y="-372"/>
			<point x="699" y="-256" type="curve" smooth="yes"/>
			<point x="699" y="-189"/>
			<point x="652" y="-138"/>
			<point x="505" y="-107" type="curve"/>
			<point x="502" y="-168" type="line"/>
			<point x="692" y="19" type="line"/>
			<point x="598" y="19" type="line"/>
			<point x="397" y="-183" type="line"/>
			<point x="391" y="-203" type="line"/>
			<point x="530" y="-227"/>
			<point x="570" y="-256"/>
			<point x="570" y="-298" type="curve" smooth="yes"/>
			<point x="570" y="-358"/>
			<point x="525" y="-399"/>
			<point x="445" y="-399" type="curve" smooth="yes"/>
			<point x="377" y="-399"/>
			<point x="346" y="-345"/>
			<point x="331" y="-345" type="curve" smooth="yes"/>
			<point x="301" y="-345"/>
			<point x="280" y="-371"/>
			<point x="280" y="-401" type="curve" smooth="yes"/>
			<point x="280" y="-441"/>
			<point x="312" y="-465"/>
		</contour>
	</outline>
</glyph>
<glyph name="uni0163" format="2">
	<unicode hex="0163"/>
	<advance width="831"/>
	<outline>
		<contour>
			<point x="156" y="906" type="line"/>
			<point x="867" y="906" type="line"/>
			<point x="867" y="1024" type="line"/>
			<point x="159" y="1024" type="line"/>
		</contour>
		<contour>
			<point x="388" y="304" type="curve" smooth="yes"/>
			<point x="675" y="1233" type="line"/>
			<point x="503" y="1233" type="line"/>
			<point x="214" y="297" type="line" smooth="yes"/>
			<point x="184" y="199"/>
			<point x="174" y="147"/>
			<point x="174" y="110" type="curve" smooth="yes"/>
			<point x="174" y="23"/>
			<point x="218" y="-20"/>
			<point x="289" y="-20" type="curve" smooth="yes"/>
			<point x="387" y="-20"/>
			<point x="529" y="38"/>
			<point x="722" y="219" type="curve"/>
			<point x="668" y="290" type="line"/>
			<point x="518" y="163"/>
			<point x="441" y="136"/>
			<point x="395" y="136" type="curve" smooth="yes"/>
			<point x="370" y="136"/>
			<point x="358" y="144"/>
			<point x="358" y="177" type="curve" smooth="yes"/>
			<point x="358" y="198"/>
			<point x="370" y="245"/>
		</contour>
		<contour>
			<point x="151" y="-465" type="curve" smooth="yes"/>
			<point x="346" y="-465"/>
			<point x="436" y="-372"/>
			<point x="436" y="-256" type="curve" smooth="yes"/>
			<point x="436" y="-189"/>
			<point x="389" y="-138"/>
			<point x="242" y="-107" type="curve"/>
			<point x="239" y="-168" type="line"/>
			<point x="429" y="19" type="line"/>
			<point x="335" y="19" type="line"/>
			<point x="134" y="-183" type="line"/>
			<point x="128" y="-203" type="line"/>
			<point x="267" y="-227"/>
			<point x="307" y="-256"/>
			<point x="307" y="-298" type="curve" smooth="yes"/>
			<point x="307" y="-358"/>
			<point x="262" y="-399"/>
			<point x="182" y="-399" type="curve" smooth="yes"/>
			<point x="114" y="-399"/>
			<point x="83" y="-345"/>
			<point x="68" y="-345" type="curve" smooth="yes"/>
			<point x="38" y="-345"/>
			<point x="17" y="-371"/>
			<point x="17" y="-401" type="curve" smooth="yes"/>
			<point x="17" y="-441"/>
			<point x="49" y="-465"/>
		</contour>
	</outline>
</glyph>
<glyph name="tbar" format="2">
	<unicode hex="0167"/>
	<advance width="870"/>
	<outline>
		<contour>
			<point x="117" y="521" type="line"/>
			<point x="733" y="521" type="line"/>
			<point x="769" y="641" type="line"/>
			<point x="153" y="641" type="line"/>
		</contour>
		<contour>
			<point x="189" y="906" type="line"/>
			<point x="900" y="906" type="line"/>
			<point x="900" y="1024" type="line"/>
			<point x="192" y="1024" type="line"/>
		</contour>
		<contour>
			<point x="391" y="177" type="curve" smooth="yes"/>
			<point x="391" y="198"/>
			<point x="403" y="245"/>
			<point x="421" y="304" type="curve" smooth="yes"/>
			<point x="708" y="1233" type="line"/>
			<point x="536" y="1233" type="line"/>
			<point x="247" y="297" type="line" smooth="yes"/>
			<point x="217" y="199"/>
			<point x="207" y="147"/>
			<point x="207" y="110" type="curve" smooth="yes"/>
			<point x="207" y="23"/>
			<point x="251" y="-20"/>
			<point x="322" y="-20" type="curve" smooth="yes"/>
			<point x="420" y="-20"/>
			<point x="562" y="38"/>
			<point x="755" y="219" type="curve"/>
			<point x="701" y="290" type="line"/>
			<point x="551" y="163"/>
			<point x="474" y="136"/>
			<point x="428" y="136" type="curve" smooth="yes"/>
			<point x="403" y="136"/>
			<point x="391" y="144"/>
		</contour>
	</outline>
</glyph>
<glyph name="Uogonek" format="2">
	<unicode hex="0172"/>
	<advance width="1636"/>
	<outline>
		<contour>
			<point x="457" y="522" type="curve" smooth="yes"/>
			<point x="686" y="1269" type="line"/>
			<point x="878" y="1314" type="line"/>
			<point x="908" y="1414" type="line"/>
			<point x="329" y="1414" type="line"/>
			<point x="298" y="1314" type="line"/>
			<point x="479" y="1269" type="line"/>
			<point x="273" y="596" type="line" smooth="yes"/>
			<point x="136" y="151"/>
			<point x="329" y="-20"/>
			<point x="717" y="-20" type="curve" smooth="yes"/>
			<point x="1065" y="-20"/>
			<point x="1255" y="130"/>
			<point x="1372" y="512" type="curve" smooth="yes"/>
			<point x="1603" y="1269" type="line"/>
			<point x="1795" y="1314" type="line"/>
			<point x="1824" y="1414" type="line"/>
			<point x="1298" y="1414" type="line"/>
			<point x="1269" y="1314" type="line"/>
			<point x="1451" y="1269" type="line"/>
			<point x="1216" y="502" type="line" smooth="yes"/>
			<point x="1140" y="253"/>
			<point x="1010" y="149"/>
			<point x="751" y="149" type="curve" smooth="yes"/>
			<point x="503" y="149"/>
			<point x="378" y="265"/>
		</contour>
		<contour>
			<point x="568" y="-299" type="curve" smooth="yes"/>
			<point x="568" y="-257"/>
			<point x="578" y="-217"/>
			<point x="661" y="-109" type="curve" smooth="yes"/>
			<point x="774" y="37" type="line"/>
			<point x="701" y="37" type="line"/>
			<point x="589" y="-80" type="line" smooth="yes"/>
			<point x="457" y="-217"/>
			<point x="438" y="-271"/>
			<point x="438" y="-341" type="curve" smooth="yes"/>
			<point x="438" y="-410"/>
			<point x="478" y="-465"/>
			<point x="569" y="-465" type="curve" smooth="yes"/>
			<point x="635" y="-465"/>
			<point x="691" y="-451"/>
			<point x="774" y="-398" type="curve"/>
			<point x="774" y="-334" type="line"/>
			<point x="720" y="-362"/>
			<point x="688" y="-368"/>
			<point x="649" y="-368" type="curve" smooth="yes"/>
			<point x="596" y="-368"/>
			<point x="568" y="-342"/>
		</contour>
	</outline>
</glyph>
<glyph name="uogonek" format="2">
	<unicode hex="0173"/>
	<advance width="1367"/>
	<outline>
		<contour>
			<point x="1325" y="184" type="curve"/>
			<point x="1282" y="256" type="line"/>
			<point x="1130" y="157"/>
			<point x="993" y="130"/>
			<point x="900" y="141" type="curve"/>
			<point x="944" y="76" type="line"/>
			<point x="1254" y="1024" type="line"/>
			<point x="1061" y="1024" type="line"/>
			<point x="888" y="578" type="line" smooth="yes"/>
			<point x="739" y="193"/>
			<point x="544" y="130"/>
			<point x="440" y="130" type="curve" smooth="yes"/>
			<point x="380" y="130"/>
			<point x="338" y="155"/>
			<point x="338" y="203" type="curve" smooth="yes"/>
			<point x="338" y="231"/>
			<point x="350" y="271"/>
			<point x="369" y="318" type="curve" smooth="yes"/>
			<point x="593" y="878" type="line" smooth="yes"/>
			<point x="642" y="1000"/>
			<point x="609" y="1044"/>
			<point x="521" y="1044" type="curve" smooth="yes"/>
			<point x="428" y="1044"/>
			<point x="283" y="1009"/>
			<point x="46" y="813" type="curve"/>
			<point x="96" y="737" type="line"/>
			<point x="247" y="840"/>
			<point x="373" y="883"/>
			<point x="464" y="877" type="curve"/>
			<point x="434" y="939" type="line"/>
			<point x="227" y="420" type="line" smooth="yes"/>
			<point x="168" y="271"/>
			<point x="157" y="207"/>
			<point x="157" y="156" type="curve" smooth="yes"/>
			<point x="157" y="54"/>
			<point x="224" y="-20"/>
			<point x="378" y="-20" type="curve" smooth="yes"/>
			<point x="541" y="-20"/>
			<point x="681" y="38"/>
			<point x="922" y="468" type="curve"/>
			<point x="953" y="468" type="line"/>
			<point x="823" y="90" type="line" smooth="yes"/>
			<point x="797" y="14"/>
			<point x="822" y="-20"/>
			<point x="900" y="-20" type="curve" smooth="yes"/>
			<point x="946" y="-20"/>
			<point x="1015" y="-7"/>
			<point x="1109" y="40" type="curve"/>
			<point x="1098" y="58" type="line"/>
			<point x="933" y="-75" type="line" smooth="yes"/>
			<point x="767" y="-209"/>
			<point x="739" y="-271"/>
			<point x="739" y="-341" type="curve" smooth="yes"/>
			<point x="739" y="-410"/>
			<point x="779" y="-465"/>
			<point x="870" y="-465" type="curve" smooth="yes"/>
			<point x="936" y="-465"/>
			<point x="992" y="-451"/>
			<point x="1075" y="-398" type="curve"/>
			<point x="1075" y="-334" type="line"/>
			<point x="1021" y="-362"/>
			<point x="989" y="-368"/>
			<point x="950" y="-368" type="curve" smooth="yes"/>
			<point x="897" y="-368"/>
			<point x="869" y="-342"/>
			<point x="869" y="-299" type="curve" smooth="yes"/>
			<point x="869" y="-245"/>
			<point x="894" y="-179"/>
			<point x="1051" y="-50" type="curve" smooth="yes"/>
			<point x="1129" y="14" type="line" smooth="yes"/>
			<point x="1195" y="68"/>
			<point x="1260" y="124"/>
		</contour>
	</outline>
</glyph>
<glyph name="uni018F" format="2">
	<unicode hex="018F"/>
	<advance width="1483"/>
	<outline>
		<contour>
			<point x="198" y="728" type="line"/>
			<point x="166" y="614"/>
			<point x="150" y="511"/>
			<point x="150" y="419" type="curve" smooth="yes"/>
			<point x="150" y="143"/>
			<point x="310" y="-20"/>
			<point x="630" y="-20" type="curve" smooth="yes"/>
			<point x="1080" y="-20"/>
			<point x="1431" y="372"/>
			<point x="1431" y="899" type="curve" smooth="yes"/>
			<point x="1431" y="1241"/>
			<point x="1213" y="1434"/>
			<point x="868" y="1434" type="curve" smooth="yes"/>
			<point x="715" y="1434"/>
			<point x="506" y="1374"/>
			<point x="322" y="1258" type="curve"/>
			<point x="296" y="1138" type="line"/>
			<point x="458" y="1205"/>
			<point x="608" y="1245"/>
			<point x="772" y="1245" type="curve" smooth="yes"/>
			<point x="1068" y="1245"/>
			<point x="1216" y="1130"/>
			<point x="1216" y="855" type="curve" smooth="yes"/>
			<point x="1216" y="429"/>
			<point x="1010" y="137"/>
			<point x="645" y="137" type="curve" smooth="yes"/>
			<point x="439" y="137"/>
			<point x="344" y="233"/>
			<point x="344" y="409" type="curve" smooth="yes"/>
			<point x="344" y="474"/>
			<point x="358" y="551"/>
			<point x="384" y="638" type="curve"/>
			<point x="338" y="582" type="line"/>
			<point x="1263" y="582" type="line"/>
			<point x="1298" y="728" type="line"/>
		</contour>
	</outline>
</glyph>
<glyph name="Ohorn" format="2">
	<unicode hex="01A0"/>
	<advance width="1646"/>
	<outline>
		<contour>
			<point x="373" y="517" type="curve" smooth="yes"/>
			<point x="373" y="918"/>
			<point x="612" y="1277"/>
			<point x="1004" y="1277" type="curve" smooth="yes"/>
			<point x="1265" y="1277"/>
			<point x="1383" y="1129"/>
			<point x="1383" y="897" type="curve" smooth="yes"/>
			<point x="1383" y="496"/>
			<point x="1144" y="137"/>
			<point x="752" y="137" type="curve" smooth="yes"/>
			<point x="491" y="137"/>
			<point x="373" y="285"/>
		</contour>
		<contour>
			<point x="1596" y="900" type="curve" smooth="yes"/>
			<point x="1596" y="1067"/>
			<point x="1541" y="1213"/>
			<point x="1406" y="1320" type="curve"/>
			<point x="1401" y="1306" type="line"/>
			<point x="1639" y="1291"/>
			<point x="1748" y="1397"/>
			<point x="1748" y="1585" type="curve" smooth="yes"/>
			<point x="1748" y="1667"/>
			<point x="1700" y="1706"/>
			<point x="1645" y="1706" type="curve" smooth="yes"/>
			<point x="1589" y="1706"/>
			<point x="1544" y="1666"/>
			<point x="1544" y="1637" type="curve" smooth="yes"/>
			<point x="1544" y="1625"/>
			<point x="1570" y="1587"/>
			<point x="1570" y="1533" type="curve" smooth="yes"/>
			<point x="1570" y="1438"/>
			<point x="1511" y="1395"/>
			<point x="1397" y="1395" type="curve" smooth="yes"/>
			<point x="1264" y="1395"/>
			<point x="1220.7845082832" y="1434"/>
			<point x="1011" y="1434" type="curve" smooth="yes"/>
			<point x="527" y="1434"/>
			<point x="160" y="998"/>
			<point x="160" y="514" type="curve" smooth="yes"/>
			<point x="160" y="191"/>
			<point x="364" y="-20"/>
			<point x="745" y="-20" type="curve" smooth="yes"/>
			<point x="1229" y="-20"/>
			<point x="1596" y="416"/>
		</contour>
	</outline>
	<anchor name="UCtop" x="1085" y="1414"/>
	<anchor name="bottom" x="645" y="0"/>
</glyph>
